<?xml version="1.0" encoding="UTF-8" standalone="no"?>
<!-- Created with Inkscape (http://www.inkscape.org/) -->

<svg
   xmlns:dc="http://purl.org/dc/elements/1.1/"
   xmlns:cc="http://creativecommons.org/ns#"
   xmlns:rdf="http://www.w3.org/1999/02/22-rdf-syntax-ns#"
   xmlns:svg="http://www.w3.org/2000/svg"
   xmlns="http://www.w3.org/2000/svg"
   xmlns:sodipodi="http://sodipodi.sourceforge.net/DTD/sodipodi-0.dtd"
   xmlns:inkscape="http://www.inkscape.org/namespaces/inkscape"
   version="1.1"
   id="svg826"
   width="512"
   height="513"
   viewBox="0 0 512 513"
   sodipodi:docname="U+4FE0.svg"
   inkscape:version="0.92.2 (5c3e80d, 2017-08-06)">
  <metadata
     id="metadata832">
    <rdf:RDF>
      <cc:Work
         rdf:about="">
        <dc:format>image/svg+xml</dc:format>
        <dc:type
           rdf:resource="http://purl.org/dc/dcmitype/StillImage" />
        <dc:title></dc:title>
      </cc:Work>
    </rdf:RDF>
  </metadata>
  <defs
     id="defs830" />
  <sodipodi:namedview
     pagecolor="#ffffff"
     bordercolor="#666666"
     borderopacity="1"
     objecttolerance="10"
     gridtolerance="10"
     guidetolerance="10"
     inkscape:pageopacity="0"
     inkscape:pageshadow="2"
     inkscape:window-width="1920"
     inkscape:window-height="1001"
     id="namedview828"
     showgrid="false"
     inkscape:zoom="1.050338"
     inkscape:cx="256"
     inkscape:cy="267.28319"
     inkscape:window-x="-9"
     inkscape:window-y="-9"
     inkscape:window-maximized="1"
     inkscape:current-layer="svg826" />
  <path
     style="fill:#000000;stroke:none;stroke-width:1px;stroke-linecap:butt;stroke-linejoin:miter;stroke-opacity:1;fill-opacity:1"
     d="M 270.38915,156.92414 295.14309,157.87622 345.60304,140.73888 C 345.60304,140.73888 365.5966,141.69095 366.54868,146.45132 367.50075,151.2117 338.93852,156.92414 334.17814,156.92414 329.41777,156.92414 300.85554,173.10941 300.85554,173.10941 300.85554,173.10941 273.24538,180.72601 272.2933,169.30111 271.34123,157.87622 270.38915,156.92414 270.38915,156.92414 Z"
     id="path1379"
     inkscape:connector-curvature="0" />
  <path
     style="fill:#000000;stroke:none;stroke-width:1px;stroke-linecap:butt;stroke-linejoin:miter;stroke-opacity:1;fill-opacity:1"
     d="M 154.23607,133.12228 C 154.23607,133.12228 162.80474,122.64946 175.1817,138.83473 187.55867,155.02 194.22319,172.15734 194.22319,172.15734 L 179.94208,173.10941 158.99644,198.81542 125.67383,252.13159 77.118033,306.39984 46.65165,315.92058 C 46.65165,315.92058 42.843352,303.54361 59.028618,293.07079 75.213884,282.59798 118.05724,236.8984 118.05724,236.8984 L 150.42777,193.10297 170.42133,159.78037 C 170.42133,159.78037 173.27756,150.25962 164.70889,142.64303 156.14021,135.02643 154.23607,133.12228 154.23607,133.12228 Z"
     id="path1381"
     inkscape:connector-curvature="0" />
  <path
     style="fill:#000000;stroke:none;stroke-width:1px;stroke-linecap:butt;stroke-linejoin:miter;stroke-opacity:1;fill-opacity:1"
     d="M 150.42777,245.46707 157.09229,265.46063 143.76325,399.70314 156.14021,496.81473 174.22963,513 195.17527,503.47926 176.13378,484.43777 160.90059,384.46995 172.32548,274.02931 168.51718,251.17952 Z"
     id="path1383"
     inkscape:connector-curvature="0" />
  <path
     style="fill:#000000;stroke:none;stroke-width:1px;stroke-linecap:butt;stroke-linejoin:miter;stroke-opacity:1;fill-opacity:1"
     d="M 238.97069,204.52787 C 238.97069,204.52787 271.34123,213.09654 283.7182,222.61728 296.09516,232.13803 302.75969,239.75462 302.75969,239.75462 302.75969,239.75462 290.38272,241.65877 280.86197,239.75462 271.34123,237.85047 258.96426,246.41915 258.96426,246.41915 258.96426,246.41915 243.73107,240.7067 238.97069,204.52787 Z"
     id="path1385"
     inkscape:connector-curvature="0" />
  <path
     style="fill:#000000;stroke:none;stroke-width:1px;stroke-linecap:butt;stroke-linejoin:miter;stroke-opacity:1;fill-opacity:1"
     d="M 341.79474,182.63016 C 341.79474,182.63016 378.92564,190.24675 374.16527,203.57579 369.4049,216.90484 348.45926,232.13803 348.45926,232.13803 L 322.75325,247.37122 312.28043,242.61085 324.6574,231.18595 346.55511,207.38409 V 192.1509 Z"
     id="path1387"
     inkscape:connector-curvature="0" />
  <path
     style="fill:#000000;stroke:none;stroke-width:1px;stroke-linecap:butt;stroke-linejoin:miter;stroke-opacity:1;fill-opacity:1"
     d="M 191.36697,284.50212 C 195.17527,285.4542 247.53937,276.88553 247.53937,276.88553 247.53937,276.88553 305.61591,260.70026 348.45926,255.93989 391.30261,251.17952 408.43995,250.22744 418.91277,255.93989 429.38559,261.65234 436.05011,276.88553 436.05011,276.88553 436.05011,276.88553 428.43352,281.6459 417.9607,274.98138 407.48788,268.31686 383.68602,257.84404 350.36341,261.65234 317.0408,265.46063 266.58085,275.93345 252.29974,283.55005 238.01862,291.16665 223.7375,301.63947 223.7375,301.63947 223.7375,301.63947 192.31905,284.50212 191.36697,284.50212 Z"
     id="path1389"
     inkscape:connector-curvature="0" />
  <path
     style="fill:#000000;stroke:none;stroke-width:1px;stroke-linecap:butt;stroke-linejoin:miter;stroke-opacity:1;fill-opacity:1"
     d="M 298.95139,85.518558 C 298.95139,85.518558 324.6574,90.27893 328.4657,106.4642 332.27399,122.64946 329.41777,151.2117 329.41777,151.2117 L 320.8491,186.43845 312.28043,242.61085 297.04724,309.25606 C 297.04724,309.25606 281.81405,345.43489 264.67671,356.85979 247.53937,368.28468 228.49788,369.23675 228.49788,369.23675 228.49788,369.23675 219.92921,348.29111 235.1624,349.24319 250.39559,350.19526 278.95782,314.96851 278.95782,314.96851 L 299.90346,253.08367 312.28043,176.91771 317.0408,119.79324 C 317.0408,119.79324 293.23894,94.087228 298.95139,85.518558 Z"
     id="path1391"
     inkscape:connector-curvature="0" />
  <path
     style="fill:#000000;stroke:none;stroke-width:1px;stroke-linecap:butt;stroke-linejoin:miter;stroke-opacity:1;fill-opacity:1"
     d="M 336.08229,302.59154 C 336.08229,302.59154 380.82979,324.48925 398.91921,354.95564 417.00862,385.42202 418.91277,403.51143 418.91277,403.51143 418.91277,403.51143 411.29618,413.03218 379.87772,365.42846 348.45926,317.82473 337.98644,305.44776 337.98644,305.44776 Z"
     id="path1393"
     inkscape:connector-curvature="0" />
</svg>
