<?xml version="1.0" encoding="UTF-8" standalone="no"?>
<!-- Created with Inkscape (http://www.inkscape.org/) -->

<svg
   xmlns:dc="http://purl.org/dc/elements/1.1/"
   xmlns:cc="http://creativecommons.org/ns#"
   xmlns:rdf="http://www.w3.org/1999/02/22-rdf-syntax-ns#"
   xmlns:svg="http://www.w3.org/2000/svg"
   xmlns="http://www.w3.org/2000/svg"
   xmlns:sodipodi="http://sodipodi.sourceforge.net/DTD/sodipodi-0.dtd"
   xmlns:inkscape="http://www.inkscape.org/namespaces/inkscape"
   version="1.1"
   id="svg815"
   width="512"
   height="512"
   viewBox="0 0 512 512"
   sodipodi:docname="冠.svg"
   inkscape:version="0.92.2 (5c3e80d, 2017-08-06)">
  <metadata
     id="metadata821">
    <rdf:RDF>
      <cc:Work
         rdf:about="">
        <dc:format>image/svg+xml</dc:format>
        <dc:type
           rdf:resource="http://purl.org/dc/dcmitype/StillImage" />
        <dc:title></dc:title>
      </cc:Work>
    </rdf:RDF>
  </metadata>
  <defs
     id="defs819" />
  <sodipodi:namedview
     pagecolor="#ffffff"
     bordercolor="#666666"
     borderopacity="1"
     objecttolerance="10"
     gridtolerance="10"
     guidetolerance="10"
     inkscape:pageopacity="0"
     inkscape:pageshadow="2"
     inkscape:window-width="1133"
     inkscape:window-height="991"
     id="namedview817"
     showgrid="false"
     inkscape:zoom="1.1103093"
     inkscape:cx="256"
     inkscape:cy="256"
     inkscape:window-x="-7"
     inkscape:window-y="0"
     inkscape:window-maximized="0"
     inkscape:current-layer="svg815" />
  <path
     style="fill:#000000;stroke:none;stroke-width:1px;stroke-linecap:butt;stroke-linejoin:miter;stroke-opacity:1;fill-opacity:1"
     d="M 135.99815,164.34911 C 135.99815,164.34911 148.60724,187.76601 147.70659,195.87186 146.80594,203.97771 143.20334,222.89136 143.20334,222.89136 143.20334,222.89136 136.8988,223.79201 136.8988,230.09656 136.8988,236.40111 137.79945,258.91736 143.20334,255.31476 148.60724,251.71216 154.01114,234.59981 157.61374,215.68616 161.21634,196.77251 152.20984,176.95821 145.00464,169.75301 137.79945,162.54781 135.99815,164.34911 135.99815,164.34911 Z"
     id="path4514"
     inkscape:connector-curvature="0" />
  <path
     style="fill:#000000;stroke:none;stroke-width:1px;stroke-linecap:butt;stroke-linejoin:miter;stroke-opacity:1;fill-opacity:1"
     d="M 157.61374,166.15041 161.21634,186.86536 C 161.21634,186.86536 172.92479,182.36211 187.33519,176.95821 201.74559,171.55431 266.59239,162.54781 266.59239,162.54781 L 314.32684,157.14391 C 314.32684,157.14391 316.12814,174.25626 314.32684,176.05756 312.52554,177.85886 306.22099,174.25626 306.22099,174.25626 306.22099,174.25626 306.22099,194.07056 311.62489,194.07056 317.02879,194.07056 343.14764,165.24976 343.14764,162.54781 343.14764,159.84586 327.83659,147.23676 326.03529,145.43546 324.23399,143.63416 316.12814,150.83936 316.12814,150.83936 L 197.24234,164.34911 C 197.24234,164.34911 158.51439,176.05756 157.61374,166.15041 Z"
     id="path4516"
     inkscape:connector-curvature="0" />
  <path
     style="fill:#000000;stroke:none;stroke-width:1px;stroke-linecap:butt;stroke-linejoin:miter;stroke-opacity:1;fill-opacity:1"
     d="M 182.83194,214.78551 207.14949,209.38161 236.87094,196.77251 246.77809,201.27576 236.87094,215.68616 C 236.87094,215.68616 227.86444,212.08356 214.35469,221.09006 200.84494,230.09656 193.63974,238.20241 182.83194,214.78551 Z"
     id="path4518"
     inkscape:connector-curvature="0" />
  <path
     style="fill:#000000;stroke:none;stroke-width:1px;stroke-linecap:butt;stroke-linejoin:miter;stroke-opacity:1;fill-opacity:1"
     d="M 157.61374,264.32126 C 157.61374,264.32126 181.03064,260.71866 191.83844,257.11606 202.64624,253.51346 217.05664,236.40111 217.05664,236.40111 L 227.86444,242.70566 C 227.86444,242.70566 230.56639,248.10956 221.55989,253.51346 212.55339,258.91736 195.44104,260.71866 182.83194,271.52646 170.22284,282.33426 152.20984,272.42711 157.61374,264.32126 Z"
     id="path4520"
     inkscape:connector-curvature="0" />
  <path
     style="fill:#000000;stroke:none;stroke-width:1px;stroke-linecap:butt;stroke-linejoin:miter;stroke-opacity:1;fill-opacity:1"
     d="M 190.93779,257.11606 C 190.93779,257.11606 199.04364,273.32776 190.93779,282.33426 182.83194,291.34076 154.01114,316.55896 154.01114,316.55896 L 140.5014,318.36026 C 140.5014,318.36026 126.99165,328.26741 131.4949,333.67131 135.99815,339.07521 155.81244,327.36676 166.62024,318.36026 177.42804,309.35376 208.95079,264.32126 208.95079,264.32126 208.95079,264.32126 217.95729,249.91086 215.25534,247.20891 212.55339,244.50696 197.24234,248.10956 190.93779,257.11606 Z"
     id="path4522"
     inkscape:connector-curvature="0" />
  <path
     style="fill:#000000;stroke:none;stroke-width:1px;stroke-linecap:butt;stroke-linejoin:miter;stroke-opacity:1;fill-opacity:1"
     d="M 218.85794,273.32776 C 218.85794,273.32776 233.26834,281.43361 230.56639,289.53946 227.86444,297.64531 226.96379,293.14206 219.75859,311.15506 212.55339,329.16806 217.95729,348.08171 224.26184,348.08171 230.56639,348.08171 241.37419,351.68431 267.49304,349.88301 293.61189,348.08171 323.33334,350.78366 333.24049,341.77716 343.14764,332.77066 353.95544,321.06221 354.85609,317.45961 355.75674,313.85701 374.67039,329.16806 374.67039,335.47261 374.67039,341.77716 380.07429,348.08171 362.96194,350.78366 345.84959,353.48561 300.81709,357.98886 300.81709,357.98886 L 237.77159,360.69081 C 237.77159,360.69081 210.75209,354.38626 208.05014,346.28041 205.34819,338.17456 206.24884,321.06221 211.65274,301.24791 217.05664,281.43361 209.85144,273.32776 218.85794,273.32776 Z"
     id="path4524"
     inkscape:connector-curvature="0" />
  <path
     style="fill:#000000;stroke:none;stroke-width:1px;stroke-linecap:butt;stroke-linejoin:miter;stroke-opacity:1;fill-opacity:1"
     d="M 252.18199,235.50046 C 252.18199,235.50046 265.69174,240.90436 264.79109,247.20891 263.89044,253.51346 260.28784,278.73166 260.28784,278.73166 260.28784,278.73166 247.67874,276.02971 247.67874,265.22191 247.67874,254.41411 252.18199,235.50046 252.18199,235.50046 Z"
     id="path4526"
     inkscape:connector-curvature="0" />
  <path
     style="fill:#000000;stroke:none;stroke-width:1px;stroke-linecap:butt;stroke-linejoin:miter;stroke-opacity:1;fill-opacity:1"
     d="M 283.70474,199.47446 C 283.70474,199.47446 306.22099,211.18291 305.32034,215.68616 304.41969,220.18941 299.91644,235.50046 298.11514,244.50696 296.31384,253.51346 296.31384,282.33426 297.21449,286.83751 298.11514,291.34076 300.81709,320.16156 300.81709,320.16156 L 295.41319,337.27391 C 295.41319,337.27391 292.71124,342.67781 285.50604,324.66481 278.30084,306.65181 285.50604,308.45311 285.50604,308.45311 285.50604,308.45311 287.30734,245.40761 287.30734,237.30176 287.30734,229.19591 294.51254,221.99071 288.20799,213.88486 281.90344,205.77901 283.70474,199.47446 283.70474,199.47446 Z"
     id="path4528"
     inkscape:connector-curvature="0" />
</svg>
