<?xml version="1.0" encoding="UTF-8" standalone="no"?>
<!-- Created with Inkscape (http://www.inkscape.org/) -->

<svg
   xmlns:dc="http://purl.org/dc/elements/1.1/"
   xmlns:cc="http://creativecommons.org/ns#"
   xmlns:rdf="http://www.w3.org/1999/02/22-rdf-syntax-ns#"
   xmlns:svg="http://www.w3.org/2000/svg"
   xmlns="http://www.w3.org/2000/svg"
   xmlns:sodipodi="http://sodipodi.sourceforge.net/DTD/sodipodi-0.dtd"
   xmlns:inkscape="http://www.inkscape.org/namespaces/inkscape"
   version="1.1"
   id="svg815"
   width="512"
   height="512"
   viewBox="0 0 512 512"
   sodipodi:docname="U+516B.svg"
   inkscape:version="0.92.2 (5c3e80d, 2017-08-06)">
  <metadata
     id="metadata821">
    <rdf:RDF>
      <cc:Work
         rdf:about="">
        <dc:format>image/svg+xml</dc:format>
        <dc:type
           rdf:resource="http://purl.org/dc/dcmitype/StillImage" />
        <dc:title />
      </cc:Work>
    </rdf:RDF>
  </metadata>
  <defs
     id="defs819" />
  <sodipodi:namedview
     pagecolor="#ffffff"
     bordercolor="#666666"
     borderopacity="1"
     objecttolerance="10"
     gridtolerance="10"
     guidetolerance="10"
     inkscape:pageopacity="0"
     inkscape:pageshadow="2"
     inkscape:window-width="1920"
     inkscape:window-height="1001"
     id="namedview817"
     showgrid="false"
     inkscape:zoom="1.5761719"
     inkscape:cx="151.63321"
     inkscape:cy="256"
     inkscape:window-x="-9"
     inkscape:window-y="-9"
     inkscape:window-maximized="1"
     inkscape:current-layer="svg815" />
  <path
     style="fill:#000000;fill-opacity:1;stroke:none;stroke-width:1.11363578px;stroke-linecap:butt;stroke-linejoin:miter;stroke-opacity:1"
     d="M 305.5553,176.00873 C 305.5553,176.00873 316.62405,182.14239 325.0884,192.87628 333.55274,203.61018 359.59686,230.44492 359.59686,230.44492 L 396.05863,258.81309 434.47372,289.48136 C 434.47372,289.48136 454.65792,291.01478 459.21564,299.44855 463.77336,307.88233 468.98219,309.41574 455.30902,308.64903 441.63585,307.88233 427.31158,304.8155 424.05607,305.58221 420.80056,306.34892 403.87187,311.71587 403.87187,311.71587 403.87187,311.71587 390.1987,308.64903 386.29209,304.04879 382.38547,299.44855 341.36597,237.34529 341.36597,237.34529 341.36597,237.34529 317.27515,191.34287 308.81081,179.84226 300.34647,168.34167 305.5553,176.00873 305.5553,176.00873 Z"
     id="path825"
     inkscape:connector-curvature="0" />
  <path
     style="fill:#000000;fill-opacity:1;stroke:none;stroke-width:1.11363578px;stroke-linecap:butt;stroke-linejoin:miter;stroke-opacity:1"
     d="M 175.98577,156.07435 C 175.98577,156.07435 199.42549,184.44251 201.3788,194.4097 203.3321,204.37689 206.58763,222.77785 204.63431,225.07798 202.681,227.3781 180.54349,251.91272 180.54349,251.91272 L 150.59275,285.64783 131.71076,300.98197 101.10892,327.05 C 101.10892,327.05 86.784649,337.01719 80.273612,336.25048 73.762581,335.48377 67.251549,329.35013 67.251549,329.35013 L 72.460375,319.38293 80.273612,320.14964 C 80.273612,320.14964 84.831329,318.61623 114.78208,291.78149 144.73282,264.94674 173.38136,229.67822 173.38136,229.67822 173.38136,229.67822 181.8457,218.94432 182.49681,206.677 183.14791,194.4097 175.98577,165.27483 175.98577,165.27483 Z"
     id="path827"
     inkscape:connector-curvature="0" />
</svg>
