<?xml version="1.0" encoding="UTF-8" standalone="no"?>
<!-- Created with Inkscape (http://www.inkscape.org/) -->

<svg
   xmlns:dc="http://purl.org/dc/elements/1.1/"
   xmlns:cc="http://creativecommons.org/ns#"
   xmlns:rdf="http://www.w3.org/1999/02/22-rdf-syntax-ns#"
   xmlns:svg="http://www.w3.org/2000/svg"
   xmlns="http://www.w3.org/2000/svg"
   xmlns:sodipodi="http://sodipodi.sourceforge.net/DTD/sodipodi-0.dtd"
   xmlns:inkscape="http://www.inkscape.org/namespaces/inkscape"
   version="1.1"
   id="svg815"
   width="512"
   height="512"
   viewBox="0 0 512 512"
   sodipodi:docname="U+51A0.svg"
   inkscape:version="0.92.2 (5c3e80d, 2017-08-06)">
  <metadata
     id="metadata821">
    <rdf:RDF>
      <cc:Work
         rdf:about="">
        <dc:format>image/svg+xml</dc:format>
        <dc:type
           rdf:resource="http://purl.org/dc/dcmitype/StillImage" />
        <dc:title />
      </cc:Work>
    </rdf:RDF>
  </metadata>
  <defs
     id="defs819" />
  <sodipodi:namedview
     pagecolor="#ffffff"
     bordercolor="#666666"
     borderopacity="1"
     objecttolerance="10"
     gridtolerance="10"
     guidetolerance="10"
     inkscape:pageopacity="0"
     inkscape:pageshadow="2"
     inkscape:window-width="1920"
     inkscape:window-height="1001"
     id="namedview817"
     showgrid="false"
     inkscape:zoom="1.1103093"
     inkscape:cx="112.36129"
     inkscape:cy="256"
     inkscape:window-x="-9"
     inkscape:window-y="-9"
     inkscape:window-maximized="1"
     inkscape:current-layer="svg815" />
  <path
     style="fill:#000000;fill-opacity:1;stroke:none;stroke-width:1.25824749px;stroke-linecap:butt;stroke-linejoin:miter;stroke-opacity:1"
     d="M 124.78491,143.20504 C 124.78491,143.20504 140.63995,172.68847 139.50744,182.89428 138.37494,193.10008 133.84492,216.91362 133.84492,216.91362 133.84492,216.91362 125.91741,218.0476 125.91741,225.98545 125.91741,233.92329 127.04991,262.27274 133.84492,257.73683 140.63995,253.20091 147.43496,231.65533 151.96498,207.8418 156.49499,184.02825 145.16996,159.08074 136.10993,150.00892 127.04991,140.93709 124.78491,143.20504 124.78491,143.20504 Z"
     id="path4514"
     inkscape:connector-curvature="0" />
  <path
     style="fill:#000000;fill-opacity:1;stroke:none;stroke-width:1.25824749px;stroke-linecap:butt;stroke-linejoin:miter;stroke-opacity:1"
     d="M 151.96498,145.47301 156.49499,171.5545 C 156.49499,171.5545 171.21754,165.88461 189.33759,159.08074 207.45765,152.27687 288.99791,140.93709 288.99791,140.93709 L 349.0206,134.13323 C 349.0206,134.13323 351.2856,155.67881 349.0206,157.94676 346.75559,160.21472 338.82807,155.67881 338.82807,155.67881 338.82807,155.67881 338.82807,180.62632 345.62309,180.62632 352.41811,180.62632 385.26072,144.33903 385.26072,140.93709 385.26072,137.53516 366.00816,121.65946 363.74315,119.39151 361.47814,117.12355 351.2856,126.19538 351.2856,126.19538 L 201.79514,143.20504 C 201.79514,143.20504 153.09748,157.94676 151.96498,145.47301 Z"
     id="path4516"
     inkscape:connector-curvature="0" />
  <path
     style="fill:#000000;fill-opacity:1;stroke:none;stroke-width:1.25824749px;stroke-linecap:butt;stroke-linejoin:miter;stroke-opacity:1"
     d="M 183.67508,206.70782 214.25267,199.90395 251.62529,184.02825 264.08284,189.69815 251.62529,207.8418 C 251.62529,207.8418 240.30026,203.30588 223.31271,214.64567 206.32516,225.98545 197.26512,236.19125 183.67508,206.70782 Z"
     id="path4518"
     inkscape:connector-curvature="0" />
  <path
     style="fill:#000000;fill-opacity:1;stroke:none;stroke-width:1.25824749px;stroke-linecap:butt;stroke-linejoin:miter;stroke-opacity:1"
     d="M 151.96498,269.07661 C 151.96498,269.07661 181.41007,264.54069 195.00011,260.00479 208.59015,255.46888 226.71022,233.92329 226.71022,233.92329 L 240.30026,241.86113 C 240.30026,241.86113 243.69777,248.66501 232.37273,255.46888 221.0477,262.27274 199.53013,264.54069 183.67508,278.14844 167.82002,291.75617 145.16996,279.28241 151.96498,269.07661 Z"
     id="path4520"
     inkscape:connector-curvature="0" />
  <path
     style="fill:#000000;fill-opacity:1;stroke:none;stroke-width:1.25824749px;stroke-linecap:butt;stroke-linejoin:miter;stroke-opacity:1"
     d="M 193.86761,260.00479 C 193.86761,260.00479 204.06015,280.41639 193.86761,291.75617 183.67508,303.09595 147.43496,334.84733 147.43496,334.84733 L 130.44742,337.1153 C 130.44742,337.1153 113.45987,349.58905 119.12239,356.39292 124.78491,363.19678 149.69997,348.45507 163.29002,337.1153 176.88006,325.77552 216.51768,269.07661 216.51768,269.07661 216.51768,269.07661 227.84271,250.93296 224.44521,247.53103 221.0477,244.12909 201.79514,248.66501 193.86761,260.00479 Z"
     id="path4522"
     inkscape:connector-curvature="0" />
  <path
     style="fill:#000000;fill-opacity:1;stroke:none;stroke-width:1.25824749px;stroke-linecap:butt;stroke-linejoin:miter;stroke-opacity:1"
     d="M 228.97522,280.41639 C 228.97522,280.41639 247.09527,290.62219 243.69777,300.82799 240.30026,311.0338 239.16776,305.36391 230.10772,328.04347 221.0477,350.72303 227.84271,374.53656 235.77024,374.53656 243.69777,374.53656 257.28781,379.07248 290.13041,376.80453 322.97302,374.53656 360.34564,377.9385 372.80317,366.59873 385.26072,355.25895 398.85076,340.51723 399.98326,335.98132 401.11577,331.4454 424.89834,350.72303 424.89834,358.66088 424.89834,366.59873 431.69336,374.53656 410.17579,377.9385 388.65822,381.34043 332.03304,387.01033 332.03304,387.01033 L 252.75779,390.41226 C 252.75779,390.41226 218.78269,382.47441 215.38518,372.26861 211.98767,362.06281 213.12017,340.51723 219.9152,315.56971 226.71022,290.62219 217.65019,280.41639 228.97522,280.41639 Z"
     id="path4524"
     inkscape:connector-curvature="0" />
  <path
     style="fill:#000000;fill-opacity:1;stroke:none;stroke-width:1.25824749px;stroke-linecap:butt;stroke-linejoin:miter;stroke-opacity:1"
     d="M 270.87785,232.78931 C 270.87785,232.78931 287.8654,239.59318 286.7329,247.53103 285.6004,255.46888 281.07039,287.22026 281.07039,287.22026 281.07039,287.22026 265.21534,283.81832 265.21534,270.21059 265.21534,256.60285 270.87785,232.78931 270.87785,232.78931 Z"
     id="path4526"
     inkscape:connector-curvature="0" />
  <path
     style="fill:#000000;fill-opacity:1;stroke:none;stroke-width:1.25824749px;stroke-linecap:butt;stroke-linejoin:miter;stroke-opacity:1"
     d="M 310.51548,187.43019 C 310.51548,187.43019 338.82807,202.1719 337.69556,207.8418 336.56306,213.51168 330.90054,232.78931 328.63553,244.12909 326.37053,255.46888 326.37053,291.75617 327.50303,297.42606 328.63553,303.09595 332.03304,339.38325 332.03304,339.38325 L 325.23803,360.92883 C 325.23803,360.92883 321.84052,367.7327 312.78048,345.05313 303.72046,322.37358 312.78048,324.64153 312.78048,324.64153 312.78048,324.64153 315.04549,245.26308 315.04549,235.05727 315.04549,224.85147 324.10553,215.77965 316.178,205.57384 308.25047,195.36804 310.51548,187.43019 310.51548,187.43019 Z"
     id="path4528"
     inkscape:connector-curvature="0" />
</svg>
