<?xml version="1.0" encoding="UTF-8" standalone="no"?>
<!-- Created with Inkscape (http://www.inkscape.org/) -->

<svg
   xmlns:dc="http://purl.org/dc/elements/1.1/"
   xmlns:cc="http://creativecommons.org/ns#"
   xmlns:rdf="http://www.w3.org/1999/02/22-rdf-syntax-ns#"
   xmlns:svg="http://www.w3.org/2000/svg"
   xmlns="http://www.w3.org/2000/svg"
   xmlns:sodipodi="http://sodipodi.sourceforge.net/DTD/sodipodi-0.dtd"
   xmlns:inkscape="http://www.inkscape.org/namespaces/inkscape"
   version="1.1"
   id="svg815"
   width="481"
   height="480"
   viewBox="0 0 481 480"
   sodipodi:docname="U+5175.svg"
   inkscape:version="0.92.2 (5c3e80d, 2017-08-06)">
  <metadata
     id="metadata821">
    <rdf:RDF>
      <cc:Work
         rdf:about="">
        <dc:format>image/svg+xml</dc:format>
        <dc:type
           rdf:resource="http://purl.org/dc/dcmitype/StillImage" />
        <dc:title />
      </cc:Work>
    </rdf:RDF>
  </metadata>
  <defs
     id="defs819" />
  <sodipodi:namedview
     pagecolor="#ffffff"
     bordercolor="#666666"
     borderopacity="1"
     objecttolerance="10"
     gridtolerance="10"
     guidetolerance="10"
     inkscape:pageopacity="0"
     inkscape:pageshadow="2"
     inkscape:window-width="1920"
     inkscape:window-height="1001"
     id="namedview817"
     showgrid="false"
     inkscape:zoom="1.5674954"
     inkscape:cx="135.55551"
     inkscape:cy="240"
     inkscape:window-x="-9"
     inkscape:window-y="-9"
     inkscape:window-maximized="1"
     inkscape:current-layer="svg815" />
  <path
     style="fill:#000000;fill-opacity:1;stroke:none;stroke-width:1.23023057px;stroke-linecap:butt;stroke-linejoin:miter;stroke-opacity:1"
     d="M 234.47742,82.550674 C 234.47742,82.550674 241.445,93.68974 239.89665,99.259267 238.3483,104.82879 225.18731,129.49389 225.18731,129.49389 L 215.12301,147.79378 207.38126,159.72848 229.05819,146.20247 252.28347,117.55917 262.34776,105.62445 252.28347,89.711508 C 252.28347,89.711508 235.25159,84.937611 234.47742,82.550674 Z"
     id="path825"
     inkscape:connector-curvature="0" />
  <path
     style="fill:#000000;fill-opacity:1;stroke:none;stroke-width:1.23023057px;stroke-linecap:butt;stroke-linejoin:miter;stroke-opacity:1"
     d="M 222.86479,174.05014 C 222.86479,174.05014 245.31589,176.43708 254.606,174.05014 263.89612,171.6632 286.34723,163.70672 299.50821,161.31978 312.66921,158.93283 310.34668,161.31978 316.54008,156.54589 322.73351,151.77201 330.47526,147.79378 330.47526,147.79378 L 349.05549,156.54589 351.37801,166.09365 H 325.05603 L 284.79888,171.6632 C 284.79888,171.6632 263.12194,178.82403 260.7994,180.41532 258.47688,182.00662 246.86424,192.35004 246.86424,192.35004 246.86424,192.35004 230.60654,200.3065 222.86479,174.05014 Z"
     id="path827"
     inkscape:connector-curvature="0" />
  <path
     style="fill:#000000;fill-opacity:1;stroke:none;stroke-width:1.23023057px;stroke-linecap:butt;stroke-linejoin:miter;stroke-opacity:1"
     d="M 163.25323,146.99812 C 163.25323,146.99812 170.2208,170.86755 174.86586,174.84579 179.51092,178.82403 188.80104,191.55439 188.80104,191.55439 L 192.67191,214.62816 V 234.51935 L 194.22027,265.54959 200.41367,285.44079 206.60709,281.46255 205.05874,237.70194 208.15543,212.24122 196.54279,173.2545 C 196.54279,173.2545 170.2208,143.81553 163.25323,146.99812 Z"
     id="path829"
     inkscape:connector-curvature="0" />
  <path
     style="fill:#000000;fill-opacity:1;stroke:none;stroke-width:1.23023057px;stroke-linecap:butt;stroke-linejoin:miter;stroke-opacity:1"
     d="M 256.92852,193.94133 265.44447,213.83252 V 234.51935 L 258.47688,252.0236 262.34776,256.00183 279.37963,233.7237 292.54063,214.62816 C 292.54063,214.62816 288.66975,197.12391 282.47634,196.32827 276.28293,195.53262 260.02523,187.57614 256.92852,193.94133 Z"
     id="path831"
     inkscape:connector-curvature="0" />
  <path
     style="fill:#000000;fill-opacity:1;stroke:none;stroke-width:1.23023057px;stroke-linecap:butt;stroke-linejoin:miter;stroke-opacity:1"
     d="M 81.964716,278.27996 126.09277,274.30173 178.73674,263.16265 284.02469,247.2497 358.34559,242.47582 376.92583,240.88452 386.21594,240.08888 C 386.21594,240.08888 414.08628,253.61489 415.63463,258.38877 417.18298,263.16265 421.05387,271.91478 421.05387,271.91478 L 405.57034,275.89301 C 405.57034,275.89301 415.63463,264.75395 366.86154,259.18442 318.08844,253.61489 266.99282,256.79748 245.31589,261.57136 223.63896,266.34524 188.02685,270.32349 177.96256,274.30173 167.89828,278.27996 135.38288,284.64513 128.41529,290.21468 121.4477,295.78421 98.996595,304.53633 98.996595,304.53633 98.996595,304.53633 73.448784,288.62338 81.964716,278.27996 Z"
     id="path833"
     inkscape:connector-curvature="0" />
  <path
     style="fill:#000000;fill-opacity:1;stroke:none;stroke-width:1.23023057px;stroke-linecap:butt;stroke-linejoin:miter;stroke-opacity:1"
     d="M 201.18785,297.3755 191.12356,322.83621 174.09169,339.54482 160.15651,349.88824 152.41476,350.68388 V 341.13611 L 148.54388,354.66213 C 148.54388,354.66213 146.99553,361.82295 148.54388,365.00553 150.09222,368.18812 163.25323,361.0273 163.25323,361.0273 L 184.15598,345.91 C 184.15598,345.91 189.57521,337.95352 199.6395,326.81446 209.70378,315.67539 204.28455,299.76244 201.18785,297.3755 Z"
     id="path835"
     inkscape:connector-curvature="0" />
  <path
     style="fill:#000000;fill-opacity:1;stroke:none;stroke-width:1.23023057px;stroke-linecap:butt;stroke-linejoin:miter;stroke-opacity:1"
     d="M 276.28293,290.21468 311.89504,312.4928 325.05603,339.54482 323.50768,353.86647 C 323.50768,353.86647 302.60493,347.50128 297.18569,333.17964 291.76646,318.85798 277.0571,299.76244 277.0571,299.76244 277.0571,299.76244 268.54117,288.62338 276.28293,290.21468 Z"
     id="path837"
     inkscape:connector-curvature="0" />
</svg>
