<?xml version="1.0" encoding="UTF-8" standalone="no"?>
<!-- Created with Inkscape (http://www.inkscape.org/) -->

<svg
   xmlns:dc="http://purl.org/dc/elements/1.1/"
   xmlns:cc="http://creativecommons.org/ns#"
   xmlns:rdf="http://www.w3.org/1999/02/22-rdf-syntax-ns#"
   xmlns:svg="http://www.w3.org/2000/svg"
   xmlns="http://www.w3.org/2000/svg"
   xmlns:sodipodi="http://sodipodi.sourceforge.net/DTD/sodipodi-0.dtd"
   xmlns:inkscape="http://www.inkscape.org/namespaces/inkscape"
   version="1.1"
   id="svg815"
   width="512"
   height="513"
   viewBox="0 0 512 513"
   sodipodi:docname="U+537F.svg"
   inkscape:version="0.92.2 (5c3e80d, 2017-08-06)">
  <metadata
     id="metadata821">
    <rdf:RDF>
      <cc:Work
         rdf:about="">
        <dc:format>image/svg+xml</dc:format>
        <dc:type
           rdf:resource="http://purl.org/dc/dcmitype/StillImage" />
        <dc:title></dc:title>
      </cc:Work>
    </rdf:RDF>
  </metadata>
  <defs
     id="defs819" />
  <sodipodi:namedview
     pagecolor="#ffffff"
     bordercolor="#666666"
     borderopacity="1"
     objecttolerance="10"
     gridtolerance="10"
     guidetolerance="10"
     inkscape:pageopacity="0"
     inkscape:pageshadow="2"
     inkscape:window-width="1920"
     inkscape:window-height="1001"
     id="namedview817"
     showgrid="false"
     inkscape:zoom="1.5730994"
     inkscape:cx="256"
     inkscape:cy="256.5"
     inkscape:window-x="-9"
     inkscape:window-y="-9"
     inkscape:window-maximized="1"
     inkscape:current-layer="svg815" />
  <path
     style="fill:#000000;stroke:none;stroke-width:1px;stroke-linecap:butt;stroke-linejoin:miter;stroke-opacity:1;fill-opacity:1"
     d="M 207.86989,182.44238 C 207.86989,182.44238 217.4052,191.34201 214.86245,195.79182 212.3197,200.24164 198.97026,222.49071 198.97026,222.49071 L 183.71375,233.2974 C 183.71375,233.2974 172.90706,240.92565 172.90706,233.93309 172.90706,226.94052 176.0855,220.58364 176.0855,220.58364 176.0855,220.58364 179.26394,214.22677 181.80669,216.76952 184.34944,219.31227 184.98513,221.21933 189.43494,216.13383 193.88476,211.04833 204.05576,198.33457 204.05576,198.33457 Z"
     id="path825"
     inkscape:connector-curvature="0" />
  <path
     style="fill:#000000;stroke:none;stroke-width:1px;stroke-linecap:butt;stroke-linejoin:miter;stroke-opacity:1;fill-opacity:1"
     d="M 217.4052,197.0632 240.28996,195.15613 249.82528,200.24164 247.28253,210.41264 239.01859,211.68401 217.4052,248.5539 198.33457,273.34572 173.54275,301.31599 149.38662,317.84387 C 149.38662,317.84387 146.20818,319.11524 143.66543,314.02974 141.12268,308.94424 143.02974,301.31599 143.02974,301.31599 L 151.29368,305.7658 C 151.29368,305.7658 159.55762,301.95167 174.17844,287.96654 188.79926,273.98141 208.50558,249.82528 208.50558,249.82528 L 230.75465,211.04833 232.02602,207.2342 C 232.02602,207.2342 218.04089,197.0632 217.4052,197.0632 Z"
     id="path827"
     inkscape:connector-curvature="0" />
  <path
     style="fill:#000000;stroke:none;stroke-width:1px;stroke-linecap:butt;stroke-linejoin:miter;stroke-opacity:1;fill-opacity:1"
     d="M 194.52045,232.66171 210.41264,235.84015 215.49814,240.28996 C 215.49814,240.28996 221.85503,264.4461 208.50558,249.82528 195.15613,235.20446 194.52045,232.66171 194.52045,232.66171 Z"
     id="path829"
     inkscape:connector-curvature="0" />
  <path
     style="fill:#000000;stroke:none;stroke-width:1px;stroke-linecap:butt;stroke-linejoin:miter;stroke-opacity:1;fill-opacity:1"
     d="M 260.63197,164.64312 C 260.63197,164.64312 261.26766,172.27138 270.16729,170.36431 279.06691,168.45725 303.85874,162.10037 303.85874,162.10037 L 321.0223,168.45725 C 321.0223,168.45725 321.65799,173.54275 319.11524,175.44981 316.57249,177.35688 313.39405,185.62082 308.30855,195.15613 303.22305,204.69145 303.22305,223.12639 303.22305,223.12639 L 304.49442,230.75465 301.31599,237.11152 C 301.31599,237.11152 294.32342,233.93309 294.32342,231.39033 294.32342,228.84758 303.85874,191.34201 303.85874,191.34201 L 307.03717,170.36431 C 307.03717,170.36431 300.04461,167.82156 285.42379,174.17844 270.80297,180.53532 263.17472,186.89219 260.63197,164.64312 Z"
     id="path831"
     inkscape:connector-curvature="0" />
  <path
     style="fill:#000000;stroke:none;stroke-width:1px;stroke-linecap:butt;stroke-linejoin:miter;stroke-opacity:1;fill-opacity:1"
     d="M 266.98885,197.69888 C 266.98885,197.69888 278.43123,197.0632 283.51673,195.79182 288.60223,194.52045 293.05204,197.0632 293.05204,197.0632 293.05204,197.0632 292.41636,202.78439 285.42379,204.69145 278.43123,206.59851 273.34572,211.04833 273.34572,211.04833 273.34572,211.04833 264.4461,201.51301 266.98885,197.69888 Z"
     id="path833"
     inkscape:connector-curvature="0" />
  <path
     style="fill:#000000;stroke:none;stroke-width:1px;stroke-linecap:butt;stroke-linejoin:miter;stroke-opacity:1;fill-opacity:1"
     d="M 246.01115,165.27881 C 246.01115,165.27881 261.26766,169.09294 259.99628,184.98513 258.72491,200.87732 256.81784,230.11896 256.81784,230.11896 L 255.54647,256.18216 253.63941,270.80297 253.00372,280.33829 C 253.00372,280.33829 248.5539,285.42379 247.91822,279.7026 247.28253,273.98141 250.46097,232.66171 250.46097,232.66171 L 247.28253,210.41264 Z"
     id="path835"
     inkscape:connector-curvature="0" />
  <path
     style="fill:#000000;stroke:none;stroke-width:1px;stroke-linecap:butt;stroke-linejoin:miter;stroke-opacity:1;fill-opacity:1"
     d="M 228.84758,275.88848 284.7881,255.54647 293.05204,254.91078 C 293.05204,254.91078 292.41636,261.26766 288.60223,261.26766 284.7881,261.26766 269.5316,269.5316 269.5316,269.5316 L 235.84015,289.87361 C 235.84015,289.87361 221.21933,282.24535 228.84758,275.88848 Z"
     id="path837"
     inkscape:connector-curvature="0" />
  <path
     style="fill:#000000;stroke:none;stroke-width:1px;stroke-linecap:butt;stroke-linejoin:miter;stroke-opacity:1;fill-opacity:1"
     d="M 284.15242,244.73978 C 284.15242,244.73978 306.40149,255.54647 308.30855,258.72491 310.21561,261.90335 310.21561,267.62454 310.21561,267.62454 310.21561,267.62454 308.30855,273.98141 303.22305,270.16729 298.13755,266.35316 281.60967,251.73234 284.15242,244.73978 Z"
     id="path839"
     inkscape:connector-curvature="0" />
  <path
     style="fill:#000000;stroke:none;stroke-width:1px;stroke-linecap:butt;stroke-linejoin:miter;stroke-opacity:1;fill-opacity:1"
     d="M 322.92937,207.2342 329.28625,211.68401 C 329.28625,211.68401 343.90706,211.68401 352.171,206.59851 360.43494,201.51301 371.87732,199.60595 371.87732,199.60595 L 386.49814,208.50558 391.58364,213.59108 C 391.58364,213.59108 385.86245,221.21933 385.22677,228.2119 384.59108,235.20446 380.14126,250.46097 380.14126,250.46097 L 371.87732,269.5316 364.24907,273.98141 C 364.24907,273.98141 348.35688,270.16729 340.72862,265.71747 333.10037,261.26766 329.28625,257.45353 329.28625,257.45353 L 355.34944,259.99628 C 355.34944,259.99628 368.0632,261.90335 368.69888,256.18216 369.33457,250.46097 376.32714,224.39777 375.69145,220.58364 375.05576,216.76952 372.51301,214.86245 366.15613,214.86245 359.79926,214.86245 340.72862,221.85502 340.72862,221.85502 L 328.01487,228.2119 C 328.01487,228.2119 319.11524,237.11152 322.92937,207.2342 Z"
     id="path841"
     inkscape:connector-curvature="0" />
  <path
     style="fill:#000000;stroke:none;stroke-width:1px;stroke-linecap:butt;stroke-linejoin:miter;stroke-opacity:1;fill-opacity:1"
     d="M 317.20818,235.20446 C 317.20818,235.20446 334.37175,237.11152 335.64312,246.01115 336.9145,254.91078 331.829,279.7026 331.829,279.7026 L 329.28625,331.19331 331.19331,366.79182 C 331.19331,366.79182 335.64312,387.13383 329.92193,389.04089 324.20074,390.94796 314.66543,371.87732 315.30112,369.33457 315.9368,366.79182 323.56506,373.78439 323.56506,373.78439 323.56506,373.78439 325.47212,357.25651 325.47212,345.81413 325.47212,334.37175 324.20074,269.5316 324.20074,269.5316 324.20074,269.5316 330.55762,248.5539 327.37918,246.64684 324.20074,244.73978 306.40149,242.19702 317.20818,235.20446 Z"
     id="path843"
     inkscape:connector-curvature="0" />
  <path
     style="fill:#000000;stroke:none;stroke-width:1px;stroke-linecap:butt;stroke-linejoin:miter;stroke-opacity:1;fill-opacity:1"
     d="M 258.72491,229.48327 C 258.72491,229.48327 282.88104,224.39777 287.96654,225.03346 293.05204,225.66914 296.86617,228.84758 296.86617,228.84758 296.86617,228.84758 287.96654,233.2974 283.51673,233.2974 279.06691,233.2974 270.80297,236.47584 270.80297,236.47584 L 265.08178,240.92565 C 265.08178,240.92565 253.00372,239.01859 258.72491,229.48327 Z"
     id="path845"
     inkscape:connector-curvature="0" />
</svg>
