<?xml version="1.0" encoding="UTF-8" standalone="no"?>
<!-- Created with Inkscape (http://www.inkscape.org/) -->

<svg
   xmlns:dc="http://purl.org/dc/elements/1.1/"
   xmlns:cc="http://creativecommons.org/ns#"
   xmlns:rdf="http://www.w3.org/1999/02/22-rdf-syntax-ns#"
   xmlns:svg="http://www.w3.org/2000/svg"
   xmlns="http://www.w3.org/2000/svg"
   xmlns:sodipodi="http://sodipodi.sourceforge.net/DTD/sodipodi-0.dtd"
   xmlns:inkscape="http://www.inkscape.org/namespaces/inkscape"
   version="1.1"
   id="svg815"
   width="512"
   height="513"
   viewBox="0 0 512 513"
   sodipodi:docname="U+537F.svg"
   inkscape:version="0.92.2 (5c3e80d, 2017-08-06)">
  <metadata
     id="metadata821">
    <rdf:RDF>
      <cc:Work
         rdf:about="">
        <dc:format>image/svg+xml</dc:format>
        <dc:type
           rdf:resource="http://purl.org/dc/dcmitype/StillImage" />
        <dc:title />
      </cc:Work>
    </rdf:RDF>
  </metadata>
  <defs
     id="defs819" />
  <sodipodi:namedview
     pagecolor="#ffffff"
     bordercolor="#666666"
     borderopacity="1"
     objecttolerance="10"
     gridtolerance="10"
     guidetolerance="10"
     inkscape:pageopacity="0"
     inkscape:pageshadow="2"
     inkscape:window-width="1920"
     inkscape:window-height="1001"
     id="namedview817"
     showgrid="false"
     inkscape:zoom="1.5730994"
     inkscape:cx="151.42937"
     inkscape:cy="256.5"
     inkscape:window-x="-9"
     inkscape:window-y="-9"
     inkscape:window-maximized="1"
     inkscape:current-layer="svg815" />
  <path
     style="fill:#000000;fill-opacity:1;stroke:none;stroke-width:1.25406778px;stroke-linecap:butt;stroke-linejoin:miter;stroke-opacity:1"
     d="M 190.05539,145.89694 C 190.05539,145.89694 201.90108,157.16342 198.74223,162.79666 195.58339,168.4299 178.9994,196.59611 178.9994,196.59611 L 160.04628,210.27683 C 160.04628,210.27683 146.62115,219.93381 146.62115,211.08158 146.62115,202.22934 150.56973,194.18185 150.56973,194.18185 150.56973,194.18185 154.51829,186.13437 157.67715,189.35337 160.836,192.57236 161.62571,194.9866 167.1537,188.54861 172.6817,182.11063 185.31711,166.01565 185.31711,166.01565 Z"
     id="path825"
     inkscape:connector-curvature="0" />
  <path
     style="fill:#000000;fill-opacity:1;stroke:none;stroke-width:1.25406778px;stroke-linecap:butt;stroke-linejoin:miter;stroke-opacity:1"
     d="M 201.90108,164.40616 230.33077,161.9919 242.17647,168.4299 239.01762,181.30588 228.75135,182.91537 201.90108,229.59079 178.20969,260.97599 147.41087,296.38494 117.40178,317.30841 C 117.40178,317.30841 113.4532,318.9179 110.29436,312.47991 107.1355,306.04192 109.50464,296.38494 109.50464,296.38494 L 119.77091,302.01818 C 119.77091,302.01818 130.03718,297.18968 148.20059,279.48521 166.364,261.78074 190.84511,231.20029 190.84511,231.20029 L 218.48508,182.11063 220.0645,177.28213 C 220.0645,177.28213 202.6908,164.40616 201.90108,164.40616 Z"
     id="path827"
     inkscape:connector-curvature="0" />
  <path
     style="fill:#000000;fill-opacity:1;stroke:none;stroke-width:1.25406778px;stroke-linecap:butt;stroke-linejoin:miter;stroke-opacity:1"
     d="M 173.47142,209.47208 193.21424,213.49582 199.53195,219.12906 C 199.53195,219.12906 207.42909,249.70952 190.84511,231.20029 174.26112,212.69107 173.47142,209.47208 173.47142,209.47208 Z"
     id="path829"
     inkscape:connector-curvature="0" />
  <path
     style="fill:#000000;fill-opacity:1;stroke:none;stroke-width:1.25406778px;stroke-linecap:butt;stroke-linejoin:miter;stroke-opacity:1"
     d="M 255.60159,123.36397 C 255.60159,123.36397 256.39131,133.02096 267.4473,130.60671 278.50327,128.19247 309.3021,120.14497 309.3021,120.14497 L 330.62435,128.19247 C 330.62435,128.19247 331.41407,134.63045 328.25522,137.04469 325.09636,139.45895 321.1478,149.92068 314.83009,161.9919 308.51238,174.06314 308.51238,197.40084 308.51238,197.40084 L 310.0918,207.05784 306.14325,215.10531 C 306.14325,215.10531 297.4564,211.08158 297.4564,207.86257 297.4564,204.64358 309.3021,157.16342 309.3021,157.16342 L 313.25066,130.60671 C 313.25066,130.60671 304.56382,127.38771 286.40041,135.4352 268.237,143.48269 258.76045,151.53017 255.60159,123.36397 Z"
     id="path831"
     inkscape:connector-curvature="0" />
  <path
     style="fill:#000000;fill-opacity:1;stroke:none;stroke-width:1.25406778px;stroke-linecap:butt;stroke-linejoin:miter;stroke-opacity:1"
     d="M 263.49873,165.2109 C 263.49873,165.2109 277.71357,164.40616 284.03127,162.79666 290.34898,161.18716 295.87696,164.40616 295.87696,164.40616 295.87696,164.40616 295.08726,171.6489 286.40041,174.06314 277.71357,176.47738 271.39585,182.11063 271.39585,182.11063 271.39585,182.11063 260.33988,170.03939 263.49873,165.2109 Z"
     id="path833"
     inkscape:connector-curvature="0" />
  <path
     style="fill:#000000;fill-opacity:1;stroke:none;stroke-width:1.25406778px;stroke-linecap:butt;stroke-linejoin:miter;stroke-opacity:1"
     d="M 237.43819,124.16872 C 237.43819,124.16872 256.39131,128.99722 254.81188,149.11593 253.23246,169.23464 250.86331,206.25309 250.86331,206.25309 L 249.28388,239.24779 246.91475,257.75699 246.12504,269.82823 C 246.12504,269.82823 240.59703,276.26622 239.80733,269.02348 239.01762,261.78074 242.96619,209.47208 242.96619,209.47208 L 239.01762,181.30588 Z"
     id="path835"
     inkscape:connector-curvature="0" />
  <path
     style="fill:#000000;fill-opacity:1;stroke:none;stroke-width:1.25406778px;stroke-linecap:butt;stroke-linejoin:miter;stroke-opacity:1"
     d="M 216.11592,264.195 285.61069,238.44303 295.87696,237.63828 C 295.87696,237.63828 295.08726,245.68577 290.34898,245.68577 285.61069,245.68577 266.65758,256.1475 266.65758,256.1475 L 224.80277,281.89947 C 224.80277,281.89947 206.63937,272.24247 216.11592,264.195 Z"
     id="path837"
     inkscape:connector-curvature="0" />
  <path
     style="fill:#000000;fill-opacity:1;stroke:none;stroke-width:1.25406778px;stroke-linecap:butt;stroke-linejoin:miter;stroke-opacity:1"
     d="M 284.82099,224.76231 C 284.82099,224.76231 312.46096,238.44303 314.83009,242.46678 317.19922,246.49053 317.19922,253.73326 317.19922,253.73326 317.19922,253.73326 314.83009,261.78074 308.51238,256.95226 302.19468,252.12376 281.66214,233.61454 284.82099,224.76231 Z"
     id="path839"
     inkscape:connector-curvature="0" />
  <path
     style="fill:#000000;fill-opacity:1;stroke:none;stroke-width:1.25406778px;stroke-linecap:butt;stroke-linejoin:miter;stroke-opacity:1"
     d="M 332.9935,177.28213 340.89063,182.91537 C 340.89063,182.91537 359.05402,182.91537 369.3203,176.47738 379.58657,170.03939 393.80141,167.62515 393.80141,167.62515 L 411.96482,178.89163 418.28253,185.32962 C 418.28253,185.32962 411.1751,194.9866 410.3854,203.83884 409.59569,212.69107 404.06768,232.00505 404.06768,232.00505 L 393.80141,256.1475 384.32486,261.78074 C 384.32486,261.78074 364.58203,256.95226 355.10546,251.31901 345.62891,245.68577 340.89063,240.85728 340.89063,240.85728 L 373.26887,244.07627 C 373.26887,244.07627 389.06314,246.49053 389.85284,239.24779 390.64256,232.00505 399.32942,199.01035 398.5397,194.18185 397.74998,189.35337 394.59113,186.93911 386.69399,186.93911 378.79687,186.93911 355.10546,195.79135 355.10546,195.79135 L 339.3112,203.83884 C 339.3112,203.83884 328.25522,215.10531 332.9935,177.28213 Z"
     id="path841"
     inkscape:connector-curvature="0" />
  <path
     style="fill:#000000;fill-opacity:1;stroke:none;stroke-width:1.25406778px;stroke-linecap:butt;stroke-linejoin:miter;stroke-opacity:1"
     d="M 325.88607,212.69107 C 325.88607,212.69107 347.20834,215.10531 348.78776,226.3718 350.36718,237.63828 344.04949,269.02348 344.04949,269.02348 L 340.89063,334.20812 343.25977,379.27405 C 343.25977,379.27405 348.78776,405.026 341.68033,407.44025 334.57291,409.85451 322.72723,385.71203 323.51694,382.49304 324.30665,379.27405 333.78321,388.12629 333.78321,388.12629 333.78321,388.12629 336.15235,367.20283 336.15235,352.71735 336.15235,338.23187 334.57291,256.1475 334.57291,256.1475 334.57291,256.1475 342.47005,229.59079 338.52149,227.17655 334.57291,224.76231 312.46096,221.5433 325.88607,212.69107 Z"
     id="path843"
     inkscape:connector-curvature="0" />
  <path
     style="fill:#000000;fill-opacity:1;stroke:none;stroke-width:1.25406778px;stroke-linecap:butt;stroke-linejoin:miter;stroke-opacity:1"
     d="M 253.23246,205.44834 C 253.23246,205.44834 283.24156,199.01035 289.55927,199.8151 295.87696,200.61984 300.61525,204.64358 300.61525,204.64358 300.61525,204.64358 289.55927,210.27683 284.03127,210.27683 278.50327,210.27683 268.237,214.30058 268.237,214.30058 L 261.12958,219.93381 C 261.12958,219.93381 246.12504,217.51957 253.23246,205.44834 Z"
     id="path845"
     inkscape:connector-curvature="0" />
</svg>
