<?xml version="1.0" encoding="UTF-8" standalone="no"?>
<!-- Created with Inkscape (http://www.inkscape.org/) -->

<svg
   xmlns:dc="http://purl.org/dc/elements/1.1/"
   xmlns:cc="http://creativecommons.org/ns#"
   xmlns:rdf="http://www.w3.org/1999/02/22-rdf-syntax-ns#"
   xmlns:svg="http://www.w3.org/2000/svg"
   xmlns="http://www.w3.org/2000/svg"
   xmlns:sodipodi="http://sodipodi.sourceforge.net/DTD/sodipodi-0.dtd"
   xmlns:inkscape="http://www.inkscape.org/namespaces/inkscape"
   version="1.1"
   id="svg815"
   width="512"
   height="512"
   viewBox="0 0 512 512"
   sodipodi:docname="U+5343.svg"
   inkscape:version="0.92.2 (5c3e80d, 2017-08-06)">
  <metadata
     id="metadata821">
    <rdf:RDF>
      <cc:Work
         rdf:about="">
        <dc:format>image/svg+xml</dc:format>
        <dc:type
           rdf:resource="http://purl.org/dc/dcmitype/StillImage" />
        <dc:title />
      </cc:Work>
    </rdf:RDF>
  </metadata>
  <defs
     id="defs819" />
  <sodipodi:namedview
     pagecolor="#ffffff"
     bordercolor="#666666"
     borderopacity="1"
     objecttolerance="10"
     gridtolerance="10"
     guidetolerance="10"
     inkscape:pageopacity="0"
     inkscape:pageshadow="2"
     inkscape:window-width="1920"
     inkscape:window-height="1001"
     id="namedview817"
     showgrid="false"
     inkscape:zoom="1.3715585"
     inkscape:cx="136.06345"
     inkscape:cy="256"
     inkscape:window-x="-9"
     inkscape:window-y="-9"
     inkscape:window-maximized="1"
     inkscape:current-layer="svg815" />
  <path
     style="fill:#000000;fill-opacity:1;stroke:#000000;stroke-width:1.07206285px;stroke-linecap:butt;stroke-linejoin:miter;stroke-opacity:1"
     d="M 251.23183,108.11565 282.17101,108.90554 300.73452,123.91332 291.45276,131.81215 273.66273,142.08064 250.45835,157.08842 C 250.45835,157.08842 224.16004,153.92889 219.51917,152.34913 214.87829,150.76935 221.8396,146.81993 232.66832,141.29075 243.49703,135.76157 260.51358,125.49309 260.51358,125.49309 260.51358,125.49309 251.23183,107.32578 251.23183,108.11565 Z"
     id="path825"
     inkscape:connector-curvature="0" />
  <path
     style="fill:#000000;fill-opacity:1;stroke:#000000;stroke-width:1.07206285px;stroke-linecap:butt;stroke-linejoin:miter;stroke-opacity:1"
     d="M 79.519375,224.22851 C 79.519375,224.22851 108.13811,222.64874 118.96683,220.2791 129.79554,217.90945 173.11039,213.96003 181.61867,211.59038 190.12694,209.22072 249.68486,196.58259 249.68486,196.58259 L 327.8063,188.68376 381.17639,185.52423 C 381.17639,185.52423 406.70122,183.94446 410.56861,187.10399 414.43601,190.26352 433.773,210.01061 433.773,210.01061 433.773,210.01061 432.22604,219.48921 426.03821,218.69933 419.85037,217.90945 378.85595,202.11178 369.5742,201.3219 360.29244,200.53201 348.69025,190.26352 287.58537,198.95225 226.48049,207.64096 200.18218,216.32968 200.18218,216.32968 200.18218,216.32968 180.07171,217.90945 161.5082,226.59816 142.9447,235.28689 122.06074,243.18571 123.60771,247.92502 125.15466,252.66431 112.00551,255.82385 112.00551,255.82385 112.00551,255.82385 81.839813,232.12734 79.519375,224.22851 Z"
     id="path827"
     inkscape:connector-curvature="0" />
  <path
     style="fill:#000000;fill-opacity:1;stroke:#000000;stroke-width:1.07206285px;stroke-linecap:butt;stroke-linejoin:miter;stroke-opacity:1"
     d="M 250.45835,157.08842 275.98317,166.56702 279.07709,179.99504 274.43622,196.58259 269.79533,247.13513 271.3423,292.94837 272.88925,334.81219 V 375.88613 L 275.98317,395.63322 270.56882,409.85111 246.59095,379.04566 264.38098,383.78496 263.6075,238.44642 261.28706,181.57481 C 261.28706,181.57481 250.45835,157.08842 250.45835,157.08842 Z"
     id="path829"
     inkscape:connector-curvature="0" />
</svg>
