<?xml version="1.0" encoding="UTF-8" standalone="no"?>
<!-- Created with Inkscape (http://www.inkscape.org/) -->

<svg
   xmlns:dc="http://purl.org/dc/elements/1.1/"
   xmlns:cc="http://creativecommons.org/ns#"
   xmlns:rdf="http://www.w3.org/1999/02/22-rdf-syntax-ns#"
   xmlns:svg="http://www.w3.org/2000/svg"
   xmlns="http://www.w3.org/2000/svg"
   xmlns:sodipodi="http://sodipodi.sourceforge.net/DTD/sodipodi-0.dtd"
   xmlns:inkscape="http://www.inkscape.org/namespaces/inkscape"
   version="1.1"
   id="svg815"
   width="512"
   height="511"
   viewBox="0 0 512 511"
   sodipodi:docname="U+5C01.svg"
   inkscape:version="0.92.2 (5c3e80d, 2017-08-06)">
  <metadata
     id="metadata821">
    <rdf:RDF>
      <cc:Work
         rdf:about="">
        <dc:format>image/svg+xml</dc:format>
        <dc:type
           rdf:resource="http://purl.org/dc/dcmitype/StillImage" />
        <dc:title />
      </cc:Work>
    </rdf:RDF>
  </metadata>
  <defs
     id="defs819" />
  <sodipodi:namedview
     pagecolor="#ffffff"
     bordercolor="#666666"
     borderopacity="1"
     objecttolerance="10"
     gridtolerance="10"
     guidetolerance="10"
     inkscape:pageopacity="0"
     inkscape:pageshadow="2"
     inkscape:window-width="1920"
     inkscape:window-height="1001"
     id="namedview817"
     showgrid="false"
     inkscape:zoom="1.5792564"
     inkscape:cx="256"
     inkscape:cy="255.5"
     inkscape:window-x="-9"
     inkscape:window-y="-9"
     inkscape:window-maximized="1"
     inkscape:current-layer="svg815" />
  <path
     style="fill:#000000;fill-opacity:1;stroke:none;stroke-width:1.06323779px;stroke-linecap:butt;stroke-linejoin:miter;stroke-opacity:1"
     d="M 153.48944,165.6085 H 169.64018 C 169.64018,165.6085 228.85959,144.05469 237.60792,142.70757 246.35624,141.36047 263.85288,148.09603 263.85288,148.09603 263.85288,148.09603 256.45046,153.48448 237.60792,156.85227 218.76538,160.22005 190.50157,170.99695 190.50157,170.99695 L 177.04261,185.81521 C 177.04261,185.81521 160.89186,189.85654 162.9107,183.79453 164.92955,177.73252 153.48944,165.6085 153.48944,165.6085 Z"
     id="path825"
     inkscape:connector-curvature="0" />
  <path
     style="fill:#000000;fill-opacity:1;stroke:none;stroke-width:1.06323779px;stroke-linecap:butt;stroke-linejoin:miter;stroke-opacity:1"
     d="M 119.16909,225.55503 C 152.14354,220.16659 207.32526,205.34835 207.32526,205.34835 L 251.73982,193.22432 271.25532,200.63344 C 271.25532,200.63344 269.90942,212.75746 255.10456,209.38969 240.2997,206.0219 212.70885,208.71613 197.23105,213.43101 181.75324,218.14592 154.83533,231.61705 154.83533,231.61705 L 134.64689,245.08818 C 134.64689,245.08818 109.74783,233.63772 119.16909,225.55503 Z"
     id="path827"
     inkscape:connector-curvature="0" />
  <path
     style="fill:#000000;fill-opacity:1;stroke:none;stroke-width:1.06323779px;stroke-linecap:butt;stroke-linejoin:miter;stroke-opacity:1"
     d="M 151.47059,273.37755 212.70885,259.23287 238.28087,250.47663 249.04803,258.55931 C 249.04803,258.55931 247.70214,269.33622 236.26203,267.31556 224.82191,265.29488 197.23105,269.33622 188.48273,274.72467 179.73441,280.11313 168.29429,297.62559 168.29429,297.62559 168.29429,297.62559 148.10585,282.80735 151.47059,273.37755 Z"
     id="path829"
     inkscape:connector-curvature="0" />
  <path
     style="fill:#000000;fill-opacity:1;stroke:none;stroke-width:1.06323779px;stroke-linecap:butt;stroke-linejoin:miter;stroke-opacity:1"
     d="M 198.57694,82.761046 C 198.57694,82.761046 240.2997,108.35619 230.20549,121.82732 220.11127,135.29846 212.70885,205.34835 212.70885,205.34835 212.70885,205.34835 199.92284,222.18726 199.24989,213.43101 198.57694,204.67478 206.65231,164.2614 206.65231,164.2614 L 210.01706,124.52156 C 210.01706,124.52156 187.13683,76.02548 198.57694,82.761046 Z"
     id="path831"
     inkscape:connector-curvature="0" />
  <path
     style="fill:#000000;fill-opacity:1;stroke:none;stroke-width:1.06323779px;stroke-linecap:butt;stroke-linejoin:miter;stroke-opacity:1"
     d="M 190.50156,234.98483 220.78421,237.00551 226.1678,255.19153 216.07358,300.99338 207.99821,309.74962 206.65231,319.85297 207.32526,321.87363 C 207.32526,321.87363 195.2122,327.93564 199.24988,302.34049 203.28757,276.74534 199.92283,257.21221 199.92283,257.21221 Z"
     id="path824"
     inkscape:connector-curvature="0" />
  <path
     style="fill:#000000;fill-opacity:1;stroke:none;stroke-width:1.06323779px;stroke-linecap:butt;stroke-linejoin:miter;stroke-opacity:1"
     d="M 121.86088,325.91497 138.01163,331.30342 172.33197,320.52652 218.09243,310.42317 H 228.85959 L 240.2997,303.68761 256.45045,315.13807 C 256.45045,315.13807 267.89056,315.13807 259.14224,318.50585 250.39392,321.87363 228.18664,317.83229 228.18664,317.83229 228.18664,317.83229 199.24988,318.50585 184.44503,325.24142 169.64018,331.97698 157.52711,335.34476 151.47059,336.69188 145.41405,338.03899 134.64689,352.85724 134.64689,352.85724 134.64689,352.85724 117.15025,336.01832 121.86088,325.91497 Z"
     id="path826"
     inkscape:connector-curvature="0" />
  <path
     style="fill:#000000;fill-opacity:1;stroke:none;stroke-width:1.06323779px;stroke-linecap:butt;stroke-linejoin:miter;stroke-opacity:1"
     d="M 263.17993,229.59639 C 263.17993,229.59639 298.17322,242.39396 299.51911,252.49731 300.86501,262.60066 296.15438,282.80736 296.15438,282.80736 296.15438,282.80736 288.079,292.9107 286.06016,287.52224 284.04131,282.1338 274.62005,249.12953 274.62005,249.12953 L 263.17993,243.74107 C 263.17993,243.74107 254.4316,226.90217 263.17993,229.59639 Z"
     id="path828"
     inkscape:connector-curvature="0" />
  <path
     style="fill:#000000;fill-opacity:1;stroke:none;stroke-width:1.06323779px;stroke-linecap:butt;stroke-linejoin:miter;stroke-opacity:1"
     d="M 284.04131,210.06324 C 284.04131,210.06324 298.84618,207.36903 303.5568,207.36903 308.26744,207.36903 339.89599,194.57145 339.89599,194.57145 339.89599,194.57145 378.92696,182.44743 388.34824,181.10031 397.7695,179.7532 409.88257,182.44743 409.88257,182.44743 L 417.285,189.18299 C 417.285,189.18299 411.22847,196.59211 407.19078,195.91857 403.15308,195.24501 407.86372,191.20366 372.87043,199.95989 337.87714,208.71613 312.30512,220.16659 312.30512,220.16659 L 304.9027,225.55504 V 225.55504 C 304.9027,225.55504 278.65773,218.14593 284.04131,210.06324 Z"
     id="path830"
     inkscape:connector-curvature="0" />
  <path
     style="fill:#000000;fill-opacity:1;stroke:none;stroke-width:1.06323779px;stroke-linecap:butt;stroke-linejoin:miter;stroke-opacity:1"
     d="M 305.57565,75.351929 C 305.57565,75.351929 345.27956,103.64131 344.60662,119.80666 343.93368,135.97203 338.5501,170.32341 338.5501,170.32341 L 335.8583,241.7204 335.18535,307.05539 339.89599,337.36543 347.97136,377.10527 342.58779,402.02687 C 342.58779,402.02687 327.78292,404.72109 325.76408,401.3533 323.74524,397.98553 308.26744,342.75389 308.26744,342.75389 L 327.78292,359.5928 C 327.78292,359.5928 325.09113,235.65839 325.76408,227.57572 326.43703,219.49303 324.41818,180.42676 324.41818,180.42676 L 327.10998,120.48022 C 327.10998,120.48022 296.15438,79.393273 305.57565,75.351929 Z"
     id="path832"
     inkscape:connector-curvature="0" />
</svg>
