<?xml version="1.0" encoding="UTF-8" standalone="no"?>
<!-- Created with Inkscape (http://www.inkscape.org/) -->

<svg
   xmlns:dc="http://purl.org/dc/elements/1.1/"
   xmlns:cc="http://creativecommons.org/ns#"
   xmlns:rdf="http://www.w3.org/1999/02/22-rdf-syntax-ns#"
   xmlns:svg="http://www.w3.org/2000/svg"
   xmlns="http://www.w3.org/2000/svg"
   xmlns:sodipodi="http://sodipodi.sourceforge.net/DTD/sodipodi-0.dtd"
   xmlns:inkscape="http://www.inkscape.org/namespaces/inkscape"
   version="1.1"
   id="svg815"
   width="512"
   height="511"
   viewBox="0 0 512 511"
   sodipodi:docname="U+5C01.svg"
   inkscape:version="0.92.2 (5c3e80d, 2017-08-06)">
  <metadata
     id="metadata821">
    <rdf:RDF>
      <cc:Work
         rdf:about="">
        <dc:format>image/svg+xml</dc:format>
        <dc:type
           rdf:resource="http://purl.org/dc/dcmitype/StillImage" />
        <dc:title></dc:title>
      </cc:Work>
    </rdf:RDF>
  </metadata>
  <defs
     id="defs819" />
  <sodipodi:namedview
     pagecolor="#ffffff"
     bordercolor="#666666"
     borderopacity="1"
     objecttolerance="10"
     gridtolerance="10"
     guidetolerance="10"
     inkscape:pageopacity="0"
     inkscape:pageshadow="2"
     inkscape:window-width="1920"
     inkscape:window-height="1001"
     id="namedview817"
     showgrid="false"
     inkscape:zoom="1.5792564"
     inkscape:cx="256"
     inkscape:cy="255.5"
     inkscape:window-x="-9"
     inkscape:window-y="-9"
     inkscape:window-maximized="1"
     inkscape:current-layer="svg815" />
  <path
     style="fill:#000000;stroke:none;stroke-width:1px;stroke-linecap:butt;stroke-linejoin:miter;stroke-opacity:1;fill-opacity:1"
     d="M 164.63445,191.22924 H 179.83147 C 179.83147,191.22924 235.5539,170.96654 243.78563,169.70012 252.01735,168.43371 268.48079,174.7658 268.48079,174.7658 268.48079,174.7658 261.51549,179.83147 243.78563,182.99752 226.05576,186.16357 199.46097,196.29492 199.46097,196.29492 L 186.79678,210.22553 C 186.79678,210.22553 171.59975,214.02478 173.49938,208.3259 175.39901,202.62701 164.63445,191.22924 164.63445,191.22924 Z"
     id="path825"
     inkscape:connector-curvature="0" />
  <path
     style="fill:#000000;stroke:none;stroke-width:1px;stroke-linecap:butt;stroke-linejoin:miter;stroke-opacity:1;fill-opacity:1"
     d="M 132.34077,247.58488 C 163.36803,242.51921 215.2912,228.5886 215.2912,228.5886 L 257.08302,217.19083 275.4461,224.15613 C 275.4461,224.15613 274.17968,235.5539 260.24907,232.38786 246.31846,229.22181 220.35688,231.75465 205.79306,236.18711 191.22924,240.61958 165.90087,253.28377 165.90087,253.28377 L 146.90458,265.94796 C 146.90458,265.94796 123.47584,255.1834 132.34077,247.58488 Z"
     id="path827"
     inkscape:connector-curvature="0" />
  <path
     style="fill:#000000;stroke:none;stroke-width:1px;stroke-linecap:butt;stroke-linejoin:miter;stroke-opacity:1;fill-opacity:1"
     d="M 162.73482,292.54275 220.35688,279.24535 244.41884,271.01363 254.55019,278.61214 C 254.55019,278.61214 253.28377,288.74349 242.51921,286.84387 231.75465,284.94424 205.79306,288.74349 197.56134,293.80917 189.32962,298.87485 178.56506,315.33829 178.56506,315.33829 178.56506,315.33829 159.56877,301.40768 162.73482,292.54275 Z"
     id="path829"
     inkscape:connector-curvature="0" />
  <path
     style="fill:#000000;stroke:none;stroke-width:1px;stroke-linecap:butt;stroke-linejoin:miter;stroke-opacity:1;fill-opacity:1"
     d="M 207.05948,113.34449 C 207.05948,113.34449 246.31846,137.40644 236.82032,150.07063 227.32218,162.73482 220.35688,228.5886 220.35688,228.5886 220.35688,228.5886 208.3259,244.41884 207.69269,236.18711 207.05948,227.95539 214.65799,189.96283 214.65799,189.96283 L 217.82404,152.60347 C 217.82404,152.60347 196.29492,107.01239 207.05948,113.34449 Z"
     id="path831"
     inkscape:connector-curvature="0" />
  <path
     style="fill:#000000;stroke:none;stroke-width:1px;stroke-linecap:butt;stroke-linejoin:miter;stroke-opacity:1;fill-opacity:1"
     d="M 199.46096,256.44982 227.95538,258.34945 233.02106,275.4461 223.52292,318.50434 215.92441,326.73606 214.65799,336.23421 215.2912,338.13383 C 215.2912,338.13383 203.89343,343.83272 207.69268,319.77076 211.49194,295.7088 208.32589,277.34573 208.32589,277.34573 Z"
     id="path824"
     inkscape:connector-curvature="0" />
  <path
     style="fill:#000000;stroke:none;stroke-width:1px;stroke-linecap:butt;stroke-linejoin:miter;stroke-opacity:1;fill-opacity:1"
     d="M 134.8736,341.93309 150.07063,346.99876 182.36431,336.86741 225.42255,327.36927 H 235.5539 L 246.31846,321.03718 261.51548,331.80174 C 261.51548,331.80174 272.28004,331.80174 264.04832,334.96779 255.8166,338.13383 234.92069,334.33458 234.92069,334.33458 234.92069,334.33458 207.69268,334.96779 193.76208,341.29988 179.83147,347.63197 168.4337,350.79802 162.73482,352.06444 157.03593,353.33086 146.90458,367.26147 146.90458,367.26147 146.90458,367.26147 130.44114,351.43123 134.8736,341.93309 Z"
     id="path826"
     inkscape:connector-curvature="0" />
  <path
     style="fill:#000000;stroke:none;stroke-width:1px;stroke-linecap:butt;stroke-linejoin:miter;stroke-opacity:1;fill-opacity:1"
     d="M 267.84758,251.38415 C 267.84758,251.38415 300.77447,263.41512 302.04088,272.91327 303.3073,282.41141 298.87484,301.40769 298.87484,301.40769 298.87484,301.40769 291.27632,310.90583 289.3767,305.84015 287.47707,300.77448 278.61214,269.74722 278.61214,269.74722 L 267.84758,264.68154 C 267.84758,264.68154 259.61585,248.85131 267.84758,251.38415 Z"
     id="path828"
     inkscape:connector-curvature="0" />
  <path
     style="fill:#000000;stroke:none;stroke-width:1px;stroke-linecap:butt;stroke-linejoin:miter;stroke-opacity:1;fill-opacity:1"
     d="M 287.47707,233.02107 C 287.47707,233.02107 301.40768,230.48824 305.84014,230.48824 310.27261,230.48824 340.03345,218.45726 340.03345,218.45726 340.03345,218.45726 376.75959,207.05949 385.62453,205.79307 394.48946,204.52665 405.88723,207.05949 405.88723,207.05949 L 412.85253,213.39158 C 412.85253,213.39158 407.15365,220.35688 403.35439,219.72368 399.55513,219.09047 403.9876,215.29121 371.06071,223.52293 338.13382,231.75465 314.07186,242.51921 314.07186,242.51921 L 307.10656,247.58489 V 247.58489 C 307.10656,247.58489 282.41139,240.61959 287.47707,233.02107 Z"
     id="path830"
     inkscape:connector-curvature="0" />
  <path
     style="fill:#000000;stroke:none;stroke-width:1px;stroke-linecap:butt;stroke-linejoin:miter;stroke-opacity:1;fill-opacity:1"
     d="M 307.73977,106.37919 C 307.73977,106.37919 345.09912,132.97399 344.46591,148.17101 343.83271,163.36804 338.76703,195.66172 338.76703,195.66172 L 336.23419,262.78191 335.60098,324.20323 340.03345,352.69765 347.63196,390.057 342.56629,413.48575 C 342.56629,413.48575 328.63568,416.01859 326.73605,412.85254 324.83642,409.6865 310.27261,357.76332 310.27261,357.76332 L 328.63568,373.59356 C 328.63568,373.59356 326.10284,257.08303 326.73605,249.48452 327.36926,241.886 325.46963,205.15986 325.46963,205.15986 L 328.00247,148.80422 C 328.00247,148.80422 298.87484,110.17845 307.73977,106.37919 Z"
     id="path832"
     inkscape:connector-curvature="0" />
</svg>
