<?xml version="1.0" encoding="UTF-8" standalone="no"?>
<!-- Created with Inkscape (http://www.inkscape.org/) -->

<svg
   xmlns:dc="http://purl.org/dc/elements/1.1/"
   xmlns:cc="http://creativecommons.org/ns#"
   xmlns:rdf="http://www.w3.org/1999/02/22-rdf-syntax-ns#"
   xmlns:svg="http://www.w3.org/2000/svg"
   xmlns="http://www.w3.org/2000/svg"
   xmlns:sodipodi="http://sodipodi.sourceforge.net/DTD/sodipodi-0.dtd"
   xmlns:inkscape="http://www.inkscape.org/namespaces/inkscape"
   version="1.1"
   id="svg815"
   width="512"
   height="512"
   viewBox="0 0 512 512"
   sodipodi:docname="U+6236.svg"
   inkscape:version="0.92.2 (5c3e80d, 2017-08-06)">
  <metadata
     id="metadata821">
    <rdf:RDF>
      <cc:Work
         rdf:about="">
        <dc:format>image/svg+xml</dc:format>
        <dc:type
           rdf:resource="http://purl.org/dc/dcmitype/StillImage" />
        <dc:title />
      </cc:Work>
    </rdf:RDF>
  </metadata>
  <defs
     id="defs819" />
  <sodipodi:namedview
     pagecolor="#ffffff"
     bordercolor="#666666"
     borderopacity="1"
     objecttolerance="10"
     gridtolerance="10"
     guidetolerance="10"
     inkscape:pageopacity="0"
     inkscape:pageshadow="2"
     inkscape:window-width="1920"
     inkscape:window-height="1001"
     id="namedview817"
     showgrid="false"
     inkscape:zoom="1.5761719"
     inkscape:cx="256"
     inkscape:cy="256"
     inkscape:window-x="-9"
     inkscape:window-y="-9"
     inkscape:window-maximized="1"
     inkscape:current-layer="svg815" />
  <path
     style="fill:#000000;fill-opacity:1;stroke:none;stroke-width:1.11552584px;stroke-linecap:butt;stroke-linejoin:miter;stroke-opacity:1"
     d="M 223.13884,122.59292 C 223.13884,122.59292 237.34763,125.41315 248.00421,124.00303 258.66079,122.59292 309.81242,110.60692 317.62726,110.60692 325.44208,110.60692 343.20306,107.08163 343.20306,107.08163 L 360.96404,102.14622 387.96073,109.90186 C 387.96073,109.90186 392.9338,112.7221 390.09205,116.24739 387.2503,119.77268 380.1459,121.88786 380.1459,121.88786 380.1459,121.88786 359.54316,116.95245 346.04482,114.83727 332.54648,112.7221 300.57671,116.95245 300.57671,116.95245 L 269.31738,124.70809 C 269.31738,124.70809 246.58333,130.34856 242.3207,133.87385 238.05807,137.39915 235.92674,149.38515 223.13884,122.59292 Z"
     id="path825"
     inkscape:connector-curvature="0" />
  <path
     style="fill:#000000;fill-opacity:1;stroke:none;stroke-width:1.11552584px;stroke-linecap:butt;stroke-linejoin:miter;stroke-opacity:1"
     d="M 216.74489,147.97502 245.16245,173.35714 248.71464,205.08478 240.89982,226.23654 C 240.89982,226.23654 237.34763,270.65524 230.95367,286.16652 224.55971,301.67781 199.69434,358.08251 199.69434,358.08251 199.69434,358.08251 181.93337,390.5152 176.24985,392.63038 170.56634,394.74556 149.9636,410.25684 149.9636,410.25684 149.9636,410.25684 132.91306,415.89732 127.22955,409.5518 121.54603,403.20626 122.96691,394.0405 135.75481,389.81015 148.54273,385.57979 193.3004,347.50663 193.3004,347.50663 L 223.13884,272.06535 240.89982,192.39372 C 240.89982,192.39372 216.74489,158.55091 216.74489,147.97502 Z"
     id="path827"
     inkscape:connector-curvature="0" />
  <path
     style="fill:#000000;fill-opacity:1;stroke:none;stroke-width:1.11552584px;stroke-linecap:butt;stroke-linejoin:miter;stroke-opacity:1"
     d="M 249.42509,180.40773 C 249.42509,180.40773 250.84597,185.34314 266.47563,181.81785 282.10529,178.29255 324.0212,167.01162 324.0212,167.01162 L 333.25691,164.89644 C 333.25691,164.89644 326.15252,155.02562 332.54648,155.02562 338.94042,155.02562 357.41185,164.19138 357.41185,167.01162 357.41185,169.83185 352.43878,175.47232 348.88657,175.47232 345.33438,175.47232 326.15252,216.36572 326.15252,216.36572 L 321.88989,221.30113 C 321.88989,221.30113 314.07505,214.25054 319.04813,195.91902 324.0212,177.58749 320.46901,174.76726 320.46901,174.76726 L 292.76188,190.27855 270.02782,202.9696 C 270.02782,202.9696 253.68773,187.45832 249.42509,180.40773 Z"
     id="path829"
     inkscape:connector-curvature="0" />
  <path
     style="fill:#000000;fill-opacity:1;stroke:none;stroke-width:1.11552584px;stroke-linecap:butt;stroke-linejoin:miter;stroke-opacity:1"
     d="M 235.2163,235.40231 C 235.2163,235.40231 240.89982,231.877 275.71134,224.82642 310.52286,217.77583 335.38823,212.13536 341.78219,215.66066 348.17613,219.18595 353.14921,225.53148 353.14921,225.53148 353.14921,225.53148 336.09867,229.76183 332.54648,229.05677 328.99428,228.35171 321.88989,224.12136 291.341,231.17196 260.79212,238.22254 247.29377,244.56807 247.29377,244.56807 L 243.03114,248.79842 C 243.03114,248.79842 229.53279,244.56806 235.2163,235.40231 Z"
     id="path831"
     inkscape:connector-curvature="0" />
</svg>
