<?xml version="1.0" encoding="UTF-8" standalone="no"?>
<!-- Created with Inkscape (http://www.inkscape.org/) -->

<svg
   xmlns:dc="http://purl.org/dc/elements/1.1/"
   xmlns:cc="http://creativecommons.org/ns#"
   xmlns:rdf="http://www.w3.org/1999/02/22-rdf-syntax-ns#"
   xmlns:svg="http://www.w3.org/2000/svg"
   xmlns="http://www.w3.org/2000/svg"
   xmlns:sodipodi="http://sodipodi.sourceforge.net/DTD/sodipodi-0.dtd"
   xmlns:inkscape="http://www.inkscape.org/namespaces/inkscape"
   version="1.1"
   id="svg815"
   width="512"
   height="511"
   viewBox="0 0 512 511"
   sodipodi:docname="U+69D0.svg"
   inkscape:version="0.92.2 (5c3e80d, 2017-08-06)">
  <metadata
     id="metadata821">
    <rdf:RDF>
      <cc:Work
         rdf:about="">
        <dc:format>image/svg+xml</dc:format>
        <dc:type
           rdf:resource="http://purl.org/dc/dcmitype/StillImage" />
        <dc:title />
      </cc:Work>
    </rdf:RDF>
  </metadata>
  <defs
     id="defs819" />
  <sodipodi:namedview
     pagecolor="#ffffff"
     bordercolor="#666666"
     borderopacity="1"
     objecttolerance="10"
     gridtolerance="10"
     guidetolerance="10"
     inkscape:pageopacity="0"
     inkscape:pageshadow="2"
     inkscape:window-width="1920"
     inkscape:window-height="1001"
     id="namedview817"
     showgrid="false"
     inkscape:zoom="1.5792564"
     inkscape:cx="256"
     inkscape:cy="280.82837"
     inkscape:window-x="-9"
     inkscape:window-y="-9"
     inkscape:window-maximized="1"
     inkscape:current-layer="svg815" />
  <path
     style="fill:#000000;fill-opacity:1;stroke:none;stroke-width:1.12533116px;stroke-linecap:butt;stroke-linejoin:miter;stroke-opacity:1"
     d="M 114.22465,211.67055 136.96881,210.24177 193.82922,195.23958 C 193.82922,195.23958 208.75508,183.80933 215.15187,188.09567 221.54867,192.38201 221.54867,193.81079 221.54867,193.81079 221.54867,193.81079 199.51526,200.24031 195.25074,200.24031 190.98621,200.24031 168.24204,213.09933 163.26676,214.5281 158.29148,215.95688 140.52259,228.8159 140.52259,228.8159 L 127.01824,233.81664 C 127.01824,233.81664 104.98484,215.95688 114.22465,211.67055 Z"
     id="path825"
     inkscape:connector-curvature="0" />
  <path
     style="fill:#000000;fill-opacity:1;stroke:none;stroke-width:1.12533116px;stroke-linecap:butt;stroke-linejoin:miter;stroke-opacity:1"
     d="M 188.85394,238.81737 C 188.85394,238.81737 213.01961,246.67566 214.44113,260.96347 215.86263,275.25126 210.17658,273.10809 210.17658,273.10809 210.17658,273.10809 187.43242,247.39006 188.85394,238.81737 Z"
     id="path827"
     inkscape:connector-curvature="0" />
  <path
     style="fill:#000000;fill-opacity:1;stroke:none;stroke-width:1.12533116px;stroke-linecap:butt;stroke-linejoin:miter;stroke-opacity:1"
     d="M 176.7711,120.943 C 176.7711,123.80056 193.82922,125.94373 195.25074,135.94519 196.67224,145.94666 193.82922,160.23446 193.82922,160.23446 L 185.30016,205.24103 176.06034,280.25199 C 176.06034,280.25199 173.92808,354.54857 171.08506,360.26369 168.24204,365.9788 156.86996,348.11906 159.00222,340.97516 161.13449,333.83126 171.79581,297.39736 171.79581,290.96785 171.79581,284.53834 181.03564,174.52226 181.03564,174.52226 L 183.1679,143.08909 169.66356,129.51568 C 169.66356,129.51568 177.48185,118.79983 181.03564,122.37178 184.5894,125.94373 178.90337,121.65739 178.90337,121.65739 Z"
     id="path829"
     inkscape:connector-curvature="0" />
  <path
     style="fill:#000000;fill-opacity:1;stroke:none;stroke-width:1.12533116px;stroke-linecap:butt;stroke-linejoin:miter;stroke-opacity:1"
     d="M 176.7711,229.53029 182.45714,243.8181 163.26676,270.25053 144.07637,290.96785 128.43976,304.54126 118.48919,314.54272 C 118.48919,314.54272 114.9354,303.11248 115.64616,298.82614 116.35692,294.5398 122.75371,295.96858 122.75371,295.96858 122.75371,295.96858 156.15921,262.39225 161.13449,256.67712 166.10977,250.962 176.7711,229.53029 176.7711,229.53029 Z"
     id="path831"
     inkscape:connector-curvature="0" />
  <path
     style="fill:#000000;fill-opacity:1;stroke:none;stroke-width:1.12533116px;stroke-linecap:butt;stroke-linejoin:miter;stroke-opacity:1"
     d="M 257.08642,187.38128 278.40908,188.81006 C 278.40908,188.81006 320.34363,178.0942 326.02968,177.37981 331.71571,176.66543 347.35232,165.94957 347.35232,165.94957 347.35232,165.94957 360.85668,174.52226 360.85668,180.23737 360.85668,185.9525 357.30289,191.66762 355.17063,196.66836 353.03837,201.66908 343.08779,220.24322 341.66629,228.10151 340.24477,235.95981 335.26949,263.82102 335.26949,263.82102 L 333.84797,280.96638 329.58345,281.68077 325.31892,246.67566 330.2942,234.53103 342.37703,196.66836 345.22005,183.09494 C 345.22005,183.09494 345.22005,177.37981 328.16194,183.80933 311.10381,190.23883 278.40908,200.24031 278.40908,200.24031 L 265.6155,203.81225 C 265.6155,203.81225 252.8219,190.95322 257.08642,187.38128 Z"
     id="path833"
     inkscape:connector-curvature="0" />
  <path
     style="fill:#000000;fill-opacity:1;stroke:none;stroke-width:1.12533116px;stroke-linecap:butt;stroke-linejoin:miter;stroke-opacity:1"
     d="M 234.34226,195.23958 C 234.34226,195.23958 254.24341,200.24031 256.37568,216.67127 258.50794,233.10224 260.6402,261.67786 260.6402,261.67786 V 274.53688 L 249.97887,256.67712 247.84661,213.81371 C 247.84661,213.81371 230.07774,198.09714 234.34226,195.23958 Z"
     id="path835"
     inkscape:connector-curvature="0" />
  <path
     style="fill:#000000;fill-opacity:1;stroke:none;stroke-width:1.12533116px;stroke-linecap:butt;stroke-linejoin:miter;stroke-opacity:1"
     d="M 267.037,235.24542 292.62419,224.52957 306.83928,219.52883 317.50061,225.95834 295.4672,233.81664 276.27682,242.38932 C 276.27682,242.38932 262.77247,238.81737 267.037,235.24542 Z"
     id="path837"
     inkscape:connector-curvature="0" />
  <path
     style="fill:#000000;fill-opacity:1;stroke:none;stroke-width:1.12533116px;stroke-linecap:butt;stroke-linejoin:miter;stroke-opacity:1"
     d="M 228.65622,277.39443 240.73906,279.5376 303.28551,259.53468 C 303.28551,259.53468 315.36835,260.24908 310.39306,262.39225 305.41778,264.53541 275.56606,273.10809 275.56606,273.10809 L 249.26812,283.82394 241.44982,291.68224 232.92075,292.39663 Z"
     id="path839"
     inkscape:connector-curvature="0" />
  <path
     style="fill:#000000;fill-opacity:1;stroke:none;stroke-width:1.12533116px;stroke-linecap:butt;stroke-linejoin:miter;stroke-opacity:1"
     d="M 281.25211,207.38421 298.31022,217.38566 294.75644,247.39006 292.62419,263.10663 281.96286,268.10736 283.38436,243.8181 281.96286,217.38566 Z"
     id="path841"
     inkscape:connector-curvature="0" />
  <path
     style="fill:#000000;fill-opacity:1;stroke:none;stroke-width:1.12533116px;stroke-linecap:butt;stroke-linejoin:miter;stroke-opacity:1"
     d="M 318.21136,243.10371 281.96286,283.82394 C 281.96286,283.82394 246.4251,321.68662 240.02831,324.54417 233.6315,327.40174 215.15187,340.26076 215.15187,340.26076 L 220.83791,322.40101 217.28414,320.25784 206.62282,338.83198 196.67224,345.2615 C 196.67224,345.2615 191.69696,350.26222 194.53998,354.54857 197.383,358.83491 212.30886,353.11978 212.30886,353.11978 L 257.79718,315.25711 305.41778,267.39297 C 305.41778,267.39297 332.42648,249.53323 325.31892,246.67566 318.21136,243.8181 318.21136,243.10371 318.21136,243.10371 Z"
     id="path843"
     inkscape:connector-curvature="0" />
  <path
     style="fill:#000000;fill-opacity:1;stroke:none;stroke-width:1.12533116px;stroke-linecap:butt;stroke-linejoin:miter;stroke-opacity:1"
     d="M 330.2942,297.39736 C 330.2942,297.39736 344.50931,293.11102 353.74913,299.54052 362.98894,305.97004 367.25346,318.11467 367.25346,318.11467 L 362.98894,323.1154 C 362.98894,323.1154 355.17063,319.54345 349.48459,313.11393 343.79855,306.68443 330.2942,297.39736 330.2942,297.39736 Z"
     id="path845"
     inkscape:connector-curvature="0" />
  <path
     style="fill:#000000;fill-opacity:1;stroke:none;stroke-width:1.12533116px;stroke-linecap:butt;stroke-linejoin:miter;stroke-opacity:1"
     d="M 295.4672,287.39589 C 295.4672,287.39589 316.78986,278.10882 314.65759,291.68224 312.52532,305.25565 308.26079,321.68662 308.26079,321.68662 L 304.70703,348.83344 316.07911,361.69246 363.69969,366.69319 409.89877,360.26369 419.84934,355.97735 C 419.84934,355.97735 422.69237,343.11833 422.69237,340.26076 422.69237,337.4032 421.27086,327.40174 421.27086,327.40174 L 432.64294,330.25931 440.46123,348.83344 448.27955,363.12124 C 448.27955,363.12124 450.41182,369.55076 443.30426,369.55076 436.19671,369.55076 421.98161,368.12198 421.98161,368.12198 L 359.43516,371.69393 H 331.71571 L 310.39306,370.97954 C 310.39306,370.97954 297.59947,361.69246 297.59947,351.691 297.59947,341.68955 296.88871,307.39882 299.02098,303.11248 301.15324,298.82614 295.4672,287.39589 295.4672,287.39589 Z"
     id="path847"
     inkscape:connector-curvature="0" />
</svg>
