<?xml version="1.0" encoding="UTF-8" standalone="no"?>
<!-- Created with Inkscape (http://www.inkscape.org/) -->

<svg
   xmlns:dc="http://purl.org/dc/elements/1.1/"
   xmlns:cc="http://creativecommons.org/ns#"
   xmlns:rdf="http://www.w3.org/1999/02/22-rdf-syntax-ns#"
   xmlns:svg="http://www.w3.org/2000/svg"
   xmlns="http://www.w3.org/2000/svg"
   xmlns:sodipodi="http://sodipodi.sourceforge.net/DTD/sodipodi-0.dtd"
   xmlns:inkscape="http://www.inkscape.org/namespaces/inkscape"
   version="1.1"
   id="svg815"
   width="512"
   height="512"
   viewBox="0 0 512 512"
   sodipodi:docname="U+7E23.svg"
   inkscape:version="0.92.2 (5c3e80d, 2017-08-06)">
  <metadata
     id="metadata821">
    <rdf:RDF>
      <cc:Work
         rdf:about="">
        <dc:format>image/svg+xml</dc:format>
        <dc:type
           rdf:resource="http://purl.org/dc/dcmitype/StillImage" />
        <dc:title />
      </cc:Work>
    </rdf:RDF>
  </metadata>
  <defs
     id="defs819" />
  <sodipodi:namedview
     pagecolor="#ffffff"
     bordercolor="#666666"
     borderopacity="1"
     objecttolerance="10"
     gridtolerance="10"
     guidetolerance="10"
     inkscape:pageopacity="0"
     inkscape:pageshadow="2"
     inkscape:window-width="1920"
     inkscape:window-height="1001"
     id="namedview817"
     showgrid="false"
     inkscape:zoom="1.5761719"
     inkscape:cx="151.63321"
     inkscape:cy="256"
     inkscape:window-x="-9"
     inkscape:window-y="-9"
     inkscape:window-maximized="1"
     inkscape:current-layer="svg815" />
  <path
     style="fill:#000000;fill-opacity:1;stroke:none;stroke-width:1.09527671px;stroke-linecap:butt;stroke-linejoin:miter;stroke-opacity:1"
     d="M 173.53365,125.16009 C 186.71436,125.85617 231.11254,118.19935 231.11254,118.19935 231.11254,118.19935 252.61791,121.67972 251.23046,133.51297 249.84302,145.34624 247.06814,143.95409 247.06814,153.00305 247.06814,162.05202 241.51836,243.49267 241.51836,243.49267 241.51836,243.49267 242.21209,263.67882 240.82464,269.94348 239.43719,276.20815 233.19371,292.91393 233.19371,292.91393 233.19371,292.91393 229.03137,289.43355 222.78788,271.33563 216.54439,253.23771 214.46322,247.66912 214.46322,247.66912 L 230.41882,254.62986 232.49999,171.10098 C 232.49999,171.10098 234.58114,141.86587 235.96859,139.08157 237.35604,136.29728 229.72509,129.33653 213.76951,133.51297 197.81391,137.68943 188.79553,145.34624 188.79553,145.34624 188.79553,145.34624 183.24576,141.1698 173.53365,125.16009 Z"
     id="path825"
     inkscape:connector-curvature="0" />
  <path
     style="fill:#000000;fill-opacity:1;stroke:none;stroke-width:1.09527671px;stroke-linecap:butt;stroke-linejoin:miter;stroke-opacity:1"
     d="M 179.77715,171.79705 C 179.77715,171.79705 186.71436,172.49312 194.3453,169.01275 201.97624,165.53239 208.21973,161.35594 213.07578,164.14023 217.93183,166.92454 219.31927,169.70883 219.31927,169.70883 219.31927,169.70883 204.0574,182.23816 198.50763,182.23816 192.95786,182.23816 172.14621,179.45386 179.77715,171.79705 Z"
     id="path827"
     inkscape:connector-curvature="0" />
  <path
     style="fill:#000000;fill-opacity:1;stroke:none;stroke-width:1.09527671px;stroke-linecap:butt;stroke-linejoin:miter;stroke-opacity:1"
     d="M 165.209,163.44416 C 165.209,163.44416 183.24576,166.92454 181.16459,182.23816 179.08343,197.55179 177.69598,237.22801 177.69598,237.22801 177.69598,237.22801 179.77715,258.8063 177.00226,262.28667 174.22738,265.76704 171.45249,272.03171 168.6776,265.07096 165.90271,258.11023 169.37133,237.22801 169.37133,230.26727 169.37133,223.30653 172.14621,185.71853 170.06505,178.75779 167.98388,171.79705 165.209,163.44416 165.209,163.44416 Z"
     id="path829"
     inkscape:connector-curvature="0" />
  <path
     style="fill:#000000;fill-opacity:1;stroke:none;stroke-width:1.09527671px;stroke-linecap:butt;stroke-linejoin:miter;stroke-opacity:1"
     d="M 173.53365,210.7772 C 173.53365,210.7772 197.81391,201.72823 201.28251,201.03216 204.75112,200.33609 213.76951,203.12038 213.07578,205.90468 212.38206,208.68897 201.28251,212.16934 195.73274,214.25757 190.18297,216.34578 179.08343,219.82616 176.30854,217.04186 173.53365,214.25757 173.53365,210.7772 173.53365,210.7772 Z"
     id="path831"
     inkscape:connector-curvature="0" />
  <path
     style="fill:#000000;fill-opacity:1;stroke:none;stroke-width:1.09527671px;stroke-linecap:butt;stroke-linejoin:miter;stroke-opacity:1"
     d="M 130.52292,252.54164 C 130.52292,252.54164 133.99153,256.71808 159.65923,246.27697 185.32691,235.83585 202.66996,235.13979 202.66996,235.13979 202.66996,235.13979 215.15694,233.74764 215.85066,237.22801 216.54439,240.70837 213.76951,244.88483 199.20135,244.18875 184.6332,243.49267 156.88433,255.32593 156.88433,255.32593 156.88433,255.32593 140.92875,263.67882 130.52292,252.54164 Z"
     id="path833"
     inkscape:connector-curvature="0" />
  <path
     style="fill:#000000;fill-opacity:1;stroke:none;stroke-width:1.09527671px;stroke-linecap:butt;stroke-linejoin:miter;stroke-opacity:1"
     d="M 80.574969,296.3943 C 80.574969,296.3943 97.22428,295.00215 121.50454,288.73749 145.7848,282.47282 183.93948,276.20815 193.65158,274.816 203.36368,273.42386 254.69907,265.07096 254.69907,265.07096 L 272.04211,262.98275 C 272.04211,262.98275 290.07887,267.85527 292.16003,274.816 294.2412,281.77674 292.85375,288.04141 287.30398,285.25711 281.75421,282.47282 267.87978,274.11993 256.08652,274.816 244.29325,275.51207 207.52601,277.6003 207.52601,277.6003 207.52601,277.6003 154.80318,286.64926 134.68525,293.61001 114.56732,300.57074 102.08033,304.74718 97.918,309.6197 93.75568,314.49222 95.14312,317.9726 80.574969,296.3943 Z"
     id="path835"
     inkscape:connector-curvature="0" />
  <path
     style="fill:#000000;fill-opacity:1;stroke:none;stroke-width:1.09527671px;stroke-linecap:butt;stroke-linejoin:miter;stroke-opacity:1"
     d="M 219.31927,297.78645 247.06814,320.75689 C 247.06814,320.75689 257.47396,333.98229 254.00535,339.55088 250.53674,345.11948 243.59952,351.38415 237.35604,342.33519 231.11254,333.28622 231.11254,320.06081 231.11254,320.06081 231.11254,320.06081 217.93183,305.44326 219.31927,297.78645 Z"
     id="path839"
     inkscape:connector-curvature="0" />
  <path
     style="fill:#000000;fill-opacity:1;stroke:none;stroke-width:1.09527671px;stroke-linecap:butt;stroke-linejoin:miter;stroke-opacity:1"
     d="M 160.35295,297.78645 C 160.35295,297.78645 145.09107,317.27652 143.00991,329.80585 140.92875,342.33519 143.00991,348.59985 143.00991,348.59985 143.00991,348.59985 158.9655,340.94304 160.35295,336.76659 161.74038,332.59015 160.35295,297.78645 160.35295,297.78645 Z"
     id="path841"
     inkscape:connector-curvature="0" />
  <path
     style="fill:#000000;fill-opacity:1;stroke:none;stroke-width:1.09527671px;stroke-linecap:butt;stroke-linejoin:miter;stroke-opacity:1"
     d="M 185.32691,292.91393 190.18297,301.26682 187.40808,354.86451 C 187.40808,354.86451 179.08343,353.47236 174.22738,349.29592 169.37133,345.11948 172.14621,354.86451 177.69598,366.69778 183.24576,378.53103 181.85831,382.0114 188.79553,383.40355 195.73274,384.7957 201.28251,379.22711 201.28251,374.35459 201.28251,369.48207 197.81391,356.25667 198.50763,349.29592 199.20135,342.33519 201.97624,303.35504 201.97624,303.35504 V 292.91393 C 201.97624,292.91393 190.18297,285.95319 189.48925,286.64926 188.79553,287.34534 185.32691,288.04141 185.32691,292.91393 Z"
     id="path843"
     inkscape:connector-curvature="0" />
  <path
     style="fill:#000000;fill-opacity:1;stroke:none;stroke-width:1.09527671px;stroke-linecap:butt;stroke-linejoin:miter;stroke-opacity:1"
     d="M 338.63938,94.532834 C 338.63938,94.532834 349.73892,104.97395 349.73892,111.93469 349.73892,118.89542 340.72053,134.90513 340.72053,134.90513 L 317.134,165.53239 306.72818,173.88527 C 306.72818,173.88527 304.64702,172.49312 317.134,153.69912 329.621,134.90513 339.3331,116.11113 339.3331,112.63077 339.3331,109.15039 338.63938,94.532834 338.63938,94.532834 Z"
     id="path845"
     inkscape:connector-curvature="0" />
  <path
     style="fill:#000000;fill-opacity:1;stroke:none;stroke-width:1.09527671px;stroke-linecap:butt;stroke-linejoin:miter;stroke-opacity:1"
     d="M 358.7573,154.3952 C 358.7573,154.3952 360.83846,171.10098 356.67613,179.45386 352.5138,187.80675 347.65775,204.51253 340.02682,210.08112 332.39588,215.64972 328.92727,221.91438 328.92727,221.91438 L 360.14474,218.43401 C 360.14474,218.43401 367.08196,217.04186 367.08196,210.7772 367.08196,204.51253 384.42499,196.85571 386.50616,208.68897 388.58733,220.52224 371.93801,224.69868 371.93801,224.69868 L 337.25193,255.32593 319.21517,271.33563 C 319.21517,271.33563 314.35912,278.29638 324.76495,274.816 335.17077,271.33563 370.55056,262.28667 370.55056,262.28667 L 362.22591,246.27697 C 362.22591,246.27697 387.19988,252.54164 391.36221,256.71808 395.52454,260.89452 402.46176,267.85527 400.38059,272.03171 398.29943,276.20815 396.91198,278.29638 392.05593,278.99245 387.19988,279.68852 375.40661,272.72778 372.63173,271.33563 369.85684,269.94348 340.72053,280.38459 340.72053,280.38459 340.72053,280.38459 330.31472,283.86497 327.53983,285.25711 324.76495,286.64926 315.05285,295.00215 315.05285,295.00215 315.05285,295.00215 308.80935,299.17859 306.03447,292.91393 303.25958,286.64926 294.93492,276.90423 297.01608,274.11993 299.09725,271.33563 300.48469,279.68852 312.27795,269.24742 324.07122,258.8063 346.96403,235.83585 347.65775,233.74764 348.35148,231.65941 329.621,232.35549 316.44028,237.92408 303.25958,243.49267 301.17842,240.01231 301.17842,240.01231 L 302.56585,228.17904 303.25958,221.2183 C 303.25958,221.2183 313.6654,218.43401 316.44028,215.64972 319.21517,212.86542 337.25193,198.94394 342.8017,187.80675 348.35148,176.66957 358.7573,154.3952 358.7573,154.3952 Z"
     id="path847"
     inkscape:connector-curvature="0" />
  <path
     style="fill:#000000;fill-opacity:1;stroke:none;stroke-width:1.09527671px;stroke-linecap:butt;stroke-linejoin:miter;stroke-opacity:1"
     d="M 378.87523,292.21786 C 378.87523,292.21786 412.17386,317.27652 414.25502,323.54118 416.33619,329.80585 410.78641,346.51163 410.78641,346.51163 410.78641,346.51163 401.76803,343.72733 391.36221,322.84511 380.95639,301.96289 378.87523,292.21786 378.87523,292.21786 Z"
     id="path849"
     inkscape:connector-curvature="0" />
  <path
     style="fill:#000000;fill-opacity:1;stroke:none;stroke-width:1.09527671px;stroke-linecap:butt;stroke-linejoin:miter;stroke-opacity:1"
     d="M 297.01608,306.83541 C 297.01608,306.83541 292.85375,306.13933 290.77259,318.66866 288.69142,331.198 288.69142,349.29592 288.69142,349.29592 288.69142,349.29592 294.93492,362.52132 301.17842,353.47236 307.4219,344.4234 306.72818,335.37444 306.72818,335.37444 306.72818,335.37444 299.79097,323.54118 297.01608,306.83541 Z"
     id="path851"
     inkscape:connector-curvature="0" />
  <path
     style="fill:#000000;fill-opacity:1;stroke:none;stroke-width:1.09527671px;stroke-linecap:butt;stroke-linejoin:miter;stroke-opacity:1"
     d="M 331.00843,295.69822 C 331.00843,295.69822 346.27031,300.57074 346.96403,304.05111 347.65775,307.53149 345.57659,308.92363 345.57659,322.84511 345.57659,336.76659 346.27031,359.73703 346.27031,359.73703 L 346.96403,375.74674 343.49543,391.75643 C 343.49543,391.75643 335.17077,402.19754 333.0896,388.27607 331.00843,374.35459 328.23355,359.04096 328.23355,359.04096 L 334.47705,360.43311 336.55821,320.06081 Z"
     id="path853"
     inkscape:connector-curvature="0" />
</svg>
