<?xml version="1.0" encoding="UTF-8" standalone="no"?>
<!-- Created with Inkscape (http://www.inkscape.org/) -->

<svg
   xmlns:dc="http://purl.org/dc/elements/1.1/"
   xmlns:cc="http://creativecommons.org/ns#"
   xmlns:rdf="http://www.w3.org/1999/02/22-rdf-syntax-ns#"
   xmlns:svg="http://www.w3.org/2000/svg"
   xmlns="http://www.w3.org/2000/svg"
   xmlns:sodipodi="http://sodipodi.sourceforge.net/DTD/sodipodi-0.dtd"
   xmlns:inkscape="http://www.inkscape.org/namespaces/inkscape"
   version="1.1"
   id="svg10"
   width="512"
   height="512"
   viewBox="0 0 512 512"
   sodipodi:docname="轂.svg"
   inkscape:version="0.92.2 (5c3e80d, 2017-08-06)">
  <metadata
     id="metadata16">
    <rdf:RDF>
      <cc:Work
         rdf:about="">
        <dc:format>image/svg+xml</dc:format>
        <dc:type
           rdf:resource="http://purl.org/dc/dcmitype/StillImage" />
        <dc:title />
      </cc:Work>
    </rdf:RDF>
  </metadata>
  <defs
     id="defs14" />
  <sodipodi:namedview
     pagecolor="#ffffff"
     bordercolor="#666666"
     borderopacity="1"
     objecttolerance="10"
     gridtolerance="10"
     guidetolerance="10"
     inkscape:pageopacity="0"
     inkscape:pageshadow="2"
     inkscape:window-width="1920"
     inkscape:window-height="1001"
     id="namedview12"
     showgrid="false"
     inkscape:zoom="1.04"
     inkscape:cx="165.41814"
     inkscape:cy="161.22844"
     inkscape:window-x="-9"
     inkscape:window-y="-9"
     inkscape:window-maximized="1"
     inkscape:current-layer="svg10" />
  <path
     style="opacity:1;fill:#000000;fill-opacity:1;fill-rule:nonzero;stroke:none;stroke-width:1px;stroke-linecap:butt;stroke-linejoin:miter;stroke-opacity:1"
     d="M 159.44688,135.92686 C 159.44688,135.92686 209.69264,126.05715 217.31923,127.85164 224.94582,129.64614 233.46965,132.7865 233.46965,132.7865 233.46965,132.7865 205.65503,141.75895 204.75779,140.86171 203.86054,139.96446 172.90556,154.3204 170.21382,150.28279 167.52209,146.24518 153.16615,137.72135 159.44688,135.92686 Z"
     id="path21813"
     inkscape:connector-curvature="0" />
  <path
     style="opacity:1;fill:#000000;fill-opacity:1;fill-rule:nonzero;stroke:none;stroke-width:1px;stroke-linecap:butt;stroke-linejoin:miter;stroke-opacity:1"
     d="M 173.80281,82.989358 C 178.28904,79.400374 177.84041,74.914146 181.4294,74.465523 185.01838,74.0169 202.06605,84.335226 202.9633,83.43798 203.86054,82.540735 209.24402,113.49571 210.58988,111.2526 211.93575,109.00948 207.89815,129.64614 205.65503,128.30027 203.41192,126.9544 197.57982,325.69434 197.57982,325.69434 V 387.15567 C 197.57982,387.15567 186.36425,381.32358 186.36425,376.83735 186.36425,372.35112 183.67251,368.76214 184.56976,363.37866 185.467,357.99519 182.32664,361.13555 185.91563,361.13555 189.50461,361.13555 194.88808,202.32304 194.88808,202.32304 L 193.54221,127.85164 C 193.54221,127.85164 196.23395,113.49571 194.88808,111.70122 193.54221,109.90673 191.74772,92.859061 185.01838,91.961815 178.28904,91.06457 174.25143,89.270078 174.25143,86.129718"
     id="path21815"
     inkscape:connector-curvature="0" />
  <path
     style="opacity:1;fill:#000000;fill-opacity:1;fill-rule:nonzero;stroke:none;stroke-width:1px;stroke-linecap:butt;stroke-linejoin:miter;stroke-opacity:1"
     d="M 158.99825,171.81669 C 158.99825,171.81669 212.38438,155.21764 218.6651,156.56351 224.94582,157.90938 233.91827,158.358 233.91827,160.15249 233.91827,161.94698 232.57241,163.74148 232.57241,163.74148 232.57241,163.74148 228.5348,160.60112 209.24402,166.88184 189.95323,173.16256 173.35418,180.78915 168.86796,180.34052 164.38173,179.8919 154.96065,171.81669 158.99825,171.81669 Z"
     id="path21817"
     inkscape:connector-curvature="0" />
  <path
     style="opacity:1;fill:#000000;fill-opacity:1;fill-rule:nonzero;stroke:none;stroke-width:1px;stroke-linecap:butt;stroke-linejoin:miter;stroke-opacity:1"
     d="M 115.48183,188.41573 C 125.80016,203.22029 126.24878,209.94963 126.24878,218.47347 126.24878,226.9973 131.18363,234.62389 132.5295,232.38078 133.87537,230.13766 142.84783,208.60376 142.84783,211.74412 142.84783,214.88449 141.05334,196.04232 130.73501,190.21023 120.41668,184.37813 117.72495,184.82675 115.48183,188.41573 Z"
     id="path21819"
     inkscape:connector-curvature="0" />
  <path
     style="opacity:1;fill:#000000;fill-opacity:1;fill-rule:nonzero;stroke:none;stroke-width:1px;stroke-linecap:butt;stroke-linejoin:miter;stroke-opacity:1"
     d="M 144.64232,193.79921 C 144.64232,193.79921 149.57717,210.39826 151.37166,209.05239 153.16615,207.70652 233.91827,185.724 200.27156,195.14508 166.62484,204.56616 231.22654,186.17262 235.26414,186.17262 239.30175,186.17262 252.31181,194.69646 254.10631,190.65885 255.9008,186.62124 248.27421,181.23777 243.33936,180.78915 238.4045,180.34052 205.20641,186.17262 188.60736,188.86436 172.00832,191.55609 158.54963,197.38819 151.82029,196.04232 151.82029,196.04232 143.29645,194.24783 144.64232,193.79921 Z"
     id="path21821"
     inkscape:connector-curvature="0" />
  <path
     style="opacity:1;fill:#000000;fill-opacity:1;fill-rule:nonzero;stroke:none;stroke-width:1px;stroke-linecap:butt;stroke-linejoin:miter;stroke-opacity:1"
     d="M 172.00832,216.67898 C 172.00832,216.67898 176.94317,224.75419 177.84041,229.68904 178.73766,234.62389 198.92569,217.1276 201.61743,217.57622 204.30916,218.02485 220.90821,211.74412 221.80546,211.74412 222.7027,211.74412 222.25408,199.63131 207.44952,205.91203 192.64497,212.19275 173.35418,222.06245 172.00832,216.67898 Z"
     id="path21823"
     inkscape:connector-curvature="0" />
  <path
     style="opacity:1;fill:#000000;fill-opacity:1;fill-rule:nonzero;stroke:none;stroke-width:1px;stroke-linecap:butt;stroke-linejoin:miter;stroke-opacity:1"
     d="M 154.0634,240.90461 C 154.0634,240.90461 169.7652,267.82199 169.31658,274.10271 168.86796,280.38343 170.66245,290.25313 170.66245,294.29074 170.66245,298.32834 177.39179,299.67421 176.49455,296.53385 175.5973,293.39349 171.55969,271.41097 171.55969,266.47612 171.55969,261.54127 168.41933,248.5312 167.07346,247.18533 165.7276,245.83946 158.99825,238.21288 154.0634,240.90461 Z"
     id="path21825"
     inkscape:connector-curvature="0" />
  <path
     style="opacity:1;fill:#000000;fill-opacity:1;fill-rule:nonzero;stroke:none;stroke-width:1px;stroke-linecap:butt;stroke-linejoin:miter;stroke-opacity:1"
     d="M 175.5973,243.59635 C 175.5973,243.59635 221.80546,228.34317 223.59995,229.24042 225.39444,230.13766 242.44211,235.52114 244.2366,240.45599 246.03109,245.39084 227.63755,289.35588 233.02103,289.35588 238.4045,289.35588 226.29169,289.80451 226.29169,289.80451 226.29169,289.80451 225.39444,277.24307 226.29169,276.34582 227.18893,275.44858 231.67516,255.70917 231.67516,252.12019 231.67516,248.5312 230.32929,242.6991 229.43205,240.00737 228.5348,237.31563 221.35683,235.52114 221.35683,235.52114 221.35683,235.52114 195.33671,249.42845 193.09359,248.5312 190.85048,247.63396 175.5973,243.59635 175.5973,243.59635 Z"
     id="path21827"
     inkscape:connector-curvature="0" />
  <path
     style="opacity:1;fill:#000000;fill-opacity:1;fill-rule:nonzero;stroke:none;stroke-width:1px;stroke-linecap:butt;stroke-linejoin:miter;stroke-opacity:1"
     d="M 184.56976,264.68163 C 184.56976,264.68163 207.44952,254.3633 210.14126,255.70917 212.833,257.05504 218.21647,258.84953 217.31923,259.74677 216.42198,260.64402 196.68258,266.02749 196.23395,267.82199 195.78533,269.61648 179.63491,266.47612 184.56976,264.68163 Z"
     id="path21829"
     inkscape:connector-curvature="0" />
  <path
     style="opacity:1;fill:#000000;fill-opacity:1;fill-rule:nonzero;stroke:none;stroke-width:1px;stroke-linecap:butt;stroke-linejoin:miter;stroke-opacity:1"
     d="M 160.34412,295.63661 C 169.31658,293.84211 202.9633,279.03756 213.28162,280.38343 223.59995,281.7293 235.71277,283.52379 235.71277,283.52379 235.71277,283.52379 236.61001,291.15038 233.46965,292.04762 230.32929,292.94487 226.29169,289.80451 226.29169,289.80451 226.29169,289.80451 215.97336,285.7669 213.28162,288.01002 210.58988,290.25313 164.38173,298.77697 167.07346,301.02008 169.7652,303.26319 160.34412,295.63661 160.34412,295.63661 Z"
     id="path21831"
     inkscape:connector-curvature="0" />
  <path
     style="opacity:1;fill:#000000;fill-opacity:1;fill-rule:nonzero;stroke:none;stroke-width:1px;stroke-linecap:butt;stroke-linejoin:miter;stroke-opacity:1"
     d="M 113.68734,320.75949 C 163.9331,314.47877 205.65503,305.50631 214.62749,305.50631 223.59995,305.50631 232.12378,302.81457 236.16139,303.26319 240.199,303.71182 251.41457,301.91733 252.31181,304.16044 253.20906,306.40355 251.41457,314.03014 250.96594,313.58152 250.51732,313.1329 231.22654,311.78703 229.43205,310.44116 227.63755,309.09529 178.28904,313.58152 179.63491,315.82464 180.98077,318.06775 150.92304,321.65673 143.29645,325.24572 135.66986,328.8347 126.24878,337.35853 126.24878,337.35853 126.24878,337.35853 119.51944,337.80716 113.68734,320.75949 Z"
     id="path21833"
     inkscape:connector-curvature="0" />
  <path
     style="opacity:1;fill:#000000;fill-opacity:1;fill-rule:nonzero;stroke:none;stroke-width:1px;stroke-linecap:butt;stroke-linejoin:miter;stroke-opacity:1"
     d="M 263.97601,148.4883 C 263.97601,148.4883 264.87325,158.80662 271.6026,169.57357 278.33194,180.34052 251.41457,205.91203 251.41457,209.94963 251.41457,213.98724 250.51732,224.75419 259.48978,212.19275 268.46224,199.63131 278.78056,193.79921 279.67781,190.65885 280.57506,187.51849 286.85578,177.20016 286.40715,174.0598 285.95853,170.91944 268.91086,149.38554 267.11637,148.93692 265.32188,148.4883 263.97601,148.4883 263.97601,148.4883 Z"
     id="path21835"
     inkscape:connector-curvature="0" />
  <path
     style="opacity:1;fill:#000000;fill-opacity:1;fill-rule:nonzero;stroke:none;stroke-width:1px;stroke-linecap:butt;stroke-linejoin:miter;stroke-opacity:1"
     d="M 292.68787,152.5259 C 292.68787,152.5259 302.55758,159.25525 305.24931,158.80662 307.94105,158.358 336.65292,155.21764 336.20429,153.87177 335.75567,152.5259 342.03639,148.4883 342.03639,144.45069 342.03639,140.41309 351.90609,148.03967 351.90609,148.03967 L 350.1116,153.42315 353.70059,160.15249 350.1116,168.67633 C 350.1116,168.67633 348.31711,168.67633 346.074,166.43321 343.83088,164.1901 319.15662,163.74148 311.08141,165.98459 303.0062,168.2277 292.68787,168.2277 293.1365,161.04974 293.58512,153.87177 292.68787,152.5259 292.68787,152.5259 Z"
     id="path21837"
     inkscape:connector-curvature="0" />
  <path
     style="opacity:1;fill:#000000;fill-opacity:1;fill-rule:nonzero;stroke:none;stroke-width:1px;stroke-linecap:butt;stroke-linejoin:miter;stroke-opacity:1"
     d="M 324.5401,156.11489 325.88597,170.0222 315.11902,198.28544 316.46489,204.11754 324.5401,202.32304 C 324.5401,202.32304 324.5401,192.00472 327.68046,187.06987 330.82082,182.13501 336.20429,176.75154 337.10154,175.40567 337.99879,174.0598 335.30705,170.47082 338.44741,165.98459 341.58777,161.49836 337.99879,152.97453 337.99879,152.97453 337.99879,152.97453 323.64285,152.97453 324.5401,156.11489 Z"
     id="path21839"
     inkscape:connector-curvature="0" />
  <path
     style="opacity:1;fill:#000000;fill-opacity:1;fill-rule:nonzero;stroke:none;stroke-width:1px;stroke-linecap:butt;stroke-linejoin:miter;stroke-opacity:1"
     d="M 301.21171,199.18268 C 325.43734,190.21023 323.19423,189.31298 326.33459,190.65885 329.47495,192.00472 341.13915,196.49095 337.99879,199.18268 334.85843,201.87442 317.36213,200.52855 307.94105,205.01478 298.51997,209.50101 298.96859,206.80927 297.62273,208.60376 296.27686,210.39826 292.68787,200.07993 292.68787,200.07993 Z"
     id="path21841"
     inkscape:connector-curvature="0" />
  <path
     style="opacity:1;fill:#000000;fill-opacity:1;fill-rule:nonzero;stroke:none;stroke-width:1px;stroke-linecap:butt;stroke-linejoin:miter;stroke-opacity:1"
     d="M 289.99614,195.14508 C 290.89338,194.69646 297.1741,206.80927 292.23925,214.88449 287.3044,222.9597 276.08883,232.38078 275.6402,232.8294 275.19158,233.27802 278.78056,237.31563 280.12643,236.86701 281.4723,236.41838 295.82823,225.65143 297.1741,222.9597 298.51997,220.26796 307.04381,208.15514 307.49243,205.4634 307.94105,202.77167 294.93099,193.35059 289.99614,195.14508 Z"
     id="path21843"
     inkscape:connector-curvature="0" />
  <path
     style="opacity:1;fill:#000000;fill-opacity:1;fill-rule:nonzero;stroke:none;stroke-width:1px;stroke-linecap:butt;stroke-linejoin:miter;stroke-opacity:1"
     d="M 252.76044,248.5312 C 252.76044,248.5312 357.28957,227.44593 358.18682,226.10006 359.08406,224.75419 379.72071,235.07252 378.37485,236.41838 377.02898,237.76425 368.95376,240.00737 355.9437,238.21288 342.93364,236.41838 288.65027,241.80186 275.19158,250.77432 261.73289,259.74677 263.07876,260.64402 262.63014,259.74677 262.18152,258.84953 256.79804,261.98989 252.76044,248.5312 Z"
     id="path21845"
     inkscape:connector-curvature="0" />
  <path
     style="opacity:1;fill:#000000;fill-opacity:1;fill-rule:nonzero;stroke:none;stroke-width:1px;stroke-linecap:butt;stroke-linejoin:miter;stroke-opacity:1"
     d="M 230.77791,253.01743 C 230.77791,253.01743 241.54486,246.28809 255.9008,266.47612 270.25673,286.66415 286.85578,311.78703 298.07135,320.31086 309.28692,328.8347 359.08406,366.96764 356.84095,369.65938 354.59783,372.35112 371.6455,360.2383 383.75832,357.99519 395.87114,355.75207 401.25461,361.13555 401.70324,361.13555 402.15186,361.13555 431.76097,334.21817 426.82612,339.60165 421.89127,344.98512 407.98396,347.67686 387.3473,342.74201 366.71065,337.80716 342.03639,334.6668 321.39974,320.31086 300.76309,305.95493 283.26679,291.15038 273.39709,280.38343 263.52739,269.61648 257.69529,257.50366 253.20906,255.26055 248.72283,253.01743 246.92834,246.73671 240.199,245.39084 233.46965,244.04497 227.18893,243.14773 227.63755,245.83946 228.08618,248.5312 230.77791,253.01743 230.77791,253.01743 Z"
     id="path21847"
     inkscape:connector-curvature="0" />
  <path
     style="opacity:1;fill:#000000;fill-opacity:1;fill-rule:nonzero;stroke:none;stroke-width:1px;stroke-linecap:butt;stroke-linejoin:miter;stroke-opacity:1"
     d="M 300.31446,257.95228 C 300.31446,257.95228 308.8383,268.71923 298.07135,287.11277 287.3044,305.50631 266.21912,327.48883 259.9384,331.07781 253.65768,334.6668 210.58988,357.54656 203.41192,355.75207 196.23395,353.95758 199.37431,359.78968 199.37431,359.78968 199.37431,359.78968 226.74031,356.2007 237.05864,350.81722 247.37696,345.43375 281.02368,329.28332 291.79063,316.27326 302.55758,303.26319 313.77315,266.02749 312.42728,264.233 311.08141,262.43851 304.80069,252.12019 300.31446,257.95228 Z"
     id="path21849"
     inkscape:connector-curvature="0" />
  <path
     style="opacity:1;fill:#000000;fill-opacity:1;fill-rule:nonzero;stroke:none;stroke-width:1px;stroke-linecap:butt;stroke-linejoin:miter;stroke-opacity:1"
     d="M 173.80281,82.989358 174.25143,86.129718"
     id="path21853"
     inkscape:connector-curvature="0" />
  <g
     inkscape:groupmode="layer"
     id="layer4"
     inkscape:label="Layer 1"
     style="display:none" />
</svg>
