<?xml version="1.0" encoding="UTF-8" standalone="no"?>
<!-- Created with Inkscape (http://www.inkscape.org/) -->

<svg
   xmlns:dc="http://purl.org/dc/elements/1.1/"
   xmlns:cc="http://creativecommons.org/ns#"
   xmlns:rdf="http://www.w3.org/1999/02/22-rdf-syntax-ns#"
   xmlns:svg="http://www.w3.org/2000/svg"
   xmlns="http://www.w3.org/2000/svg"
   xmlns:sodipodi="http://sodipodi.sourceforge.net/DTD/sodipodi-0.dtd"
   xmlns:inkscape="http://www.inkscape.org/namespaces/inkscape"
   version="1.1"
   id="svg815"
   width="512"
   height="512"
   viewBox="0 0 512 512"
   sodipodi:docname="輦.svg"
   inkscape:version="0.92.2 (5c3e80d, 2017-08-06)">
  <metadata
     id="metadata821">
    <rdf:RDF>
      <cc:Work
         rdf:about="">
        <dc:format>image/svg+xml</dc:format>
        <dc:type
           rdf:resource="http://purl.org/dc/dcmitype/StillImage" />
        <dc:title></dc:title>
      </cc:Work>
    </rdf:RDF>
  </metadata>
  <defs
     id="defs819">
    <inkscape:tag
       id="Set 1" />
  </defs>
  <sodipodi:namedview
     pagecolor="#ffffff"
     bordercolor="#666666"
     borderopacity="1"
     objecttolerance="10"
     gridtolerance="10"
     guidetolerance="10"
     inkscape:pageopacity="0"
     inkscape:pageshadow="2"
     inkscape:window-width="1129"
     inkscape:window-height="991"
     id="namedview817"
     showgrid="false"
     inkscape:zoom="1.1103093"
     inkscape:cx="263.66121"
     inkscape:cy="263.58103"
     inkscape:window-x="-5"
     inkscape:window-y="0"
     inkscape:window-maximized="0"
     inkscape:current-layer="svg815" />
  <path
     style="fill:#000000;stroke:none;stroke-width:1px;stroke-linecap:butt;stroke-linejoin:miter;stroke-opacity:1;fill-opacity:1"
     d="M 173.20446,148.46097 204.29244,145.92317 C 204.29244,145.92317 228.40149,141.48203 231.57373,141.48203 234.74597,141.48203 239.82156,145.92317 239.82156,145.92317 239.82156,145.92317 227.76704,150.36431 225.22924,148.46097 222.69145,146.55762 201.1202,154.171 196.04461,156.7088 190.96902,159.24659 175.10781,162.41884 173.20446,148.46097 Z"
     id="path825"
     inkscape:connector-curvature="0" />
  <path
     style="fill:#000000;stroke:none;stroke-width:1px;stroke-linecap:butt;stroke-linejoin:miter;stroke-opacity:1;fill-opacity:1"
     d="M 153.87765,187.19703 C 153.87765,187.19703 169.57945,186.7484 183.03814,182.26218 196.49683,177.77595 232.83528,166.56037 238.21875,165.21451 243.60223,163.86864 254.36918,169.70074 254.36918,169.70074 L 248.08846,174.63559 C 248.08846,174.63559 244.9481,171.49523 232.38666,174.18696 219.82522,176.8787 192.0106,180.91631 182.58952,187.19703 173.16844,193.47775 173.61706,192.5805 170.4767,195.72086 167.33634,198.86122 165.99047,204.2447 165.99047,204.2447 165.99047,204.2447 148.9428,191.23463 153.87765,187.19703 Z"
     id="path827"
     inkscape:connector-curvature="0" />
  <path
     style="fill:#000000;stroke:none;stroke-width:1px;stroke-linecap:butt;stroke-linejoin:miter;stroke-opacity:1;fill-opacity:1"
     d="M 203.67479,93.434844 C 204.12341,93.883467 219.82522,101.51006 218.92797,105.54766 218.03072,109.58527 222.51695,111.37976 215.33899,149.51271 208.16102,187.64565 206.36653,193.02913 206.36653,193.02913 206.36653,193.02913 196.49683,222.63824 188.87024,230.26483 181.24365,237.89141 167.33634,250.90148 159.70975,253.59322 152.08316,256.28495 138.17585,258.07944 135.93274,256.28495 133.68962,254.49046 142.21346,246.86387 142.21346,246.86387 142.21346,246.86387 152.53178,251.79872 169.13083,236.99417 185.72988,222.18961 198.73994,206.48781 201.43168,192.5805 204.12341,178.67319 213.5445,141.88612 211.75,128.87605 209.95551,115.86599 207.26378,103.75317 204.12341,99.715564 200.98305,95.677958 203.67479,93.434844 203.67479,93.434844 Z"
     id="path829"
     inkscape:connector-curvature="0" />
  <path
     style="fill:#000000;stroke:none;stroke-width:1px;stroke-linecap:butt;stroke-linejoin:miter;stroke-opacity:1;fill-opacity:1"
     d="M 219.82522,190.78601 C 219.82522,190.78601 232.83528,195.72086 232.83528,203.34745 232.83528,210.97404 231.04079,215.01165 229.2463,215.01165 227.45181,215.01165 215.78761,199.75847 219.82522,190.78601 Z"
     id="path4520"
     inkscape:connector-curvature="0" />
  <path
     style="fill:#000000;stroke:none;stroke-width:1px;stroke-linecap:butt;stroke-linejoin:miter;stroke-opacity:1;fill-opacity:1"
     d="M 269.62236,134.70815 C 267.82787,134.70815 288.46452,138.74576 299.68009,134.25953 310.89566,129.7733 321.66261,124.83845 327.94333,129.7733 334.22405,134.70815 330.63507,138.29713 327.94333,137.84851 325.2516,137.39989 318.97087,138.29713 305.51219,141.43749 292.0535,144.57785 278.59481,148.61546 279.49206,149.96133 280.38931,151.3072 266.482,137.84851 269.62236,134.70815 Z"
     id="path4522"
     inkscape:connector-curvature="0" />
  <path
     style="fill:#000000;stroke:none;stroke-width:1px;stroke-linecap:butt;stroke-linejoin:miter;stroke-opacity:1;fill-opacity:1"
     d="M 264.6875,169.70074 C 264.6875,169.70074 272.31409,172.39247 287.56727,168.35487 302.82045,164.31726 328.39196,157.58792 328.39196,157.58792 328.39196,157.58792 335.56992,154.44756 335.1213,153.55031 334.67268,152.65307 353.51484,158.93379 351.27172,161.62552 349.02861,164.31726 345.43963,162.52277 326.59746,167.45762 307.7553,172.39247 300.12871,172.39247 289.36176,177.77595 278.59481,183.15942 275.90308,181.36493 275.90308,181.36493 275.90308,181.36493 264.23888,174.18696 264.6875,169.70074 Z"
     id="path4524"
     inkscape:connector-curvature="0" />
  <path
     style="fill:#000000;stroke:none;stroke-width:1px;stroke-linecap:butt;stroke-linejoin:miter;stroke-opacity:1;fill-opacity:1"
     d="M 282.63242,90.743106 C 282.63242,90.743106 306.85806,102.4073 306.40943,109.58527 305.96081,116.76323 301.9232,130.22192 298.33422,153.99893 294.74524,177.77595 291.15626,194.37499 283.52967,204.2447 275.90308,214.1144 261.99577,223.08686 256.16367,222.63824 250.33157,222.18961 258.85541,215.01165 258.85541,215.01165 258.85541,215.01165 271.41685,210.0768 276.3517,202.89883 281.28655,195.72086 286.2214,189.44014 291.60488,158.48516 296.98835,127.53018 298.33422,115.86599 291.60488,106.44491 284.87554,97.023827 281.73517,96.575204 282.63242,90.743106 Z"
     id="path4526"
     inkscape:connector-curvature="0" />
  <path
     style="fill:#000000;stroke:none;stroke-width:1px;stroke-linecap:butt;stroke-linejoin:miter;stroke-opacity:1;fill-opacity:1"
     d="M 308.65255,183.15942 C 308.65255,183.15942 342.74789,201.10434 351.27172,206.93643 359.79556,212.76853 373.25424,224.43273 379.98359,232.95656 386.71293,241.4804 388.0588,252.69597 387.16155,253.14459 386.26431,253.59322 380.43221,258.07944 378.63772,253.14459 376.84323,248.20974 361.59005,226.67584 350.8231,217.70338 340.05615,208.73093 325.2516,197.96398 325.2516,197.96398 325.2516,197.96398 306.85806,185.85116 308.65255,183.15942 Z"
     id="path4528"
     inkscape:connector-curvature="0" />
  <path
     style="fill:#000000;stroke:none;stroke-width:1px;stroke-linecap:butt;stroke-linejoin:miter;stroke-opacity:1;fill-opacity:1"
     d="M 196.94545,235.6483 C 196.94545,235.6483 202.77755,239.23728 212.19863,237.89141 221.61971,236.54555 253.02331,229.36758 253.02331,229.36758 L 273.65996,225.32997 C 273.65996,225.32997 284.42691,222.18961 286.2214,220.39512 288.0159,218.60063 299.23147,217.70338 305.06357,220.39512 310.89566,223.08686 310.44704,226.22722 310.44704,226.22722 310.44704,226.22722 305.51219,228.47033 296.09111,228.91896 286.67003,229.36758 261.09852,232.50794 261.09852,232.50794 261.09852,232.50794 235.52702,238.78866 223.4142,242.82627 211.30138,246.86387 199.18856,254.93908 198.73994,254.04184 198.29132,253.14459 196.49683,250.90148 196.94545,246.86387 197.39407,242.82627 192.45922,241.03177 196.94545,235.6483 Z"
     id="path4530"
     inkscape:connector-curvature="0" />
  <path
     style="fill:#000000;stroke:none;stroke-width:1px;stroke-linecap:butt;stroke-linejoin:miter;stroke-opacity:1;fill-opacity:1"
     d="M 210.40414,262.11705 C 210.40414,262.11705 207.26378,264.36016 229.2463,258.97669 251.22882,253.59322 283.08104,246.41525 285.32416,247.3125 287.56727,248.20974 292.95075,241.92902 292.95075,241.92902 292.95075,241.92902 309.10117,247.76112 306.85806,253.59322 304.61494,259.42531 303.26907,258.52807 296.53973,272.884 289.81039,287.23993 285.32416,296.66101 284.42691,302.49311 283.52967,308.32521 275.00583,309.67108 274.55721,308.77383 274.10859,307.87659 274.10859,299.80137 275.00583,296.21239 275.90308,292.62341 285.77278,270.19226 287.56727,263.91154 289.36176,257.63082 288.0159,249.10699 278.59481,251.3501 269.17373,253.59322 244.05085,259.42531 233.2839,265.25741 222.51695,271.08951 218.03072,275.57574 216.23623,273.33262 214.44174,271.08951 206.81515,262.56567 210.40414,262.11705 Z"
     id="path4532"
     inkscape:connector-curvature="0" />
  <path
     style="fill:#000000;stroke:none;stroke-width:1px;stroke-linecap:butt;stroke-linejoin:miter;stroke-opacity:1;fill-opacity:1"
     d="M 190.66473,265.70603 C 190.66473,265.70603 205.46928,268.84639 210.40414,276.47298 215.33899,284.09957 214.89036,284.99682 215.33899,291.27754 215.78761,297.55826 215.78761,304.2876 216.23623,309.67108 216.68486,315.05455 216.23623,315.50317 215.33899,318.64353 214.44174,321.78389 205.02066,321.33527 205.02066,311.91419 205.02066,302.49311 205.46928,289.48305 197.84269,277.81885 190.21611,266.15466 190.66473,265.70603 190.66473,265.70603 Z"
     id="path4534"
     inkscape:connector-curvature="0" />
  <path
     style="fill:#000000;stroke:none;stroke-width:1px;stroke-linecap:butt;stroke-linejoin:miter;stroke-opacity:1;fill-opacity:1"
     d="M 218.92797,282.30508 C 218.92797,282.30508 231.93803,280.95921 239.56462,278.26747 247.19121,275.57574 256.16367,270.19226 262.89301,268.39777 269.62236,266.60328 278.14619,270.19226 278.14619,270.19226 278.14619,270.19226 279.04344,276.92161 277.24895,276.92161 275.45445,276.92161 263.34164,274.22987 256.16367,277.81885 248.9857,281.40783 232.83528,288.5858 232.83528,288.5858 232.83528,288.5858 218.47935,291.27754 218.92797,282.30508 Z"
     id="path4536"
     inkscape:connector-curvature="0" />
  <path
     style="fill:#000000;stroke:none;stroke-width:1px;stroke-linecap:butt;stroke-linejoin:miter;stroke-opacity:1;fill-opacity:1"
     d="M 243.15361,191.68326 C 243.15361,191.68326 253.92056,188.99152 257.06092,191.68326 260.20128,194.37499 265.58475,195.72086 264.23888,198.4126 262.89301,201.10434 257.95816,198.86122 258.40678,206.93643 258.85541,215.01165 257.95816,193.47775 255.26642,236.99417 252.57469,280.51059 253.02331,233.40519 250.33157,325.37288 247.63984,417.34057 248.53708,425.41578 248.53708,425.41578 248.53708,425.41578 247.63984,434.38824 244.9481,432.14513 242.25636,429.90201 235.52702,418.68644 234.62977,415.9947 233.73253,413.30296 240.01325,411.9571 240.01325,411.9571 240.01325,411.9571 236.87289,424.96716 240.46187,389.97457 244.05085,354.98199 246.74259,245.518 246.74259,245.518 L 247.19121,224.88135 248.08846,198.86122 C 248.08846,198.86122 242.25636,193.47775 243.15361,191.68326 Z"
     id="path4538"
     inkscape:connector-curvature="0" />
  <path
     style="fill:#000000;stroke:none;stroke-width:1px;stroke-linecap:butt;stroke-linejoin:miter;stroke-opacity:1;fill-opacity:1"
     d="M 205.46928,309.22245 C 205.46928,309.22245 209.50689,328.06462 212.19863,324.92425 214.89036,321.78389 214.89036,317.74629 224.76007,314.60593 234.62977,311.46557 244.49947,308.77383 256.61229,306.08209 268.72511,303.39036 274.10859,307.87659 276.3517,308.32521 278.59481,308.77383 289.36176,305.63347 289.36176,305.63347 L 292.50212,302.49311 C 292.50212,302.49311 288.46452,297.10964 283.08104,296.66101 277.69757,296.21239 277.69757,295.31514 256.16367,300.69862 234.62977,306.08209 222.51695,307.87659 222.51695,307.87659 222.51695,307.87659 218.47935,307.87659 214.89036,306.53072 211.30138,305.18485 203.22617,302.49311 205.46928,309.22245 Z"
     id="path4540"
     inkscape:connector-curvature="0" />
  <path
     style="fill:#000000;stroke:none;stroke-width:1px;stroke-linecap:butt;stroke-linejoin:miter;stroke-opacity:1;fill-opacity:1"
     d="M 146.25106,335.6912 C 146.25106,335.6912 148.9428,340.62606 172.71981,336.58845 196.49683,332.55084 241.80774,328.06462 243.15361,327.61599 244.49947,327.16737 288.0159,321.78389 288.0159,321.78389 288.0159,321.78389 305.51219,320.88665 308.20393,319.09216 310.89566,317.29767 331.08369,323.57839 334.67268,328.51324 338.26166,333.44809 339.60753,338.38294 335.56992,337.4857 331.53232,336.58845 322.11123,333.44809 312.69015,331.20498 303.26907,328.96186 309.10117,325.8215 277.24895,328.96186 245.39672,332.10222 215.78761,333.44809 196.94545,338.38294 178.10329,343.31779 163.29873,350.94438 159.26113,351.39301 155.22352,351.84163 144.00795,341.5233 146.25106,335.6912 Z"
     id="path4542"
     inkscape:connector-curvature="0" />
</svg>
