<?xml version="1.0" encoding="UTF-8" standalone="no"?>
<!-- Created with Inkscape (http://www.inkscape.org/) -->

<svg
   xmlns:dc="http://purl.org/dc/elements/1.1/"
   xmlns:cc="http://creativecommons.org/ns#"
   xmlns:rdf="http://www.w3.org/1999/02/22-rdf-syntax-ns#"
   xmlns:svg="http://www.w3.org/2000/svg"
   xmlns="http://www.w3.org/2000/svg"
   xmlns:sodipodi="http://sodipodi.sourceforge.net/DTD/sodipodi-0.dtd"
   xmlns:inkscape="http://www.inkscape.org/namespaces/inkscape"
   version="1.1"
   id="svg815"
   width="512"
   height="511"
   viewBox="0 0 512 511"
   sodipodi:docname="陪.svg"
   inkscape:version="0.92.2 (5c3e80d, 2017-08-06)">
  <metadata
     id="metadata821">
    <rdf:RDF>
      <cc:Work
         rdf:about="">
        <dc:format>image/svg+xml</dc:format>
        <dc:type
           rdf:resource="http://purl.org/dc/dcmitype/StillImage" />
        <dc:title></dc:title>
      </cc:Work>
    </rdf:RDF>
  </metadata>
  <defs
     id="defs819">
    <inkscape:tag
       id="Set 1" />
  </defs>
  <sodipodi:namedview
     pagecolor="#ffffff"
     bordercolor="#666666"
     borderopacity="1"
     objecttolerance="10"
     gridtolerance="10"
     guidetolerance="10"
     inkscape:pageopacity="0"
     inkscape:pageshadow="2"
     inkscape:window-width="1122"
     inkscape:window-height="991"
     id="namedview817"
     showgrid="false"
     inkscape:zoom="1.050338"
     inkscape:cx="247.84766"
     inkscape:cy="295.69736"
     inkscape:window-x="-7"
     inkscape:window-y="0"
     inkscape:window-maximized="0"
     inkscape:current-layer="svg815" />
  <path
     style="fill:#000000;stroke:none;stroke-width:1px;stroke-linecap:butt;stroke-linejoin:miter;stroke-opacity:1;fill-opacity:1"
     d="M 125.67383,212.04861 C 125.67383,212.04861 140.90702,226.32973 139.95495,235.85047 139.00287,245.37122 134.2425,309.16021 134.2425,309.16021 L 130.4342,352.95564 C 130.4342,352.95564 126.62591,357.71601 124.72176,372.9492 122.81761,388.18239 127.57798,400.55936 127.57798,400.55936 127.57798,400.55936 134.2425,412.93633 134.2425,399.60729 134.2425,386.27824 139.00287,380.5658 138.0508,352.00356 137.09873,323.44133 145.6674,240.61085 148.52362,236.80255 151.37984,232.99425 132.33835,203.47994 125.67383,212.04861 Z"
     id="path827"
     inkscape:connector-curvature="0" />
  <path
     style="fill:#000000;stroke:none;stroke-width:1px;stroke-linecap:butt;stroke-linejoin:miter;stroke-opacity:1;fill-opacity:1"
     d="M 121.86553,175.86978 C 121.86553,175.86978 137.09873,186.3426 148.52362,179.67808 159.94851,173.01356 182.7983,163.49281 185.65452,157.78037 188.51075,152.06792 199.93564,149.2117 206.60016,154.92414 213.26468,160.63659 221.83335,175.86978 221.83335,175.86978 221.83335,175.86978 216.12091,184.43845 212.31261,182.5343 208.50431,180.63016 193.27112,185.39053 193.27112,185.39053 193.27112,185.39053 189.46282,201.57579 181.84623,212.04861 174.22963,222.52143 167.56511,230.13803 167.56511,230.13803 167.56511,230.13803 191.36697,243.46707 192.31905,249.17952 193.27112,254.89196 198.03149,271.07723 198.03149,271.07723 198.03149,271.07723 195.17527,289.16665 190.4149,288.21457 185.65452,287.2625 171.37341,273.93345 165.66096,271.07723 159.94851,268.22101 152.33192,266.31686 152.33192,266.31686 L 178.99,257.74819 C 178.99,257.74819 173.27756,242.515 168.51718,240.61085 163.75681,238.7067 157.09229,230.13803 157.09229,230.13803 L 166.61303,213.00069 170.42133,201.57579 C 170.42133,201.57579 171.37341,191.10298 148.52362,201.57579 125.67383,212.04861 131.38628,206.33617 127.57798,199.67164 123.76968,193.00712 118.05724,185.39053 121.86553,175.86978 Z"
     id="path829"
     inkscape:connector-curvature="0" />
  <path
     style="fill:#000000;stroke:none;stroke-width:1px;stroke-linecap:butt;stroke-linejoin:miter;stroke-opacity:1;fill-opacity:1"
     d="M 271.34123,131.12228 C 271.34123,131.12228 305.61591,133.97851 308.47213,146.35547 311.32836,158.73244 301.80761,173.96563 301.80761,173.96563 L 298.95139,187.29468 C 298.95139,187.29468 288.47857,193.00712 286.57442,174.91771 284.67027,156.82829 279.9099,133.02643 271.34123,131.12228 Z"
     id="path831"
     inkscape:connector-curvature="0" />
  <path
     style="fill:#000000;stroke:none;stroke-width:1px;stroke-linecap:butt;stroke-linejoin:miter;stroke-opacity:1;fill-opacity:1"
     d="M 231.3541,184.43845 C 231.3541,184.43845 226.59373,192.05505 257.06011,186.3426 287.52649,180.63016 329.41777,175.86978 343.69889,170.15734 357.98,164.44489 375.11735,165.39696 375.11735,172.06148 375.11735,178.72601 371.30905,185.39053 352.26756,186.3426 333.22607,187.29468 272.2933,198.71957 272.2933,198.71957 272.2933,198.71957 264.67671,213.00069 249.44351,210.14446 234.21032,207.28824 219.92921,193.00712 231.3541,184.43845 Z"
     id="path833"
     inkscape:connector-curvature="0" />
  <path
     style="fill:#000000;stroke:none;stroke-width:1px;stroke-linecap:butt;stroke-linejoin:miter;stroke-opacity:1;fill-opacity:1"
     d="M 295.14309,201.57579 C 295.14309,201.57579 302.75969,213.95276 299.90346,230.13803 297.04724,246.32329 301.80761,255.84404 301.80761,255.84404 301.80761,255.84404 315.13665,252.98782 318.94495,231.0901 322.75325,209.19239 321.80117,208.24031 321.80117,208.24031 321.80117,208.24031 297.99931,192.05505 295.14309,201.57579 Z"
     id="path835"
     inkscape:connector-curvature="0" />
  <path
     style="fill:#000000;stroke:none;stroke-width:1px;stroke-linecap:butt;stroke-linejoin:miter;stroke-opacity:1;fill-opacity:1"
     d="M 248.49144,230.13803 C 248.49144,230.13803 265.62878,247.27537 269.43708,253.93989 273.24538,260.60441 288.47857,258.70026 284.67027,253.93989 280.86197,249.17952 274.19745,236.80255 266.58085,232.99425 258.96426,229.18595 256.10804,225.37766 248.49144,230.13803 Z"
     id="path837"
     inkscape:connector-curvature="0" />
  <path
     style="fill:#000000;stroke:none;stroke-width:1px;stroke-linecap:butt;stroke-linejoin:miter;stroke-opacity:1;fill-opacity:1"
     d="M 182.7983,270.12516 C 182.7983,270.12516 196.12734,267.26893 221.83335,259.65234 247.53937,252.03574 286.57442,245.37122 286.57442,245.37122 L 353.21963,237.75462 C 353.21963,237.75462 388.44639,235.85047 391.30261,232.99425 394.15884,230.13803 418.91277,230.13803 418.91277,231.0901 418.91277,232.04218 428.43352,240.61085 428.43352,240.61085 L 419.86485,252.03574 C 419.86485,252.03574 386.54224,243.46707 363.69245,246.32329 340.84266,249.17952 277.05367,255.84404 258.96426,260.60441 240.87484,265.36478 199.93564,282.50212 195.17527,283.4542 190.4149,284.40627 177.08585,277.74175 182.7983,270.12516 Z"
     id="path839"
     inkscape:connector-curvature="0" />
  <path
     style="fill:#000000;stroke:none;stroke-width:1px;stroke-linecap:butt;stroke-linejoin:miter;stroke-opacity:1;fill-opacity:1"
     d="M 216.12091,289.16665 C 216.12091,289.16665 238.97069,309.16021 242.77899,319.63303 246.58729,330.10585 248.49144,351.05149 248.49144,351.05149 L 250.39559,358.66808 C 250.39559,358.66808 261.82048,355.81186 259.91633,346.29111 258.01218,336.77037 258.96426,312.01643 253.25181,308.20814 247.53937,304.39984 233.25825,285.35835 223.7375,289.16665 214.21676,292.97494 216.12091,289.16665 216.12091,289.16665 Z"
     id="path841"
     inkscape:connector-curvature="0" />
  <path
     style="fill:#000000;stroke:none;stroke-width:1px;stroke-linecap:butt;stroke-linejoin:miter;stroke-opacity:1;fill-opacity:1"
     d="M 254.20389,288.21457 C 254.20389,288.21457 283.7182,289.16665 293.23894,285.35835 302.75969,281.55005 320.8491,276.78968 320.8491,276.78968 L 326.56155,270.12516 C 326.56155,270.12516 355.12378,274.88553 351.31548,283.4542 347.50719,292.02287 347.50719,294.87909 347.50719,294.87909 347.50719,294.87909 342.74681,302.49569 337.98644,322.48925 333.22607,342.48282 323.70532,350.09941 318.94495,346.29111 314.18458,342.48282 307.52006,334.86622 314.18458,318.68095 320.8491,302.49569 325.60947,296.78324 319.89703,292.02287 314.18458,287.2625 284.67027,302.49569 280.86197,305.35191 277.05367,308.20814 240.87484,295.83117 254.20389,288.21457 Z"
     id="path843"
     inkscape:connector-curvature="0" />
  <path
     style="fill:#000000;stroke:none;stroke-width:1px;stroke-linecap:butt;stroke-linejoin:miter;stroke-opacity:1;fill-opacity:1"
     d="M 248.49144,351.05149 C 248.49144,351.05149 275.14953,340.57867 291.33479,334.86622 307.52006,329.15377 322.75325,324.3934 328.4657,328.2017 334.17814,332.01 344.65096,340.57867 344.65096,340.57867 344.65096,340.57867 342.74681,340.57867 324.6574,342.48282 306.56798,344.38697 278.00575,352.00356 278.00575,352.00356 278.00575,352.00356 241.82692,370.09298 248.49144,351.05149 Z"
     id="path845"
     inkscape:connector-curvature="0" />
  <g
     inkscape:groupmode="layer"
     id="layer1"
     inkscape:label="Layer 1" />
</svg>
