<?xml version="1.0" encoding="UTF-8" standalone="no"?>
<!-- Created with Inkscape (http://www.inkscape.org/) -->

<svg
   xmlns:dc="http://purl.org/dc/elements/1.1/"
   xmlns:cc="http://creativecommons.org/ns#"
   xmlns:rdf="http://www.w3.org/1999/02/22-rdf-syntax-ns#"
   xmlns:svg="http://www.w3.org/2000/svg"
   xmlns="http://www.w3.org/2000/svg"
   xmlns:sodipodi="http://sodipodi.sourceforge.net/DTD/sodipodi-0.dtd"
   xmlns:inkscape="http://www.inkscape.org/namespaces/inkscape"
   version="1.1"
   id="svg815"
   width="512"
   height="511"
   viewBox="0 0 512 511"
   sodipodi:docname="U+966A.svg"
   inkscape:version="0.92.2 (5c3e80d, 2017-08-06)">
  <metadata
     id="metadata821">
    <rdf:RDF>
      <cc:Work
         rdf:about="">
        <dc:format>image/svg+xml</dc:format>
        <dc:type
           rdf:resource="http://purl.org/dc/dcmitype/StillImage" />
        <dc:title />
      </cc:Work>
    </rdf:RDF>
  </metadata>
  <defs
     id="defs819">
    <inkscape:tag
       id="Set 1" />
  </defs>
  <sodipodi:namedview
     pagecolor="#ffffff"
     bordercolor="#666666"
     borderopacity="1"
     objecttolerance="10"
     gridtolerance="10"
     guidetolerance="10"
     inkscape:pageopacity="0"
     inkscape:pageshadow="2"
     inkscape:window-width="1920"
     inkscape:window-height="1001"
     id="namedview817"
     showgrid="false"
     inkscape:zoom="1.050338"
     inkscape:cx="91.231409"
     inkscape:cy="295.69736"
     inkscape:window-x="-9"
     inkscape:window-y="-9"
     inkscape:window-maximized="1"
     inkscape:current-layer="svg815" />
  <path
     style="fill:#000000;fill-opacity:1;stroke:none;stroke-width:1.10457385px;stroke-linecap:butt;stroke-linejoin:miter;stroke-opacity:1"
     d="M 114.78149,201.42255 C 114.78149,201.42255 131.61659,217.18875 130.5644,227.69954 129.5122,238.21034 124.25123,308.63267 124.25123,308.63267 L 120.04246,356.98234 C 120.04246,356.98234 115.83369,362.23773 113.7293,379.05501 111.62491,395.87228 116.88588,409.53631 116.88588,409.53631 116.88588,409.53631 124.25123,423.20035 124.25123,408.48524 124.25123,393.77012 129.5122,387.46365 128.46001,355.93125 127.40782,324.39887 136.87757,232.95494 140.03415,228.75062 143.19072,224.5463 122.14684,191.96283 114.78149,201.42255 Z"
     id="path827"
     inkscape:connector-curvature="0" />
  <path
     style="fill:#000000;fill-opacity:1;stroke:none;stroke-width:1.10457385px;stroke-linecap:butt;stroke-linejoin:miter;stroke-opacity:1"
     d="M 110.57271,161.48153 C 110.57271,161.48153 127.40782,173.0434 140.03415,165.68585 152.66047,158.32829 177.91312,147.81749 181.0697,141.51102 184.22629,135.20454 196.85261,132.0513 204.21797,138.35777 211.58333,144.66425 221.05307,161.48153 221.05307,161.48153 221.05307,161.48153 214.73992,170.94124 210.53114,168.83908 206.32236,166.73693 189.48726,171.99233 189.48726,171.99233 189.48726,171.99233 185.27848,189.86067 176.86094,201.42255 168.44338,212.98443 161.07802,221.39307 161.07802,221.39307 161.07802,221.39307 187.38287,236.10818 188.43507,242.41466 189.48726,248.72113 194.74823,266.58949 194.74823,266.58949 194.74823,266.58949 191.59165,286.56001 186.33068,285.50892 181.0697,284.45785 165.2868,269.74272 158.97364,266.58949 152.66047,263.43625 144.24292,261.33409 144.24292,261.33409 L 173.70435,251.87438 C 173.70435,251.87438 167.39119,235.05711 162.13021,232.95494 156.86925,230.85278 149.50389,221.39307 149.50389,221.39307 L 160.02582,202.47364 164.2346,189.86067 C 164.2346,189.86067 165.2868,178.29881 140.03415,189.86067 114.78149,201.42255 121.09466,195.11608 116.88588,187.75851 112.6771,180.40096 106.36394,171.99233 110.57271,161.48153 Z"
     id="path829"
     inkscape:connector-curvature="0" />
  <path
     style="fill:#000000;fill-opacity:1;stroke:none;stroke-width:1.10457385px;stroke-linecap:butt;stroke-linejoin:miter;stroke-opacity:1"
     d="M 275.76716,112.08079 C 275.76716,112.08079 313.64614,115.23403 316.80272,128.89806 319.95931,142.56209 309.43737,159.37937 309.43737,159.37937 L 306.28079,174.09449 C 306.28079,174.09449 294.70665,180.40096 292.60226,160.43045 290.49788,140.45993 285.23691,114.18295 275.76716,112.08079 Z"
     id="path831"
     inkscape:connector-curvature="0" />
  <path
     style="fill:#000000;fill-opacity:1;stroke:none;stroke-width:1.10457385px;stroke-linecap:butt;stroke-linejoin:miter;stroke-opacity:1"
     d="M 231.57502,170.94124 C 231.57502,170.94124 226.31405,179.34988 259.98425,173.0434 293.65445,166.73693 339.95099,161.48153 355.7339,155.17506 371.5168,148.86858 390.4563,149.91965 390.4563,157.27721 390.4563,164.63477 386.24753,171.99233 365.20365,173.0434 344.15977,174.09449 276.81935,186.70744 276.81935,186.70744 276.81935,186.70744 268.40181,202.47364 251.5667,199.32039 234.73159,196.16716 218.94869,180.40096 231.57502,170.94124 Z"
     id="path833"
     inkscape:connector-curvature="0" />
  <path
     style="fill:#000000;fill-opacity:1;stroke:none;stroke-width:1.10457385px;stroke-linecap:butt;stroke-linejoin:miter;stroke-opacity:1"
     d="M 302.07201,189.86067 C 302.07201,189.86067 310.48957,203.52471 307.33298,221.39307 304.1764,239.26141 309.43737,249.77222 309.43737,249.77222 309.43737,249.77222 324.16808,246.61898 328.37686,222.44414 332.58563,198.26932 331.53343,197.21823 331.53343,197.21823 331.53343,197.21823 305.22859,179.34988 302.07201,189.86067 Z"
     id="path835"
     inkscape:connector-curvature="0" />
  <path
     style="fill:#000000;fill-opacity:1;stroke:none;stroke-width:1.10457385px;stroke-linecap:butt;stroke-linejoin:miter;stroke-opacity:1"
     d="M 250.51451,221.39307 C 250.51451,221.39307 269.454,240.3125 273.66277,247.67006 277.87155,255.02761 294.70665,252.92545 290.49788,247.67006 286.2891,242.41466 278.92374,228.75062 270.50619,224.5463 262.08864,220.34198 258.93206,216.13767 250.51451,221.39307 Z"
     id="path837"
     inkscape:connector-curvature="0" />
  <path
     style="fill:#000000;fill-opacity:1;stroke:none;stroke-width:1.10457385px;stroke-linecap:butt;stroke-linejoin:miter;stroke-opacity:1"
     d="M 177.91312,265.53841 C 177.91312,265.53841 192.64384,262.38517 221.05307,253.97654 249.46232,245.5679 292.60226,238.21034 292.60226,238.21034 L 366.25584,229.8017 C 366.25584,229.8017 405.18702,227.69954 408.34359,224.5463 411.50018,221.39307 438.85722,221.39307 438.85722,222.44414 438.85722,223.49523 449.37916,232.95494 449.37916,232.95494 L 439.90942,245.5679 C 439.90942,245.5679 403.08263,236.10818 377.82997,239.26141 352.57731,242.41466 282.08032,249.77222 262.08864,255.02761 242.09695,260.28301 196.85261,279.20244 191.59165,280.25352 186.33068,281.3046 171.59996,273.94704 177.91312,265.53841 Z"
     id="path839"
     inkscape:connector-curvature="0" />
  <path
     style="fill:#000000;fill-opacity:1;stroke:none;stroke-width:1.10457385px;stroke-linecap:butt;stroke-linejoin:miter;stroke-opacity:1"
     d="M 214.73992,286.56001 C 214.73992,286.56001 239.99256,308.63267 244.20134,320.19455 248.41012,331.75643 250.51451,354.88018 250.51451,354.88018 L 252.6189,363.28881 C 252.6189,363.28881 265.24522,360.13557 263.14083,349.62477 261.03644,339.11398 262.08864,311.78591 255.77547,307.5816 249.46232,303.37728 233.67941,282.35569 223.15746,286.56001 212.63553,290.76432 214.73992,286.56001 214.73992,286.56001 Z"
     id="path841"
     inkscape:connector-curvature="0" />
  <path
     style="fill:#000000;fill-opacity:1;stroke:none;stroke-width:1.10457385px;stroke-linecap:butt;stroke-linejoin:miter;stroke-opacity:1"
     d="M 256.82767,285.50892 C 256.82767,285.50892 289.44569,286.56001 299.96762,282.35569 310.48957,278.15136 330.48124,272.89597 330.48124,272.89597 L 336.79441,265.53841 C 336.79441,265.53841 368.36022,270.79381 364.15145,280.25352 359.94268,289.71324 359.94268,292.86648 359.94268,292.86648 359.94268,292.86648 354.6817,301.27512 349.42073,323.34778 344.15977,345.42046 333.63782,353.82909 328.37686,349.62477 323.11589,345.42046 315.75053,337.01182 323.11589,319.14346 330.48124,301.27512 335.74221,294.96864 329.42906,289.71324 323.11589,284.45785 290.49788,301.27512 286.2891,304.42835 282.08032,307.5816 242.09695,293.91756 256.82767,285.50892 Z"
     id="path843"
     inkscape:connector-curvature="0" />
  <path
     style="fill:#000000;fill-opacity:1;stroke:none;stroke-width:1.10457385px;stroke-linecap:butt;stroke-linejoin:miter;stroke-opacity:1"
     d="M 250.51451,354.88018 C 250.51451,354.88018 279.97594,343.3183 297.86323,337.01182 315.75053,330.70534 332.58563,325.44994 338.8988,329.65427 345.21196,333.85859 356.78609,343.3183 356.78609,343.3183 356.78609,343.3183 354.6817,343.3183 334.69002,345.42046 314.69833,347.52262 283.13252,355.93125 283.13252,355.93125 283.13252,355.93125 243.14915,375.90177 250.51451,354.88018 Z"
     id="path845"
     inkscape:connector-curvature="0" />
  <g
     inkscape:groupmode="layer"
     id="layer1"
     inkscape:label="Layer 1" />
</svg>
