<?xml version="1.0" encoding="UTF-8" standalone="no"?>
<!-- Created with Inkscape (http://www.inkscape.org/) -->

<svg
   xmlns:dc="http://purl.org/dc/elements/1.1/"
   xmlns:cc="http://creativecommons.org/ns#"
   xmlns:rdf="http://www.w3.org/1999/02/22-rdf-syntax-ns#"
   xmlns:svg="http://www.w3.org/2000/svg"
   xmlns="http://www.w3.org/2000/svg"
   xmlns:sodipodi="http://sodipodi.sourceforge.net/DTD/sodipodi-0.dtd"
   xmlns:inkscape="http://www.inkscape.org/namespaces/inkscape"
   version="1.1"
   id="svg815"
   width="512"
   height="512"
   viewBox="0 0 512 512"
   sodipodi:docname="U+9AD8.svg"
   inkscape:version="0.92.2 (5c3e80d, 2017-08-06)">
  <metadata
     id="metadata821">
    <rdf:RDF>
      <cc:Work
         rdf:about="">
        <dc:format>image/svg+xml</dc:format>
        <dc:type
           rdf:resource="http://purl.org/dc/dcmitype/StillImage" />
        <dc:title />
      </cc:Work>
    </rdf:RDF>
  </metadata>
  <defs
     id="defs819" />
  <sodipodi:namedview
     pagecolor="#ffffff"
     bordercolor="#666666"
     borderopacity="1"
     objecttolerance="10"
     gridtolerance="10"
     guidetolerance="10"
     inkscape:pageopacity="0"
     inkscape:pageshadow="2"
     inkscape:window-width="1920"
     inkscape:window-height="1001"
     id="namedview817"
     showgrid="false"
     inkscape:zoom="1.19"
     inkscape:cx="256"
     inkscape:cy="187.50551"
     inkscape:window-x="-9"
     inkscape:window-y="-9"
     inkscape:window-maximized="1"
     inkscape:current-layer="svg815" />
  <path
     style="fill:#000000;fill-opacity:1;stroke:none;stroke-width:1.24076712px;stroke-linecap:butt;stroke-linejoin:miter;stroke-opacity:1"
     d="M 229.60267,105.60619 C 229.60267,105.60619 263.73795,101.0698 272.54706,109.00849 281.35616,116.94718 276.95161,131.69046 276.95161,131.69046 L 265.94022,148.70194 C 265.94022,148.70194 251.62543,129.42227 252.72657,122.61767 253.82771,115.81308 207.57991,121.48358 229.60267,105.60619 Z"
     id="path825"
     inkscape:connector-curvature="0" />
  <path
     style="fill:#000000;fill-opacity:1;stroke:none;stroke-width:1.24076712px;stroke-linecap:butt;stroke-linejoin:miter;stroke-opacity:1"
     d="M 124.99455,158.90884 186.65829,152.10424 337.5142,128.28817 354.03127,122.61767 396.97566,137.36096 401.3802,148.70194 C 401.3802,148.70194 348.52559,132.82456 329.80624,136.22686 311.08689,139.62915 213.0856,155.50653 213.0856,155.50653 213.0856,155.50653 171.24236,163.44522 164.63552,172.51802 158.0287,181.59081 119.48888,164.57933 124.99455,158.90884 Z"
     id="path827"
     inkscape:connector-curvature="0" />
  <path
     style="fill:#000000;fill-opacity:1;stroke:none;stroke-width:1.24076712px;stroke-linecap:butt;stroke-linejoin:miter;stroke-opacity:1"
     d="M 131.60138,293.86659 C 131.60138,293.86659 144.81504,317.68266 147.01732,330.15775 149.21959,342.63283 150.32073,364.18071 150.32073,364.18071 L 163.53439,381.1922 C 163.53439,381.1922 170.14121,381.1922 166.8378,347.16923 163.53439,313.14627 155.82641,287.062 141.51162,288.1961 127.19682,289.33019 131.60138,293.86659 131.60138,293.86659 Z"
     id="path829"
     inkscape:connector-curvature="0" />
  <path
     style="fill:#000000;fill-opacity:1;stroke:none;stroke-width:1.24076712px;stroke-linecap:butt;stroke-linejoin:miter;stroke-opacity:1"
     d="M 200.97308,162.31113 C 200.97308,162.31113 211.98446,174.78622 214.18674,191.79769 216.38901,208.80918 213.0856,241.69804 213.0856,241.69804 L 208.68104,255.30723 C 208.68104,255.30723 214.18674,270.05051 214.18674,272.31872 214.18674,274.58691 219.69243,282.5256 222.99584,262.11182 226.29925,241.69804 229.60267,196.33409 229.60267,196.33409 229.60267,196.33409 232.90608,183.859 224.09698,170.24982 215.28788,156.64064 215.28788,135.09275 200.97308,162.31113 Z"
     id="path831"
     inkscape:connector-curvature="0" />
  <path
     style="fill:#000000;fill-opacity:1;stroke:none;stroke-width:1.24076712px;stroke-linecap:butt;stroke-linejoin:miter;stroke-opacity:1"
     d="M 232.90608,183.859 252.72657,178.18852 265.94022,183.859 243.91747,197.46819 C 243.91747,197.46819 229.60267,196.33409 229.60267,196.33409 Z"
     id="path833"
     inkscape:connector-curvature="0" />
  <path
     style="fill:#000000;fill-opacity:1;stroke:none;stroke-width:1.24076712px;stroke-linecap:butt;stroke-linejoin:miter;stroke-opacity:1"
     d="M 225.19812,229.22296 249.42316,225.82066 250.52429,236.02756 231.80494,245.10034 C 231.80494,245.10034 206.47877,230.35706 225.19812,229.22296 Z"
     id="path835"
     inkscape:connector-curvature="0" />
  <path
     style="fill:#000000;fill-opacity:1;stroke:none;stroke-width:1.24076712px;stroke-linecap:butt;stroke-linejoin:miter;stroke-opacity:1"
     d="M 276.95161,131.69046 C 276.95161,131.69046 298.97437,140.76325 295.67096,153.23834 292.36754,165.71343 291.26641,186.12721 286.86185,203.13869 282.4573,220.15016 282.4573,254.17313 282.4573,254.17313 L 273.64819,266.64822 C 273.64819,266.64822 267.04137,256.44133 268.1425,247.36854 269.24364,238.29575 272.54706,226.95476 274.74933,209.94328 276.95161,192.9318 282.4573,153.23834 282.4573,153.23834 L 276.95161,131.69046 C 276.95161,131.69046 260.43453,137.36096 276.95161,131.69046 Z"
     id="path837"
     inkscape:connector-curvature="0" />
  <path
     style="fill:#000000;fill-opacity:1;stroke:none;stroke-width:1.24076712px;stroke-linecap:butt;stroke-linejoin:miter;stroke-opacity:1"
     d="M 166.47339,272.71447 C 166.47339,272.71447 173.66519,292.81935 173.66519,298.11011 173.66519,303.40086 182.91176,306.57532 196.26794,297.05195 209.62411,287.52859 255.85704,279.06338 289.76117,278.00522 323.66531,276.94707 368.87082,272.71447 368.87082,272.71447 368.87082,272.71447 380.1722,271.65631 377.09,289.64489 374.00781,307.63346 363.73383,348.90138 363.73383,348.90138 L 360.65163,359.48289 343.18587,352.07583 H 341.13108 C 341.13108,352.07583 346.26806,370.0644 349.35025,375.35516 352.43245,380.64592 355.51465,396.5182 355.51465,396.5182 355.51465,396.5182 358.59685,402.8671 362.70642,391.22745 366.81603,379.58777 380.1722,355.25028 380.1722,345.72692 380.1722,336.20356 396.61057,284.35414 396.61057,284.35414 396.61057,284.35414 398.66537,266.36555 398.66537,262.13295 398.66537,257.90034 388.39139,248.37698 366.81603,251.55144 345.24066,254.72589 293.87075,262.13295 293.87075,262.13295 293.87075,262.13295 241.47345,270.59817 229.14468,270.59817 216.8159,270.59817 184.96656,276.94707 177.77477,274.83077 170.58299,272.71447 166.47339,272.71447 166.47339,272.71447 Z"
     id="path839"
     inkscape:connector-curvature="0" />
  <path
     style="fill:#000000;fill-opacity:1;stroke:none;stroke-width:1.24076712px;stroke-linecap:butt;stroke-linejoin:miter;stroke-opacity:1"
     d="M 204.48713,308.69162 C 204.48713,308.69162 217.8433,327.73835 217.8433,338.31986 217.8433,348.90138 220.9255,369.00626 220.9255,369.00626 L 230.17207,365.8318 C 230.17207,365.8318 225.03508,338.31986 227.08987,329.85465 229.14468,321.38943 208.59671,298.11011 204.48713,308.69162 Z"
     id="path841"
     inkscape:connector-curvature="0" />
  <path
     style="fill:#000000;fill-opacity:1;stroke:none;stroke-width:1.24076712px;stroke-linecap:butt;stroke-linejoin:miter;stroke-opacity:1"
     d="M 225.03508,352.07583 267.1584,347.84322 C 267.1584,347.84322 276.40499,343.61062 285.65157,344.66878 294.89815,345.72692 301.06255,354.19213 301.06255,354.19213 301.06255,354.19213 286.67897,356.30843 275.37759,356.30843 264.07622,356.30843 230.17207,365.8318 230.17207,365.8318 Z"
     id="path843"
     inkscape:connector-curvature="0" />
  <path
     style="fill:#000000;fill-opacity:1;stroke:none;stroke-width:1.24076712px;stroke-linecap:butt;stroke-linejoin:miter;stroke-opacity:1"
     d="M 233.25427,305.51716 C 233.25427,305.51716 264.07622,306.57532 268.18581,305.51716 272.2954,304.45901 279.48719,300.22641 279.48719,300.22641 L 288.73377,293.87749 308.25434,301.28455 302.08994,320.33129 293.87075,344.66878 290.78858,352.07583 277.43239,349.95953 284.62418,313.98238 277.43239,310.80792 C 277.43239,310.80792 253.80223,327.73835 244.55565,323.50573 235.30906,319.27313 221.95289,307.63346 233.25427,305.51716 Z"
     id="path845"
     inkscape:connector-curvature="0" />
</svg>
