<?xml version="1.0" encoding="UTF-8" standalone="no"?>
<!-- Created with Inkscape (http://www.inkscape.org/) -->

<svg
   xmlns:dc="http://purl.org/dc/elements/1.1/"
   xmlns:cc="http://creativecommons.org/ns#"
   xmlns:rdf="http://www.w3.org/1999/02/22-rdf-syntax-ns#"
   xmlns:svg="http://www.w3.org/2000/svg"
   xmlns="http://www.w3.org/2000/svg"
   xmlns:sodipodi="http://sodipodi.sourceforge.net/DTD/sodipodi-0.dtd"
   xmlns:inkscape="http://www.inkscape.org/namespaces/inkscape"
   version="1.1"
   id="svg815"
   width="512"
   height="512"
   viewBox="0 0 512 512"
   sodipodi:docname="驅.svg"
   inkscape:version="0.92.2 (5c3e80d, 2017-08-06)">
  <metadata
     id="metadata821">
    <rdf:RDF>
      <cc:Work
         rdf:about="">
        <dc:format>image/svg+xml</dc:format>
        <dc:type
           rdf:resource="http://purl.org/dc/dcmitype/StillImage" />
        <dc:title></dc:title>
      </cc:Work>
    </rdf:RDF>
  </metadata>
  <defs
     id="defs819">
    <inkscape:tag
       id="Set 1" />
  </defs>
  <sodipodi:namedview
     pagecolor="#ffffff"
     bordercolor="#666666"
     borderopacity="1"
     objecttolerance="10"
     gridtolerance="10"
     guidetolerance="10"
     inkscape:pageopacity="0"
     inkscape:pageshadow="2"
     inkscape:window-width="1920"
     inkscape:window-height="1001"
     id="namedview817"
     showgrid="false"
     inkscape:zoom="1.5761719"
     inkscape:cx="256"
     inkscape:cy="256"
     inkscape:window-x="-9"
     inkscape:window-y="-9"
     inkscape:window-maximized="1"
     inkscape:current-layer="svg815" />
  <path
     style="fill:#000000;stroke:none;stroke-width:1px;stroke-linecap:butt;stroke-linejoin:miter;stroke-opacity:1;fill-opacity:1"
     d="M 145.28872,146.55762 202.3891,132.59975 212.54027,124.98637 226.49814,131.33086 V 143.38538 C 226.49814,143.38538 204.92689,149.72986 201.75465,147.82652 198.5824,145.92317 157.9777,164.32218 157.9777,164.32218 157.9777,164.32218 142.11648,150.99876 145.28872,146.55762 Z"
     id="path4516"
     inkscape:connector-curvature="0" />
  <path
     style="fill:#000000;stroke:none;stroke-width:1px;stroke-linecap:butt;stroke-linejoin:miter;stroke-opacity:1;fill-opacity:1"
     d="M 154.171,190.33457 C 154.171,190.33457 188.43123,182.72119 189.70012,179.54895 190.96902,176.3767 204.92689,189.70012 206.19579,188.43123 207.46468,187.16233 161.14994,199.21685 165.59108,204.29244 170.03222,209.36803 154.171,190.33457 154.171,190.33457 Z"
     id="path4518"
     inkscape:connector-curvature="0" />
  <path
     style="fill:#000000;stroke:none;stroke-width:1px;stroke-linecap:butt;stroke-linejoin:miter;stroke-opacity:1;fill-opacity:1"
     d="M 150.36431,233.47708 C 150.36431,233.47708 191.60347,229.03594 194.14126,225.22924 196.67906,221.42255 206.19579,232.20818 206.19579,232.20818 206.19579,232.20818 167.49442,238.55266 163.05328,249.33829 158.61214,260.12392 164.32218,248.06939 164.32218,248.06939 164.32218,248.06939 148.46097,244.2627 150.36431,233.47708 Z"
     id="path4520"
     inkscape:connector-curvature="0" />
  <path
     style="fill:#000000;stroke:none;stroke-width:1px;stroke-linecap:butt;stroke-linejoin:miter;stroke-opacity:1;fill-opacity:1"
     d="M 181.45229,142.11648 191.60347,164.95663 C 191.60347,164.95663 181.45229,160.51549 178.9145,203.65799 176.3767,246.8005 171.93556,279.15737 178.9145,279.79182 185.89343,280.42627 167.49442,289.943 167.49442,289.943 167.49442,289.943 158.61214,298.19083 163.68773,258.85502 168.76332,219.51921 173.83891,169.39777 171.93556,166.22553 170.03222,163.05328 163.05328,159.24659 162.41884,157.34325 161.78439,155.4399 157.34325,145.28872 157.34325,145.28872 Z"
     id="path4524"
     inkscape:connector-curvature="0" />
  <path
     style="fill:#000000;stroke:none;stroke-width:1px;stroke-linecap:butt;stroke-linejoin:miter;stroke-opacity:1;fill-opacity:1"
     d="M 117.37299,139.57869 C 117.37299,139.57869 117.37299,150.36431 119.91078,152.90211 122.44857,155.4399 131.9653,163.05328 131.9653,163.05328 L 133.2342,199.21685 C 133.2342,199.21685 127.52416,288.6741 131.9653,295.65304 136.40644,302.63197 138.94424,289.943 138.94424,289.943 138.94424,289.943 139.57869,187.79678 141.48203,181.45229 143.38538,175.10781 144.65428,163.68773 144.65428,163.68773 144.65428,163.68773 121.81413,138.30979 119.91078,138.94424 118.00743,139.57869 117.37299,139.57869 117.37299,139.57869 Z"
     id="path4526"
     inkscape:connector-curvature="0" />
  <path
     style="fill:#000000;stroke:none;stroke-width:1px;stroke-linecap:butt;stroke-linejoin:miter;stroke-opacity:1;fill-opacity:1"
     d="M 137.67534,279.79182 C 137.67534,279.79182 181.45229,270.27509 192.87237,267.10285 204.29244,263.93061 213.17472,266.4684 223.3259,271.54399 233.47708,276.61958 234.74597,277.88848 234.74597,277.88848 L 224.5948,301.99752 C 224.5948,301.99752 222.057,340.69888 216.34696,349.58116 210.63693,358.46344 164.95663,393.35812 164.95663,393.35812 L 156.07435,391.45477 C 156.07435,391.45477 150.99876,388.28253 152.90211,380.66914 154.80545,373.05576 160.51549,374.32466 156.07435,361.00124 151.63321,347.67782 162.41884,371.15242 143.38538,334.3544 124.35192,297.55638 123.71747,298.19083 123.71747,298.19083 123.71747,298.19083 145.92317,322.93432 147.19207,326.74102 148.46097,330.54771 170.03222,361.63569 175.74226,362.90458 181.45229,364.17348 189.70012,361.00124 194.77571,355.92565 199.8513,350.85006 210.00248,334.3544 215.71252,310.8798 221.42255,287.4052 226.49814,279.15737 220.15366,275.98513 213.80917,272.81289 204.29244,267.10285 185.89343,278.52292 167.49442,289.943 157.9777,295.65304 157.9777,295.65304 157.9777,295.65304 135.13755,281.69517 137.67534,279.79182 Z"
     id="path4528"
     inkscape:connector-curvature="0" />
  <path
     style="fill:#000000;stroke:none;stroke-width:1px;stroke-linecap:butt;stroke-linejoin:miter;stroke-opacity:1;fill-opacity:1"
     d="M 69.154895,344.50558 C 69.154895,344.50558 80.574969,347.04337 87.553903,342.60223 94.532838,338.16109 118.64188,327.37546 150.99876,312.78315 183.35564,298.19083 186.52788,297.55638 186.52788,297.55638 186.52788,297.55638 177.6456,310.8798 174.47336,312.78315 171.30112,314.68649 128.15861,334.98885 128.15861,334.98885 L 98.973978,356.5601 95.801735,360.36679 C 95.801735,360.36679 85.650558,362.90458 76.133829,352.75341 66.6171,342.60223 69.154895,344.50558 69.154895,344.50558 Z"
     id="path4532"
     inkscape:connector-curvature="0" />
  <path
     style="fill:#000000;stroke:none;stroke-width:1px;stroke-linecap:butt;stroke-linejoin:miter;stroke-opacity:1;fill-opacity:1"
     d="M 244.89715,158.61214 C 244.89715,158.61214 254.41388,164.32218 262.66171,163.68773 270.90954,163.05328 364.17348,144.65428 364.17348,144.65428 364.17348,144.65428 382.57249,138.94424 387.64808,140.84758 392.72367,142.75093 409.21933,147.82652 409.21933,147.82652 409.21933,147.82652 408.58488,149.09542 412.39157,155.4399 416.19827,161.78439 395.26146,158.61214 395.26146,158.61214 395.26146,158.61214 382.57249,150.36431 359.09789,152.26766 335.6233,154.171 288.03965,161.14994 280.42627,166.22553 272.81289,171.30112 263.29616,177.6456 258.85502,178.28005 254.41388,178.9145 244.2627,171.93556 244.89715,164.32218 245.5316,156.7088 244.89715,158.61214 244.89715,158.61214 Z"
     id="path4534"
     inkscape:connector-curvature="0" />
  <path
     style="fill:#000000;stroke:none;stroke-width:1px;stroke-linecap:butt;stroke-linejoin:miter;stroke-opacity:1;fill-opacity:1"
     d="M 282.96406,181.45229 C 282.96406,181.45229 303.26642,210.63693 301.99752,211.90582 300.72862,213.17472 308.34201,200.48575 307.07311,195.41016 305.80421,190.33457 294.38414,178.9145 282.96406,181.45229 Z"
     id="path4536"
     inkscape:connector-curvature="0" />
  <path
     style="fill:#000000;stroke:none;stroke-width:1px;stroke-linecap:butt;stroke-linejoin:miter;stroke-opacity:1;fill-opacity:1"
     d="M 315.95539,179.54895 C 315.95539,179.54895 350.21561,171.93556 352.11896,170.03222 354.0223,168.12887 367.98017,178.9145 367.98017,178.9145 367.98017,178.9145 366.71128,185.25898 363.53903,191.60347 360.36679,197.94796 353.38786,216.98141 353.38786,216.98141 L 352.75341,222.69145 C 352.75341,222.69145 345.77447,227.13259 342.60223,223.3259 339.42999,219.51921 346.40892,203.02354 346.40892,203.02354 346.40892,203.02354 348.31227,194.77571 342.60223,194.77571 336.89219,194.77571 322.93432,197.94796 322.93432,197.94796 322.93432,197.94796 312.1487,178.9145 315.95539,179.54895 Z"
     id="path4549"
     inkscape:connector-curvature="0" />
  <path
     style="fill:#000000;stroke:none;stroke-width:1px;stroke-linecap:butt;stroke-linejoin:miter;stroke-opacity:1;fill-opacity:1"
     d="M 298.82528,224.5948 C 298.82528,224.5948 327.37546,213.80917 334.98885,213.80917 342.60223,213.80917 353.38786,216.98141 353.38786,216.98141 L 361.63569,221.42255 C 361.63569,221.42255 326.74102,227.13259 320.39653,230.93928 314.05204,234.74597 291.84634,227.76704 298.82528,224.5948 Z"
     id="path4551"
     inkscape:connector-curvature="0" />
  <path
     style="fill:#000000;stroke:none;stroke-width:1px;stroke-linecap:butt;stroke-linejoin:miter;stroke-opacity:1;fill-opacity:1"
     d="M 232.84263,193.50682 C 232.84263,193.50682 241.72491,210.00248 242.35936,230.93928 242.9938,251.87608 246.8005,323.56877 248.06939,324.83767 249.33829,326.10657 258.85502,356.5601 262.02726,362.27014 265.1995,367.98017 270.27509,369.24907 270.27509,369.24907 270.27509,369.24907 273.44734,353.38786 286.13631,347.04337 298.82528,340.69888 350.85006,328.00991 374.95911,339.42999 399.06815,350.85006 397.79926,352.11896 403.50929,348.94672 409.21933,345.77447 403.50929,335.6233 388.28253,328.00991 373.05576,320.39653 371.78686,315.32094 320.39653,328.64436 269.0062,341.96778 277.88848,348.31227 269.64064,342.60223 261.39281,336.89219 255.68278,339.42999 255.68278,326.74102 255.68278,314.05204 253.77943,283.59851 255.68278,257.58612 257.58612,231.57373 262.66171,215.07807 262.02726,215.71252 261.39281,216.34696 245.5316,194.77571 234.74597,196.67906 223.96035,198.5824 232.84263,193.50682 232.84263,193.50682 Z"
     id="path4553"
     inkscape:connector-curvature="0" />
  <path
     style="fill:#000000;stroke:none;stroke-width:1px;stroke-linecap:butt;stroke-linejoin:miter;stroke-opacity:1;fill-opacity:1"
     d="M 274.71623,264.56506 C 274.71623,264.56506 305.80421,253.14498 308.34201,251.87608 310.8798,250.60719 331.8166,261.39281 331.8166,263.93061 331.8166,266.4684 321.03098,289.943 319.12763,292.48079 317.22429,295.01859 309.6109,298.82528 309.6109,295.65304 309.6109,292.48079 315.32094,274.08178 315.32094,274.08178 315.32094,274.08178 312.78315,258.85502 303.90087,262.66171 295.01859,266.4684 287.4052,277.88848 287.4052,277.88848 L 280.42627,275.35068 C 280.42627,275.35068 269.64064,267.10285 274.71623,264.56506 Z"
     id="path4555"
     inkscape:connector-curvature="0" />
  <path
     style="fill:#000000;stroke:none;stroke-width:1px;stroke-linecap:butt;stroke-linejoin:miter;stroke-opacity:1;fill-opacity:1"
     d="M 274.71623,264.56506 288.03965,263.29616 298.19083,292.48079 301.36307,318.49318 C 301.36307,318.49318 289.943,321.66543 288.03965,315.95539 286.13631,310.24535 287.4052,300.09418 287.4052,300.09418 287.4052,300.09418 286.13631,286.1363 280.42627,275.35068 274.71623,264.56506 274.71623,264.56506 274.71623,264.56506 Z"
     id="path4557"
     inkscape:connector-curvature="0" />
  <path
     style="fill:#000000;stroke:none;stroke-width:1px;stroke-linecap:butt;stroke-linejoin:miter;stroke-opacity:1;fill-opacity:1"
     d="M 287.4052,300.09418 C 287.4052,300.09418 306.43866,287.4052 315.32094,286.13631 324.20322,284.86741 332.45105,291.2119 332.45105,291.2119 332.45105,291.2119 332.45105,298.82528 329.91326,298.19083 327.37546,297.55638 318.49318,292.48079 308.97646,298.19083 299.45973,303.90087 294.38414,308.34201 294.38414,308.34201 294.38414,308.34201 287.4052,300.09418 287.4052,300.09418 Z"
     id="path4559"
     inkscape:connector-curvature="0" />
  <path
     style="fill:#000000;stroke:none;stroke-width:1px;stroke-linecap:butt;stroke-linejoin:miter;stroke-opacity:1;fill-opacity:1"
     d="M 340.06444,249.97274 C 348.94672,295.01859 344.50558,292.48079 350.21561,296.28748 355.92565,300.09418 359.09789,304.53532 359.09789,292.48079 359.09789,280.42627 353.38786,263.93061 354.65675,259.48947 355.92565,255.04833 357.829,249.97274 350.21561,247.43494 342.60223,244.89715 340.06444,249.97274 340.06444,249.97274 Z"
     id="path4561"
     inkscape:connector-curvature="0" />
  <path
     style="fill:#000000;stroke:none;stroke-width:1px;stroke-linecap:butt;stroke-linejoin:miter;stroke-opacity:1;fill-opacity:1"
     d="M 340.06444,249.97274 C 340.06444,249.97274 347.04337,252.51053 362.90458,248.06939 378.7658,243.62825 381.93804,236.64932 381.93804,236.64932 L 383.84139,235.38042 C 383.84139,235.38042 400.9715,237.91822 400.9715,245.5316 400.9715,253.14498 393.35812,253.14498 388.28253,271.54399 383.20694,289.943 383.20694,298.19083 383.20694,298.19083 383.20694,298.19083 369.24907,296.28748 369.24907,289.943 369.24907,283.59851 379.40025,260.75836 376.86245,258.85502 374.32466,256.95167 356.5601,256.31722 355.2912,262.66171 354.0223,269.0062 349.58116,269.64064 349.58116,269.64064 349.58116,269.64064 322.29988,249.97274 340.06444,249.97274 Z"
     id="path4563"
     inkscape:connector-curvature="0" />
  <path
     style="fill:#000000;stroke:none;stroke-width:1px;stroke-linecap:butt;stroke-linejoin:miter;stroke-opacity:1;fill-opacity:1"
     d="M 348.31227,289.30855 C 385.74473,284.23296 386.37918,284.86741 386.37918,284.86741 L 396.53036,295.01859 C 396.53036,295.01859 390.82032,299.45973 383.20694,298.19083 375.59356,296.92193 367.98017,294.38414 360.36679,296.92193 352.75341,299.45973 344.50558,295.65304 348.31227,289.30855 Z"
     id="path4565"
     inkscape:connector-curvature="0" />
</svg>
