<?xml version="1.0" encoding="UTF-8" standalone="no"?>
<!-- Created with Inkscape (http://www.inkscape.org/) -->

<svg
   xmlns:dc="http://purl.org/dc/elements/1.1/"
   xmlns:cc="http://creativecommons.org/ns#"
   xmlns:rdf="http://www.w3.org/1999/02/22-rdf-syntax-ns#"
   xmlns:svg="http://www.w3.org/2000/svg"
   xmlns="http://www.w3.org/2000/svg"
   xmlns:sodipodi="http://sodipodi.sourceforge.net/DTD/sodipodi-0.dtd"
   xmlns:inkscape="http://www.inkscape.org/namespaces/inkscape"
   version="1.1"
   id="svg815"
   width="481"
   height="480"
   viewBox="0 0 481 480"
   sodipodi:docname="兵.svg"
   inkscape:version="0.92.2 (5c3e80d, 2017-08-06)">
  <metadata
     id="metadata821">
    <rdf:RDF>
      <cc:Work
         rdf:about="">
        <dc:format>image/svg+xml</dc:format>
        <dc:type
           rdf:resource="http://purl.org/dc/dcmitype/StillImage" />
        <dc:title></dc:title>
      </cc:Work>
    </rdf:RDF>
  </metadata>
  <defs
     id="defs819" />
  <sodipodi:namedview
     pagecolor="#ffffff"
     bordercolor="#666666"
     borderopacity="1"
     objecttolerance="10"
     gridtolerance="10"
     guidetolerance="10"
     inkscape:pageopacity="0"
     inkscape:pageshadow="2"
     inkscape:window-width="1920"
     inkscape:window-height="1001"
     id="namedview817"
     showgrid="false"
     inkscape:zoom="1.5674954"
     inkscape:cx="240.5"
     inkscape:cy="240"
     inkscape:window-x="-9"
     inkscape:window-y="-9"
     inkscape:window-maximized="1"
     inkscape:current-layer="svg815" />
  <path
     style="fill:#000000;stroke:none;stroke-width:1px;stroke-linecap:butt;stroke-linejoin:miter;stroke-opacity:1;fill-opacity:1"
     d="M 244.97679,112.53481 C 244.97679,112.53481 250.71843,121.46626 249.44251,125.93198 248.16659,130.3977 237.32127,150.17448 237.32127,150.17448 L 229.02778,164.84757 222.64818,174.41697 240.51107,163.57164 259.64988,140.60507 267.94337,131.03566 259.64988,118.27646 C 259.64988,118.27646 245.61475,114.44869 244.97679,112.53481 Z"
     id="path825"
     inkscape:connector-curvature="0" />
  <path
     style="fill:#000000;stroke:none;stroke-width:1px;stroke-linecap:butt;stroke-linejoin:miter;stroke-opacity:1;fill-opacity:1"
     d="M 235.40739,185.90026 C 235.40739,185.90026 253.90824,187.81414 261.56376,185.90026 269.21929,183.98638 287.72014,177.60677 298.56546,175.69289 309.41079,173.77901 307.49691,175.69289 312.60059,171.86513 317.70428,168.03737 324.08388,164.84757 324.08388,164.84757 L 339.39493,171.86513 341.30881,179.52065 H 319.61816 L 286.44422,183.98638 C 286.44422,183.98638 268.58133,189.72802 266.66744,191.00394 264.75356,192.27986 255.18416,200.57335 255.18416,200.57335 255.18416,200.57335 241.78699,206.95295 235.40739,185.90026 Z"
     id="path827"
     inkscape:connector-curvature="0" />
  <path
     style="fill:#000000;stroke:none;stroke-width:1px;stroke-linecap:butt;stroke-linejoin:miter;stroke-opacity:1;fill-opacity:1"
     d="M 186.28444,164.2096 C 186.28444,164.2096 192.02608,183.34842 195.85384,186.53822 199.6816,189.72802 207.33713,199.93539 207.33713,199.93539 L 210.52693,218.43624 V 234.38525 L 211.80285,259.2657 216.90653,275.21471 222.01022,272.02491 220.7343,236.93709 223.28614,216.52236 213.71673,185.2623 C 213.71673,185.2623 192.02608,161.65776 186.28444,164.2096 Z"
     id="path829"
     inkscape:connector-curvature="0" />
  <path
     style="fill:#000000;stroke:none;stroke-width:1px;stroke-linecap:butt;stroke-linejoin:miter;stroke-opacity:1;fill-opacity:1"
     d="M 263.47764,201.84927 270.49521,217.79828 V 234.38525 L 264.75356,248.42038 267.94337,251.61018 281.97849,233.74729 292.82382,218.43624 C 292.82382,218.43624 289.63402,204.40111 284.53034,203.76315 279.42665,203.12519 266.02948,196.74558 263.47764,201.84927 Z"
     id="path831"
     inkscape:connector-curvature="0" />
  <path
     style="fill:#000000;stroke:none;stroke-width:1px;stroke-linecap:butt;stroke-linejoin:miter;stroke-opacity:1;fill-opacity:1"
     d="M 119.29859,269.47307 155.66234,266.28327 199.04364,257.35182 285.80626,244.59261 347.05045,240.76485 362.3615,239.48893 370.01703,238.85097 C 370.01703,238.85097 392.9836,249.6963 394.25952,253.52406 395.53544,257.35182 398.72525,264.36939 398.72525,264.36939 L 385.96604,267.55919 C 385.96604,267.55919 394.25952,258.62774 354.06802,254.16202 313.87651,249.6963 271.77113,252.24814 253.90824,256.0759 236.04535,259.90366 206.69917,263.09347 198.40568,266.28327 190.1122,269.47307 163.31786,274.57675 157.57622,279.04248 151.83457,283.5082 133.33372,290.52576 133.33372,290.52576 133.33372,290.52576 112.28103,277.76655 119.29859,269.47307 Z"
     id="path833"
     inkscape:connector-curvature="0" />
  <path
     style="fill:#000000;stroke:none;stroke-width:1px;stroke-linecap:butt;stroke-linejoin:miter;stroke-opacity:1;fill-opacity:1"
     d="M 217.54449,284.78412 209.25101,305.19885 195.21588,318.59602 183.73259,326.88951 177.35299,327.52747 V 319.87194 L 174.16319,330.71727 C 174.16319,330.71727 172.88727,336.45891 174.16319,339.01075 175.43911,341.56259 186.28444,335.82095 186.28444,335.82095 L 203.50937,323.6997 C 203.50937,323.6997 207.97509,317.3201 216.26857,308.38865 224.56206,299.45721 220.09634,286.698 217.54449,284.78412 Z"
     id="path835"
     inkscape:connector-curvature="0" />
  <path
     style="fill:#000000;stroke:none;stroke-width:1px;stroke-linecap:butt;stroke-linejoin:miter;stroke-opacity:1;fill-opacity:1"
     d="M 279.42665,279.04248 308.77283,296.90537 319.61816,318.59602 318.34224,330.07931 C 318.34224,330.07931 301.11731,324.97562 296.65158,313.49234 292.18586,302.00905 280.06461,286.698 280.06461,286.698 280.06461,286.698 273.04705,277.76655 279.42665,279.04248 Z"
     id="path837"
     inkscape:connector-curvature="0" />
</svg>
