<?xml version="1.0" encoding="UTF-8" standalone="no"?>
<!-- Created with Inkscape (http://www.inkscape.org/) -->

<svg
   xmlns:dc="http://purl.org/dc/elements/1.1/"
   xmlns:cc="http://creativecommons.org/ns#"
   xmlns:rdf="http://www.w3.org/1999/02/22-rdf-syntax-ns#"
   xmlns:svg="http://www.w3.org/2000/svg"
   xmlns="http://www.w3.org/2000/svg"
   xmlns:sodipodi="http://sodipodi.sourceforge.net/DTD/sodipodi-0.dtd"
   xmlns:inkscape="http://www.inkscape.org/namespaces/inkscape"
   version="1.1"
   id="svg815"
   width="512"
   height="512"
   viewBox="0 0 512 512"
   sodipodi:docname="åƒ.svg"
   inkscape:version="0.92.2 (5c3e80d, 2017-08-06)">
  <metadata
     id="metadata821">
    <rdf:RDF>
      <cc:Work
         rdf:about="">
        <dc:format>image/svg+xml</dc:format>
        <dc:type
           rdf:resource="http://purl.org/dc/dcmitype/StillImage" />
        <dc:title></dc:title>
      </cc:Work>
    </rdf:RDF>
  </metadata>
  <defs
     id="defs819" />
  <sodipodi:namedview
     pagecolor="#ffffff"
     bordercolor="#666666"
     borderopacity="1"
     objecttolerance="10"
     gridtolerance="10"
     guidetolerance="10"
     inkscape:pageopacity="0"
     inkscape:pageshadow="2"
     inkscape:window-width="1920"
     inkscape:window-height="1001"
     id="namedview817"
     showgrid="false"
     inkscape:zoom="1.3715585"
     inkscape:cx="256"
     inkscape:cy="256"
     inkscape:window-x="-9"
     inkscape:window-y="-9"
     inkscape:window-maximized="1"
     inkscape:current-layer="svg815" />
  <path
     style="fill:#000000;stroke:#000000;stroke-width:1px;stroke-linecap:butt;stroke-linejoin:miter;stroke-opacity:1;fill-opacity:1"
     d="M 251.53867,123.39098 280.70257,124.12008 298.20092,137.97293 289.45174,145.26391 272.6825,154.74218 250.80957,168.59503 C 250.80957,168.59503 226.02025,165.67864 221.64567,164.22045 217.27108,162.76225 223.83296,159.11676 234.04033,154.01308 244.24769,148.9094 260.28784,139.43113 260.28784,139.43113 260.28784,139.43113 251.53867,122.66189 251.53867,123.39098 Z"
     id="path825"
     inkscape:connector-curvature="0" />
  <path
     style="fill:#000000;stroke:#000000;stroke-width:1px;stroke-linecap:butt;stroke-linejoin:miter;stroke-opacity:1;fill-opacity:1"
     d="M 89.679004,230.56833 C 89.679004,230.56833 116.65561,229.11013 126.86298,226.92284 137.07035,224.73555 177.89981,221.09006 185.91989,218.90277 193.93996,216.71547 250.08047,205.04991 250.08047,205.04991 L 323.71933,197.75894 374.02707,194.84255 C 374.02707,194.84255 398.08729,193.38435 401.73277,196.30074 405.37826,199.21713 423.6057,217.44457 423.6057,217.44457 423.6057,217.44457 422.14751,226.19374 416.31473,225.46465 410.48195,224.73555 371.83977,210.1536 363.0906,209.4245 354.34143,208.6954 343.40497,199.21713 285.80626,207.23721 228.20755,215.25728 203.41823,223.27735 203.41823,223.27735 203.41823,223.27735 184.46169,224.73555 166.96335,232.75562 149.46501,240.7757 129.77937,248.06667 131.23757,252.44126 132.69576,256.81584 120.3011,259.73223 120.3011,259.73223 120.3011,259.73223 91.866297,237.8593 89.679004,230.56833 Z"
     id="path827"
     inkscape:connector-curvature="0" />
  <path
     style="fill:#000000;stroke:#000000;stroke-width:1px;stroke-linecap:butt;stroke-linejoin:miter;stroke-opacity:1;fill-opacity:1"
     d="M 250.80957,168.59503 274.86979,177.3442 277.78618,189.73886 273.4116,205.04991 269.03701,251.71216 270.49521,293.99982 271.9534,332.64199 V 370.55507 L 274.86979,388.78251 269.76611,401.90626 247.16408,373.47146 263.93333,377.84604 263.20423,243.69209 261.01694,191.19706 C 261.01694,191.19706 250.80957,168.59503 250.80957,168.59503 Z"
     id="path829"
     inkscape:connector-curvature="0" />
</svg>
