<?xml version="1.0" encoding="UTF-8" standalone="no"?>
<!-- Created with Inkscape (http://www.inkscape.org/) -->

<svg
   xmlns:dc="http://purl.org/dc/elements/1.1/"
   xmlns:cc="http://creativecommons.org/ns#"
   xmlns:rdf="http://www.w3.org/1999/02/22-rdf-syntax-ns#"
   xmlns:svg="http://www.w3.org/2000/svg"
   xmlns="http://www.w3.org/2000/svg"
   xmlns:sodipodi="http://sodipodi.sourceforge.net/DTD/sodipodi-0.dtd"
   xmlns:inkscape="http://www.inkscape.org/namespaces/inkscape"
   version="1.1"
   id="svg815"
   width="512"
   height="512"
   viewBox="0 0 512 512"
   sodipodi:docname="家.svg"
   inkscape:version="0.92.2 (5c3e80d, 2017-08-06)">
  <metadata
     id="metadata821">
    <rdf:RDF>
      <cc:Work
         rdf:about="">
        <dc:format>image/svg+xml</dc:format>
        <dc:type
           rdf:resource="http://purl.org/dc/dcmitype/StillImage" />
        <dc:title></dc:title>
      </cc:Work>
    </rdf:RDF>
  </metadata>
  <defs
     id="defs819" />
  <sodipodi:namedview
     pagecolor="#ffffff"
     bordercolor="#666666"
     borderopacity="1"
     objecttolerance="10"
     gridtolerance="10"
     guidetolerance="10"
     inkscape:pageopacity="0"
     inkscape:pageshadow="2"
     inkscape:window-width="1920"
     inkscape:window-height="1001"
     id="namedview817"
     showgrid="false"
     inkscape:zoom="1.3715585"
     inkscape:cx="256"
     inkscape:cy="256"
     inkscape:window-x="-9"
     inkscape:window-y="-9"
     inkscape:window-maximized="1"
     inkscape:current-layer="svg815" />
  <path
     style="fill:#000000;stroke:none;stroke-width:1px;stroke-linecap:butt;stroke-linejoin:miter;stroke-opacity:1;fill-opacity:1"
     d="M 215.81289,104.43445 C 215.81289,104.43445 232.58213,100.78896 236.22762,102.24715 239.87311,103.70535 261.74604,115.37091 261.74604,115.37091 261.74604,115.37091 266.84972,126.30737 266.84972,129.95286 266.84972,133.59835 259.55874,142.34752 259.55874,142.34752 259.55874,142.34752 248.62228,154.74218 244.24769,143.07662 239.87311,131.41106 244.97679,126.30737 233.31123,119.74549 221.64567,113.18362 212.1674,110.26723 213.62559,107.35084 215.08379,104.43445 215.81289,104.43445 215.81289,104.43445 Z"
     id="path825"
     inkscape:connector-curvature="0" />
  <path
     style="fill:#000000;stroke:none;stroke-width:1px;stroke-linecap:butt;stroke-linejoin:miter;stroke-opacity:1;fill-opacity:1"
     d="M 140.71584,123.39098 C 140.71584,123.39098 167.69245,146.72211 167.69245,151.82579 167.69245,156.92947 169.87974,167.13684 166.96335,174.42781 164.04696,181.71879 154.56869,210.1536 154.56869,210.1536 L 143.63223,231.29743 138.52854,236.40111 C 138.52854,236.40111 133.42486,234.94291 134.15396,229.11013 134.88305,223.27735 135.61215,211.61179 134.15396,209.4245 132.69576,207.23721 129.77937,201.40443 129.77937,201.40443 129.77937,201.40443 137.07035,197.02984 140.71584,196.30074 144.36132,195.57164 139.25764,183.17699 144.36132,180.26059 149.46501,177.3442 154.56869,164.22045 153.11049,157.65857 151.6523,151.09669 142.90313,142.34752 142.90313,137.24384 142.90313,132.14015 140.71584,123.39098 140.71584,123.39098 Z"
     id="path827"
     inkscape:connector-curvature="0" />
  <path
     style="fill:#000000;stroke:none;stroke-width:1px;stroke-linecap:butt;stroke-linejoin:miter;stroke-opacity:1;fill-opacity:1"
     d="M 180.8162,140.16023 196.12725,143.07662 244.24769,137.24384 307.67918,129.95286 352.15414,124.84918 C 352.15414,124.84918 366.73609,126.30737 369.65248,131.41106 372.56887,136.51474 385.69263,154.74218 385.69263,154.74218 385.69263,154.74218 381.31804,166.40774 377.67255,169.32413 374.02707,172.24052 363.8197,176.61511 363.8197,176.61511 363.8197,176.61511 353.61233,166.40774 352.15414,163.49135 350.69594,160.57496 358.71602,157.65857 358.71602,157.65857 358.71602,157.65857 364.5488,155.47128 364.5488,152.55489 364.5488,149.6385 357.98692,135.78564 357.98692,135.78564 L 339.75948,129.95286 291.63904,137.24384 250.08047,142.34752 H 231.85303 L 201.96003,151.82579 188.10718,157.65857 C 188.10718,157.65857 185.19079,148.9094 180.8162,140.16023 Z"
     id="path829"
     inkscape:connector-curvature="0" />
  <path
     style="fill:#000000;stroke:none;stroke-width:1px;stroke-linecap:butt;stroke-linejoin:miter;stroke-opacity:1;fill-opacity:1"
     d="M 331.01031,218.90277 C 331.01031,218.90277 343.40497,216.71547 345.59226,221.81916 347.77955,226.92284 352.15414,242.96299 352.15414,242.96299 L 344.13406,242.23389 330.28121,257.54494 310.59557,276.50148 295.28453,285.97975 C 295.28453,285.97975 285.80626,283.06336 287.99355,281.60516 290.18084,280.14697 305.49189,272.12689 305.49189,272.12689 L 323.71933,248.79577 C 323.71933,248.79577 333.9267,234.21382 334.6558,233.48472 335.38489,232.75562 329.55211,220.36096 331.01031,218.90277 Z"
     id="path831"
     inkscape:connector-curvature="0" />
  <path
     style="fill:#000000;stroke:none;stroke-width:1px;stroke-linecap:butt;stroke-linejoin:miter;stroke-opacity:1;fill-opacity:1"
     d="M 302.5755,304.20719 C 302.5755,304.20719 341.21767,316.60184 349.96684,320.97643 358.71602,325.35102 383.50533,346.49485 383.50533,346.49485 L 389.33811,355.24402 383.50533,356.70221 C 383.50533,356.70221 371.11068,358.16041 367.46519,353.78582 363.8197,349.41124 344.86316,333.37109 344.86316,333.37109 L 320.80294,315.87275 Z"
     id="path833"
     inkscape:connector-curvature="0" />
  <path
     style="fill:#000000;stroke:none;stroke-width:1px;stroke-linecap:butt;stroke-linejoin:miter;stroke-opacity:1;fill-opacity:1"
     d="M 199.77274,203.59172 207.79281,213.79908 245.70589,202.13352 273.4116,194.11345 279.97348,192.65525 C 279.97348,192.65525 287.99355,174.42781 290.90994,174.42781 293.82633,174.42781 309.86648,189.73886 309.86648,189.73886 L 305.49189,195.57164 H 296.01362 L 276.32799,198.48803 244.24769,208.6954 216.54199,220.36096 208.52191,222.54826 199.04364,229.83923 C 199.04364,229.83923 190.29447,217.44457 192.48176,213.79908 194.66906,210.1536 199.77274,203.59172 199.77274,203.59172 Z"
     id="path835"
     inkscape:connector-curvature="0" />
  <path
     style="fill:#000000;stroke:none;stroke-width:1px;stroke-linecap:butt;stroke-linejoin:miter;stroke-opacity:1;fill-opacity:1"
     d="M 290.18084,189.73886 285.80626,205.77901 265.39152,232.02652 242.7895,252.44126 222.37477,269.2105 C 222.37477,269.2105 207.79281,276.50148 207.79281,272.12689 207.79281,267.75231 209.98011,262.64862 209.98011,262.64862 L 219.45838,264.10682 240.60221,245.15028 264.66243,220.36096 276.32799,207.9663 C 276.32799,207.9663 284.34806,183.90609 290.18084,189.73886 Z"
     id="path837"
     inkscape:connector-curvature="0" />
  <path
     style="fill:#000000;stroke:none;stroke-width:1px;stroke-linecap:butt;stroke-linejoin:miter;stroke-opacity:1;fill-opacity:1"
     d="M 259.55874,251.71216 C 259.55874,251.71216 250.80957,264.10682 246.43499,268.4814 242.0604,272.85599 221.64567,290.35433 221.64567,290.35433 L 204.14733,304.93628 187.37808,315.14365 183.73259,322.43463 C 183.73259,322.43463 187.37808,324.62192 196.12725,317.33094 204.87642,310.03997 238.41491,285.97975 238.41491,285.97975 L 261.01694,267.02321 263.20423,259.00314 C 263.20423,259.00314 261.74604,249.52487 259.55874,251.71216 Z"
     id="path839"
     inkscape:connector-curvature="0" />
  <path
     style="fill:#000000;stroke:none;stroke-width:1px;stroke-linecap:butt;stroke-linejoin:miter;stroke-opacity:1;fill-opacity:1"
     d="M 261.01694,267.02321 288.72265,277.95967 302.5755,294.72892 294.55543,318.06004 274.1407,354.51492 250.80957,382.22063 234.76943,396.07348 C 234.76943,396.07348 219.45838,392.42799 220.18747,379.30424 220.91657,366.18048 222.37477,353.78582 222.37477,353.78582 L 231.12394,369.09687 C 231.12394,369.09687 235.49852,375.65875 238.41491,376.38785 241.3313,377.11695 250.80957,373.47146 252.26777,369.09687 253.72596,364.72229 272.6825,339.93297 272.6825,339.93297 L 287.99355,305.66538 285.07716,290.35433 277.05709,282.33426 Z"
     id="path841"
     inkscape:connector-curvature="0" />
  <path
     style="fill:#000000;stroke:none;stroke-width:1px;stroke-linecap:butt;stroke-linejoin:miter;stroke-opacity:1;fill-opacity:1"
     d="M 274.1407,275.77238 271.9534,284.52155 256.64235,302.01989 223.10386,334.10019 194.66906,351.59853 C 194.66906,351.59853 178.62891,363.26409 175.71252,363.26409 172.79613,363.26409 166.96335,362.53499 166.96335,362.53499 L 166.23425,373.47146 C 166.23425,373.47146 185.19079,368.36777 188.83628,363.99319 192.48176,359.6186 220.18747,341.39116 220.18747,341.39116 L 264.66243,303.47809 277.78618,286.70884 C 277.78618,286.70884 278.51528,273.58509 274.1407,275.77238 Z"
     id="path843"
     inkscape:connector-curvature="0" />
</svg>
