<?xml version="1.0" encoding="UTF-8" standalone="no"?>
<!-- Created with Inkscape (http://www.inkscape.org/) -->

<svg
   xmlns:dc="http://purl.org/dc/elements/1.1/"
   xmlns:cc="http://creativecommons.org/ns#"
   xmlns:rdf="http://www.w3.org/1999/02/22-rdf-syntax-ns#"
   xmlns:svg="http://www.w3.org/2000/svg"
   xmlns="http://www.w3.org/2000/svg"
   xmlns:sodipodi="http://sodipodi.sourceforge.net/DTD/sodipodi-0.dtd"
   xmlns:inkscape="http://www.inkscape.org/namespaces/inkscape"
   version="1.1"
   id="svg815"
   width="512"
   height="512"
   viewBox="0 0 512 512"
   sodipodi:docname="給.svg"
   inkscape:version="0.92.2 (5c3e80d, 2017-08-06)">
  <metadata
     id="metadata821">
    <rdf:RDF>
      <cc:Work
         rdf:about="">
        <dc:format>image/svg+xml</dc:format>
        <dc:type
           rdf:resource="http://purl.org/dc/dcmitype/StillImage" />
        <dc:title></dc:title>
      </cc:Work>
    </rdf:RDF>
  </metadata>
  <defs
     id="defs819" />
  <sodipodi:namedview
     pagecolor="#ffffff"
     bordercolor="#666666"
     borderopacity="1"
     objecttolerance="10"
     gridtolerance="10"
     guidetolerance="10"
     inkscape:pageopacity="0"
     inkscape:pageshadow="2"
     inkscape:window-width="1920"
     inkscape:window-height="1001"
     id="namedview817"
     showgrid="false"
     inkscape:zoom="1.3715585"
     inkscape:cx="256"
     inkscape:cy="260.12193"
     inkscape:window-x="-9"
     inkscape:window-y="-9"
     inkscape:window-maximized="1"
     inkscape:current-layer="svg815" />
  <path
     style="fill:#000000;stroke:none;stroke-width:1px;stroke-linecap:butt;stroke-linejoin:miter;stroke-opacity:1;fill-opacity:1"
     d="M 301.11731,141.61842 C 301.11731,141.61842 303.3046,151.82579 301.11731,156.92947 298.93001,162.03316 284.34806,189.00977 284.34806,189.00977 L 261.01694,229.11013 C 261.01694,229.11013 249.35138,242.96299 247.16408,245.15028 244.97679,247.33757 231.85303,260.46133 231.85303,260.46133 231.85303,260.46133 229.66574,267.02321 236.22762,262.64862 242.7895,258.27404 270.49521,231.29743 270.49521,231.29743 L 290.18084,200.67533 305.49189,175.88601 314.24106,154.01308 309.86648,140.16023 C 309.86648,140.16023 303.3046,138.70203 301.11731,141.61842 Z"
     id="path825"
     inkscape:connector-curvature="0" />
  <path
     style="fill:#000000;stroke:none;stroke-width:1px;stroke-linecap:butt;stroke-linejoin:miter;stroke-opacity:1;fill-opacity:1"
     d="M 277.78618,237.8593 292.36814,236.40111 325.90662,228.38104 341.94677,224.73555 C 341.94677,224.73555 355.07053,225.46465 355.07053,229.83923 355.07053,234.21382 345.59226,236.40111 345.59226,236.40111 L 325.17753,239.3175 294.55543,249.52487 285.80626,252.44126 C 285.80626,252.44126 270.49521,236.40111 277.78618,237.8593 Z"
     id="path827"
     inkscape:connector-curvature="0" />
  <path
     style="fill:#000000;stroke:none;stroke-width:1px;stroke-linecap:butt;stroke-linejoin:miter;stroke-opacity:1;fill-opacity:1"
     d="M 259.55874,275.04328 282.88987,287.43794 285.80626,297.64531 C 285.80626,297.64531 283.61896,301.2908 284.34806,313.68545 285.07716,326.08011 285.07716,351.59853 285.07716,351.59853 285.07716,351.59853 284.34806,359.6186 281.43167,354.51492 278.51528,349.41124 274.1407,335.55838 274.1407,332.64199 274.1407,329.7256 274.86979,311.49816 272.6825,303.47809 270.49521,295.45801 265.39152,283.06336 265.39152,283.06336 Z"
     id="path829"
     inkscape:connector-curvature="0" />
  <path
     style="fill:#000000;stroke:none;stroke-width:1px;stroke-linecap:butt;stroke-linejoin:miter;stroke-opacity:1;fill-opacity:1"
     d="M 327.36482,145.26391 C 327.36482,145.26391 339.75948,149.6385 345.59226,155.47128 351.42504,161.30406 378.40165,199.21713 378.40165,199.21713 378.40165,199.21713 401.73277,219.63186 412.66924,224.73555 423.6057,229.83923 445.47863,240.7757 445.47863,240.7757 445.47863,240.7757 463.70607,252.44126 468.80975,253.89945 473.91344,255.35765 487.76629,259.73223 487.76629,259.73223 L 500.16095,260.46133 C 500.16095,260.46133 516.93019,267.75231 500.89005,267.75231 484.8499,267.75231 454.2278,262.64862 446.93682,264.10682 439.64585,265.56501 429.43848,267.02321 429.43848,267.02321 429.43848,267.02321 419.96021,268.4814 412.66924,256.81584 405.37826,245.15028 391.52541,226.19374 391.52541,226.19374 L 365.27789,194.84255 C 365.27789,194.84255 348.50865,172.96962 347.05045,168.59503 345.59226,164.22045 332.4685,153.28398 332.4685,153.28398 Z"
     id="path831"
     inkscape:connector-curvature="0" />
  <path
     style="fill:#000000;stroke:none;stroke-width:1px;stroke-linecap:butt;stroke-linejoin:miter;stroke-opacity:1;fill-opacity:1"
     d="M 287.99355,277.23057 C 287.99355,277.23057 296.74272,279.41787 305.49189,277.23057 314.24106,275.04328 340.48858,269.2105 340.48858,269.2105 340.48858,269.2105 340.48858,264.10682 343.40497,263.37772 346.32136,262.64862 356.52872,262.64862 361.63241,267.75231 366.73609,272.85599 371.83977,281.60516 371.83977,281.60516 L 366.00699,285.25065 C 366.00699,285.25065 360.17421,291.81253 357.25782,300.5617 354.34143,309.31087 349.23775,320.97643 349.23775,320.97643 L 344.86316,333.37109 C 344.86316,333.37109 331.01031,337.01658 334.6558,327.53831 338.30128,318.06004 341.94677,300.5617 341.94677,300.5617 L 342.67587,288.89614 C 342.67587,288.89614 343.40497,283.06336 334.6558,283.06336 325.90662,283.06336 308.40828,289.62523 308.40828,289.62523 L 301.11731,295.45801 C 301.11731,295.45801 280.70257,279.41787 287.99355,277.23057 Z"
     id="path833"
     inkscape:connector-curvature="0" />
  <path
     style="fill:#000000;stroke:none;stroke-width:1px;stroke-linecap:butt;stroke-linejoin:miter;stroke-opacity:1;fill-opacity:1"
     d="M 279.24438,328.9965 331.73941,320.97643 C 331.73941,320.97643 333.1976,318.06004 341.21767,319.51824 349.23775,320.97643 358.71602,331.91289 358.71602,331.91289 358.71602,331.91289 336.84309,333.37109 331.73941,333.37109 326.63572,333.37109 304.76279,334.82928 304.76279,334.82928 L 287.99355,339.20387 C 287.99355,339.20387 275.59889,334.82928 279.24438,328.9965 Z"
     id="path835"
     inkscape:connector-curvature="0" />
  <path
     style="fill:#000000;stroke:none;stroke-width:1px;stroke-linecap:butt;stroke-linejoin:miter;stroke-opacity:1;fill-opacity:1"
     d="M 197.58545,126.30737 C 191.02357,154.01308 180.8162,170.05323 180.8162,170.05323 L 164.77606,180.98969 H 152.3814 L 148.73591,193.38435 149.46501,213.06999 C 149.46501,213.06999 144.36132,225.46465 162.58876,210.88269 180.8162,196.30074 192.48176,189.73886 192.48176,189.73886 L 171.33793,188.28067 C 171.33793,188.28067 189.56537,179.5315 191.02357,174.42781 192.48176,169.32413 204.14733,145.26391 204.14733,145.26391 L 202.68913,135.05654 C 202.68913,135.05654 200.50184,125.57828 197.58545,126.30737 Z"
     id="path837"
     inkscape:connector-curvature="0" />
  <path
     style="fill:#000000;stroke:none;stroke-width:1px;stroke-linecap:butt;stroke-linejoin:miter;stroke-opacity:1;fill-opacity:1"
     d="M 220.18747,166.40774 C 220.18747,166.40774 251.53867,162.03316 239.87311,170.78233 228.20755,179.5315 220.18747,179.5315 204.14733,196.30074 188.10718,213.06999 165.50515,234.21382 165.50515,234.21382 L 161.85967,237.8593 C 161.85967,237.8593 191.02357,232.75562 198.31455,231.29743 205.60552,229.83923 212.1674,229.11013 214.35469,230.56833 216.54199,232.02652 209.25101,245.87938 201.96003,241.50479 194.66906,237.13021 171.33793,251.71216 171.33793,251.71216 L 152.3814,261.91953 142.90313,259.00314 143.63223,240.0466 C 143.63223,240.0466 157.48508,235.67201 159.67237,231.29743 161.85967,226.92284 183.73259,207.9663 183.73259,207.9663 L 207.06372,182.44789 C 207.06372,182.44789 217.27108,166.40774 220.18747,166.40774 Z"
     id="path839"
     inkscape:connector-curvature="0" />
  <path
     style="fill:#000000;stroke:none;stroke-width:1px;stroke-linecap:butt;stroke-linejoin:miter;stroke-opacity:1;fill-opacity:1"
     d="M 215.81289,210.1536 C 215.81289,210.1536 234.04033,206.50811 234.76943,215.98638 235.49852,225.46465 222.37477,235.67201 222.37477,235.67201 L 190.29447,267.75231 157.48508,301.2908 153.11049,307.12358 183.0035,296.18711 218.00018,278.68877 C 218.00018,278.68877 226.02025,272.12689 226.74935,276.50148 227.47845,280.87606 227.47845,280.87606 227.47845,280.87606 227.47845,280.87606 215.08379,288.89614 212.8965,290.35433 210.7092,291.81253 189.56537,301.2908 189.56537,301.2908 189.56537,301.2908 165.50515,310.03997 156.75598,315.14365 148.00681,320.24733 133.42486,332.64199 133.42486,332.64199 133.42486,332.64199 124.67569,339.93297 120.3011,329.7256 115.92652,319.51824 115.92652,310.03997 115.92652,310.03997 115.92652,310.03997 121.7593,303.47809 129.05027,301.2908 136.34125,299.1035 155.29779,289.62523 155.29779,289.62523 L 181.5453,263.37772 200.50184,236.40111 Z"
     id="path841"
     inkscape:connector-curvature="0" />
</svg>
