<?xml version="1.0" encoding="UTF-8" standalone="no"?>
<!-- Created with Inkscape (http://www.inkscape.org/) -->

<svg
   xmlns:dc="http://purl.org/dc/elements/1.1/"
   xmlns:cc="http://creativecommons.org/ns#"
   xmlns:rdf="http://www.w3.org/1999/02/22-rdf-syntax-ns#"
   xmlns:svg="http://www.w3.org/2000/svg"
   xmlns="http://www.w3.org/2000/svg"
   xmlns:sodipodi="http://sodipodi.sourceforge.net/DTD/sodipodi-0.dtd"
   xmlns:inkscape="http://www.inkscape.org/namespaces/inkscape"
   version="1.1"
   id="svg815"
   width="512"
   height="512"
   viewBox="0 0 512 512"
   sodipodi:docname="縣.svg"
   inkscape:version="0.92.2 (5c3e80d, 2017-08-06)">
  <metadata
     id="metadata821">
    <rdf:RDF>
      <cc:Work
         rdf:about="">
        <dc:format>image/svg+xml</dc:format>
        <dc:type
           rdf:resource="http://purl.org/dc/dcmitype/StillImage" />
        <dc:title></dc:title>
      </cc:Work>
    </rdf:RDF>
  </metadata>
  <defs
     id="defs819" />
  <sodipodi:namedview
     pagecolor="#ffffff"
     bordercolor="#666666"
     borderopacity="1"
     objecttolerance="10"
     gridtolerance="10"
     guidetolerance="10"
     inkscape:pageopacity="0"
     inkscape:pageshadow="2"
     inkscape:window-width="1920"
     inkscape:window-height="1001"
     id="namedview817"
     showgrid="false"
     inkscape:zoom="1.5761719"
     inkscape:cx="256"
     inkscape:cy="256"
     inkscape:window-x="-9"
     inkscape:window-y="-9"
     inkscape:window-maximized="1"
     inkscape:current-layer="svg815" />
  <path
     style="fill:#000000;stroke:none;stroke-width:1px;stroke-linecap:butt;stroke-linejoin:miter;stroke-opacity:1;fill-opacity:1"
     d="M 178.9145,133.2342 C 190.96902,133.86865 231.57373,126.88971 231.57373,126.88971 231.57373,126.88971 251.24164,130.06196 249.97274,140.84758 248.70384,151.63321 246.16605,150.36431 246.16605,158.61214 246.16605,166.85998 241.09046,241.09046 241.09046,241.09046 241.09046,241.09046 241.72491,259.48947 240.45601,265.1995 239.18711,270.90954 233.47708,286.13631 233.47708,286.13631 233.47708,286.13631 229.67038,282.96406 223.96035,266.4684 218.25031,249.97274 216.34696,244.89715 216.34696,244.89715 L 230.93928,251.24164 232.84263,175.10781 C 232.84263,175.10781 234.74597,148.46097 236.01487,145.92317 237.28377,143.38538 230.30483,137.04089 215.71252,140.84758 201.1202,144.65428 192.87237,151.63321 192.87237,151.63321 192.87237,151.63321 187.79678,147.82652 178.9145,133.2342 Z"
     id="path825"
     inkscape:connector-curvature="0" />
  <path
     style="fill:#000000;stroke:none;stroke-width:1px;stroke-linecap:butt;stroke-linejoin:miter;stroke-opacity:1;fill-opacity:1"
     d="M 184.62454,175.74226 C 184.62454,175.74226 190.96902,176.3767 197.94796,173.20446 204.92689,170.03222 210.63693,166.22553 215.07807,168.76332 219.51921,171.30112 220.7881,173.83891 220.7881,173.83891 220.7881,173.83891 206.83024,185.25898 201.75465,185.25898 196.67906,185.25898 177.6456,182.72119 184.62454,175.74226 Z"
     id="path827"
     inkscape:connector-curvature="0" />
  <path
     style="fill:#000000;stroke:none;stroke-width:1px;stroke-linecap:butt;stroke-linejoin:miter;stroke-opacity:1;fill-opacity:1"
     d="M 171.30112,168.12887 C 171.30112,168.12887 187.79678,171.30112 185.89343,185.25898 183.99009,199.21685 182.72119,235.38042 182.72119,235.38042 182.72119,235.38042 184.62454,255.04833 182.08674,258.22057 179.54895,261.39281 177.01115,267.10285 174.47336,260.75836 171.93556,254.41388 175.10781,235.38042 175.10781,229.03594 175.10781,222.69145 177.6456,188.43123 175.74226,182.08674 173.83891,175.74226 171.30112,168.12887 171.30112,168.12887 Z"
     id="path829"
     inkscape:connector-curvature="0" />
  <path
     style="fill:#000000;stroke:none;stroke-width:1px;stroke-linecap:butt;stroke-linejoin:miter;stroke-opacity:1;fill-opacity:1"
     d="M 178.9145,211.27138 C 178.9145,211.27138 201.1202,203.02354 204.29244,202.3891 207.46468,201.75465 215.71252,204.29244 215.07807,206.83024 214.44362,209.36803 204.29244,212.54027 199.21685,214.44362 194.14126,216.34696 183.99009,219.51921 181.45229,216.98141 178.9145,214.44362 178.9145,211.27138 178.9145,211.27138 Z"
     id="path831"
     inkscape:connector-curvature="0" />
  <path
     style="fill:#000000;stroke:none;stroke-width:1px;stroke-linecap:butt;stroke-linejoin:miter;stroke-opacity:1;fill-opacity:1"
     d="M 139.57869,249.33829 C 139.57869,249.33829 142.75093,253.14498 166.22553,243.62825 189.70012,234.11152 205.56134,233.47708 205.56134,233.47708 205.56134,233.47708 216.98141,232.20818 217.61586,235.38042 218.25031,238.55266 215.71252,242.35936 202.3891,241.72491 189.06568,241.09046 163.68773,251.87608 163.68773,251.87608 163.68773,251.87608 149.09542,259.48947 139.57869,249.33829 Z"
     id="path833"
     inkscape:connector-curvature="0" />
  <path
     style="fill:#000000;stroke:none;stroke-width:1px;stroke-linecap:butt;stroke-linejoin:miter;stroke-opacity:1;fill-opacity:1"
     d="M 93.898389,289.30855 C 93.898389,289.30855 109.12515,288.03965 131.33086,282.32962 153.53656,276.61958 188.43123,270.90954 197.31351,269.64064 206.19579,268.37175 253.14498,260.75836 253.14498,260.75836 L 269.0062,258.85502 C 269.0062,258.85502 285.50186,263.29616 287.4052,269.64064 289.30855,275.98513 288.03965,281.69517 282.96406,279.15737 277.88848,276.61958 265.1995,269.0062 254.41388,269.64064 243.62825,270.27509 210.00248,272.17844 210.00248,272.17844 210.00248,272.17844 161.78439,280.42627 143.38538,286.77076 124.98637,293.11524 113.56629,296.92193 109.7596,301.36307 105.95291,305.80421 107.22181,308.97646 93.898389,289.30855 Z"
     id="path835"
     inkscape:connector-curvature="0" />
  <path
     style="fill:#000000;stroke:none;stroke-width:1px;stroke-linecap:butt;stroke-linejoin:miter;stroke-opacity:1;fill-opacity:1"
     d="M 220.7881,290.57745 246.16605,311.51425 C 246.16605,311.51425 255.68278,323.56877 252.51053,328.64436 249.33829,333.71995 242.9938,339.42999 237.28377,331.18216 231.57373,322.93432 231.57373,310.8798 231.57373,310.8798 231.57373,310.8798 219.51921,297.55638 220.7881,290.57745 Z"
     id="path839"
     inkscape:connector-curvature="0" />
  <path
     style="fill:#000000;stroke:none;stroke-width:1px;stroke-linecap:butt;stroke-linejoin:miter;stroke-opacity:1;fill-opacity:1"
     d="M 166.85998,290.57745 C 166.85998,290.57745 152.90211,308.34201 150.99876,319.76208 149.09542,331.18216 150.99876,336.89219 150.99876,336.89219 150.99876,336.89219 165.59108,329.91326 166.85998,326.10657 168.12887,322.29988 166.85998,290.57745 166.85998,290.57745 Z"
     id="path841"
     inkscape:connector-curvature="0" />
  <path
     style="fill:#000000;stroke:none;stroke-width:1px;stroke-linecap:butt;stroke-linejoin:miter;stroke-opacity:1;fill-opacity:1"
     d="M 189.70012,286.13631 194.14126,293.74969 191.60347,342.60223 C 191.60347,342.60223 183.99009,341.33333 179.54895,337.52664 175.10781,333.71995 177.6456,342.60223 182.72119,353.38786 187.79678,364.17348 186.52788,367.34572 192.87237,368.61462 199.21685,369.88352 204.29244,364.80793 204.29244,360.36679 204.29244,355.92565 201.1202,343.87113 201.75465,337.52664 202.3891,331.18216 204.92689,295.65304 204.92689,295.65304 V 286.13631 C 204.92689,286.13631 194.14126,279.79182 193.50682,280.42627 192.87237,281.06072 189.70012,281.69517 189.70012,286.13631 Z"
     id="path843"
     inkscape:connector-curvature="0" />
  <path
     style="fill:#000000;stroke:none;stroke-width:1px;stroke-linecap:butt;stroke-linejoin:miter;stroke-opacity:1;fill-opacity:1"
     d="M 329.91326,105.31846 C 329.91326,105.31846 340.06444,114.83519 340.06444,121.17968 340.06444,127.52416 331.8166,142.11648 331.8166,142.11648 L 310.24535,170.03222 300.72862,177.6456 C 300.72862,177.6456 298.82528,176.3767 310.24535,159.24659 321.66543,142.11648 330.54771,124.98637 330.54771,121.81413 330.54771,118.64188 329.91326,105.31846 329.91326,105.31846 Z"
     id="path845"
     inkscape:connector-curvature="0" />
  <path
     style="fill:#000000;stroke:none;stroke-width:1px;stroke-linecap:butt;stroke-linejoin:miter;stroke-opacity:1;fill-opacity:1"
     d="M 348.31227,159.88104 C 348.31227,159.88104 350.21561,175.10781 346.40892,182.72119 342.60223,190.33457 338.16109,205.56134 331.18216,210.63693 324.20322,215.71252 321.03098,221.42255 321.03098,221.42255 L 349.58116,218.25031 C 349.58116,218.25031 355.92565,216.98141 355.92565,211.27138 355.92565,205.56134 371.78686,198.5824 373.69021,209.36803 375.59356,220.15366 360.36679,223.96035 360.36679,223.96035 L 328.64436,251.87608 312.1487,266.4684 C 312.1487,266.4684 307.70756,272.81289 317.22429,269.64064 326.74102,266.4684 359.09789,258.22057 359.09789,258.22057 L 351.48451,243.62825 C 351.48451,243.62825 374.32466,249.33829 378.13135,253.14498 381.93804,256.95167 388.28253,263.29616 386.37918,267.10285 384.47584,270.90954 383.20694,272.81289 378.7658,273.44734 374.32466,274.08178 363.53903,267.7373 361.00124,266.4684 358.46344,265.1995 331.8166,274.71623 331.8166,274.71623 331.8166,274.71623 322.29988,277.88848 319.76208,279.15737 317.22429,280.42627 308.34201,288.03965 308.34201,288.03965 308.34201,288.03965 302.63197,291.84634 300.09418,286.13631 297.55638,280.42627 289.943,271.54399 291.84634,269.0062 293.74969,266.4684 295.01859,274.08178 305.80421,264.56506 316.58984,255.04833 337.52664,234.11152 338.16109,232.20818 338.79554,230.30483 321.66543,230.93928 309.6109,236.01487 297.55638,241.09046 295.65304,237.91822 295.65304,237.91822 L 296.92193,227.13259 297.55638,220.7881 C 297.55638,220.7881 307.07311,218.25031 309.6109,215.71252 312.1487,213.17472 328.64436,200.48575 333.71995,190.33457 338.79554,180.1834 348.31227,159.88104 348.31227,159.88104 Z"
     id="path847"
     inkscape:connector-curvature="0" />
  <path
     style="fill:#000000;stroke:none;stroke-width:1px;stroke-linecap:butt;stroke-linejoin:miter;stroke-opacity:1;fill-opacity:1"
     d="M 366.71128,285.50186 C 366.71128,285.50186 397.16481,308.34201 399.06815,314.05204 400.9715,319.76208 395.89591,334.98885 395.89591,334.98885 395.89591,334.98885 387.64808,332.45105 378.13135,313.4176 368.61462,294.38414 366.71128,285.50186 366.71128,285.50186 Z"
     id="path849"
     inkscape:connector-curvature="0" />
  <path
     style="fill:#000000;stroke:none;stroke-width:1px;stroke-linecap:butt;stroke-linejoin:miter;stroke-opacity:1;fill-opacity:1"
     d="M 291.84634,298.82528 C 291.84634,298.82528 288.03965,298.19083 286.13631,309.6109 284.23296,321.03098 284.23296,337.52664 284.23296,337.52664 284.23296,337.52664 289.943,349.58116 295.65304,341.33333 301.36307,333.0855 300.72862,324.83767 300.72862,324.83767 300.72862,324.83767 294.38414,314.05204 291.84634,298.82528 Z"
     id="path851"
     inkscape:connector-curvature="0" />
  <path
     style="fill:#000000;stroke:none;stroke-width:1px;stroke-linecap:butt;stroke-linejoin:miter;stroke-opacity:1;fill-opacity:1"
     d="M 322.93432,288.6741 C 322.93432,288.6741 336.89219,293.11524 337.52664,296.28748 338.16109,299.45973 336.25774,300.72862 336.25774,313.4176 336.25774,326.10657 336.89219,347.04337 336.89219,347.04337 L 337.52664,361.63569 334.3544,376.228 C 334.3544,376.228 326.74102,385.74473 324.83767,373.05576 322.93432,360.36679 320.39653,346.40892 320.39653,346.40892 L 326.10657,347.67782 328.00991,310.8798 Z"
     id="path853"
     inkscape:connector-curvature="0" />
</svg>
