<?xml version="1.0" encoding="UTF-8" standalone="no"?>
<!-- Created with Inkscape (http://www.inkscape.org/) -->

<svg
   xmlns:dc="http://purl.org/dc/elements/1.1/"
   xmlns:cc="http://creativecommons.org/ns#"
   xmlns:rdf="http://www.w3.org/1999/02/22-rdf-syntax-ns#"
   xmlns:svg="http://www.w3.org/2000/svg"
   xmlns="http://www.w3.org/2000/svg"
   xmlns:sodipodi="http://sodipodi.sourceforge.net/DTD/sodipodi-0.dtd"
   xmlns:inkscape="http://www.inkscape.org/namespaces/inkscape"
   version="1.1"
   id="svg815"
   width="512"
   height="512"
   viewBox="0 0 512 512"
   sodipodi:docname="高.svg"
   inkscape:version="0.92.2 (5c3e80d, 2017-08-06)">
  <metadata
     id="metadata821">
    <rdf:RDF>
      <cc:Work
         rdf:about="">
        <dc:format>image/svg+xml</dc:format>
        <dc:type
           rdf:resource="http://purl.org/dc/dcmitype/StillImage" />
        <dc:title></dc:title>
      </cc:Work>
    </rdf:RDF>
  </metadata>
  <defs
     id="defs819" />
  <sodipodi:namedview
     pagecolor="#ffffff"
     bordercolor="#666666"
     borderopacity="1"
     objecttolerance="10"
     gridtolerance="10"
     guidetolerance="10"
     inkscape:pageopacity="0"
     inkscape:pageshadow="2"
     inkscape:window-width="1920"
     inkscape:window-height="1001"
     id="namedview817"
     showgrid="false"
     inkscape:zoom="1.19"
     inkscape:cx="256"
     inkscape:cy="256"
     inkscape:window-x="-9"
     inkscape:window-y="-9"
     inkscape:window-maximized="1"
     inkscape:current-layer="svg815" />
  <path
     style="fill:#000000;stroke:none;stroke-width:1px;stroke-linecap:butt;stroke-linejoin:miter;stroke-opacity:1;fill-opacity:1"
     d="M 231.46704,149.03806 C 231.46704,149.03806 259.38719,145.43546 266.59239,151.74001 273.79759,158.04456 270.19499,169.75301 270.19499,169.75301 L 261.18849,183.26276 C 261.18849,183.26276 249.48004,167.95171 250.38069,162.54781 251.28134,157.14391 213.45404,161.64716 231.46704,149.03806 Z"
     id="path825"
     inkscape:connector-curvature="0" />
  <path
     style="fill:#000000;stroke:none;stroke-width:1px;stroke-linecap:butt;stroke-linejoin:miter;stroke-opacity:1;fill-opacity:1"
     d="M 145.90529,191.36861 196.34169,185.96471 319.73074,167.05106 333.24049,162.54781 368.36584,174.25626 371.96844,183.26276 C 371.96844,183.26276 328.73724,170.65366 313.42619,173.35561 298.11514,176.05756 217.95729,188.66666 217.95729,188.66666 217.95729,188.66666 183.73259,194.97121 178.32869,202.17641 172.92479,209.38161 141.40205,195.87186 145.90529,191.36861 Z"
     id="path827"
     inkscape:connector-curvature="0" />
  <path
     style="fill:#000000;stroke:none;stroke-width:1px;stroke-linecap:butt;stroke-linejoin:miter;stroke-opacity:1;fill-opacity:1"
     d="M 151.30919,298.54596 C 151.30919,298.54596 162.11699,317.45961 163.91829,327.36676 165.71959,337.27391 166.62024,354.38626 166.62024,354.38626 L 177.42804,367.89601 C 177.42804,367.89601 182.83194,367.89601 180.12999,340.87651 177.42804,313.85701 171.12349,293.14206 159.41504,294.04271 147.70659,294.94336 151.30919,298.54596 151.30919,298.54596 Z"
     id="path829"
     inkscape:connector-curvature="0" />
  <path
     style="fill:#000000;stroke:none;stroke-width:1px;stroke-linecap:butt;stroke-linejoin:miter;stroke-opacity:1;fill-opacity:1"
     d="M 208.05014,194.07056 C 208.05014,194.07056 217.05664,203.97771 218.85794,217.48746 220.65924,230.99721 217.95729,257.11606 217.95729,257.11606 L 214.35469,267.92386 C 214.35469,267.92386 218.85794,279.63231 218.85794,281.43361 218.85794,283.23491 223.36119,289.53946 226.06314,273.32776 228.76509,257.11606 231.46704,221.09006 231.46704,221.09006 231.46704,221.09006 234.16899,211.18291 226.96379,200.37511 219.75859,189.56731 219.75859,172.45496 208.05014,194.07056 Z"
     id="path831"
     inkscape:connector-curvature="0" />
  <path
     style="fill:#000000;stroke:none;stroke-width:1px;stroke-linecap:butt;stroke-linejoin:miter;stroke-opacity:1;fill-opacity:1"
     d="M 234.16899,211.18291 250.38069,206.67966 261.18849,211.18291 243.17549,221.99071 C 243.17549,221.99071 231.46704,221.09006 231.46704,221.09006 Z"
     id="path833"
     inkscape:connector-curvature="0" />
  <path
     style="fill:#000000;stroke:none;stroke-width:1px;stroke-linecap:butt;stroke-linejoin:miter;stroke-opacity:1;fill-opacity:1"
     d="M 227.86444,247.20891 247.67874,244.50696 248.57939,252.61281 233.26834,259.81801 C 233.26834,259.81801 212.55339,248.10956 227.86444,247.20891 Z"
     id="path835"
     inkscape:connector-curvature="0" />
  <path
     style="fill:#000000;stroke:none;stroke-width:1px;stroke-linecap:butt;stroke-linejoin:miter;stroke-opacity:1;fill-opacity:1"
     d="M 270.19499,169.75301 C 270.19499,169.75301 288.20799,176.95821 285.50604,186.86536 282.80409,196.77251 281.90344,212.98421 278.30084,226.49396 274.69824,240.00371 274.69824,267.02321 274.69824,267.02321 L 267.49304,276.93036 C 267.49304,276.93036 262.08914,268.82451 262.98979,261.61931 263.89044,254.41411 266.59239,245.40761 268.39369,231.89786 270.19499,218.38811 274.69824,186.86536 274.69824,186.86536 L 270.19499,169.75301 C 270.19499,169.75301 256.68524,174.25626 270.19499,169.75301 Z"
     id="path837"
     inkscape:connector-curvature="0" />
  <path
     style="fill:#000000;stroke:none;stroke-width:1px;stroke-linecap:butt;stroke-linejoin:miter;stroke-opacity:1;fill-opacity:1"
     d="M 179.83193,281.7479 C 179.83193,281.7479 185.71429,297.71429 185.71429,301.91597 185.71429,306.11765 193.27731,308.63866 204.20168,301.07563 215.12605,293.51261 252.94118,286.78992 280.67227,285.94958 308.40336,285.10924 345.37815,281.7479 345.37815,281.7479 345.37815,281.7479 354.62185,280.90756 352.10084,295.19328 349.57983,309.47899 341.17647,342.2521 341.17647,342.2521 L 338.65546,350.65546 324.36975,344.77311 H 322.68908 C 322.68908,344.77311 326.89076,359.05882 329.41176,363.2605 331.93277,367.46218 334.45378,380.06723 334.45378,380.06723 334.45378,380.06723 336.97479,385.10924 340.33613,375.86555 343.69748,366.62185 354.62185,347.29412 354.62185,339.73109 354.62185,332.16807 368.06723,290.9916 368.06723,290.9916 368.06723,290.9916 369.7479,276.70588 369.7479,273.34454 369.7479,269.98319 361.34454,262.42017 343.69748,264.94118 326.05042,267.46218 284.03361,273.34454 284.03361,273.34454 284.03361,273.34454 241.17647,280.06723 231.09244,280.06723 221.0084,280.06723 194.95798,285.10924 189.07563,283.42857 183.19328,281.7479 179.83193,281.7479 179.83193,281.7479 Z"
     id="path839"
     inkscape:connector-curvature="0" />
  <path
     style="fill:#000000;stroke:none;stroke-width:1px;stroke-linecap:butt;stroke-linejoin:miter;stroke-opacity:1;fill-opacity:1"
     d="M 210.92437,310.31933 C 210.92437,310.31933 221.84874,325.44538 221.84874,333.84874 221.84874,342.2521 224.36975,358.21849 224.36975,358.21849 L 231.93277,355.69748 C 231.93277,355.69748 227.73109,333.84874 229.41176,327.12605 231.09244,320.40336 214.28571,301.91597 210.92437,310.31933 Z"
     id="path841"
     inkscape:connector-curvature="0" />
  <path
     style="fill:#000000;stroke:none;stroke-width:1px;stroke-linecap:butt;stroke-linejoin:miter;stroke-opacity:1;fill-opacity:1"
     d="M 227.73109,344.77311 262.18487,341.41176 C 262.18487,341.41176 269.7479,338.05042 277.31092,338.89076 284.87395,339.73109 289.91597,346.45378 289.91597,346.45378 289.91597,346.45378 278.15126,348.13445 268.90756,348.13445 259.66387,348.13445 231.93277,355.69748 231.93277,355.69748 Z"
     id="path843"
     inkscape:connector-curvature="0" />
  <path
     style="fill:#000000;stroke:none;stroke-width:1px;stroke-linecap:butt;stroke-linejoin:miter;stroke-opacity:1;fill-opacity:1"
     d="M 234.45378,307.79832 C 234.45378,307.79832 259.66387,308.63866 263.02521,307.79832 266.38655,306.95798 272.26891,303.59664 272.26891,303.59664 L 279.83193,298.55462 295.79832,304.43697 290.7563,319.56303 284.03361,338.89076 281.51261,344.77311 270.58824,343.09244 276.47059,314.52101 270.58824,312 C 270.58824,312 251.2605,325.44538 243.69748,322.08403 236.13445,318.72269 225.21008,309.47899 234.45378,307.79832 Z"
     id="path845"
     inkscape:connector-curvature="0" />
</svg>
