<?xml version="1.0" standalone="no"?>
<!DOCTYPE svg PUBLIC "-//W3C//DTD SVG 1.1//EN" "http://www.w3.org/Graphics/SVG/1.1/DTD/svg11.dtd" >
<svg xmlns="http://www.w3.org/2000/svg" xmlns:xlink="http://www.w3.org/1999/xlink" version="1.1" viewBox="0 0 256 256">
  <g transform="matrix(1 0 0 -1 0 204)">
   <path fill="currentColor"
d="M69 118q1 4 7 3q7 -1 13 -5q4 -3 -2 -6q-10 -4 -20 -24q16 7 26 9q2 0 2 -1t-1 -3q-8 -7 -22 -10q-5 -1 -13 -4h-1q-5 -3 -12 -3q0 -1 1 -3q3 -4 4 -5q0 -3 -1 -3q-2 -1 -3 1q-17 13 -14 19q-3 11 -7 23q-2 6 2 2q3 -3 7 -6q2 1 8 3q14 5 19 8q6 2 7 5zM70 112
q-9 -4 -19 -9q-8 -4 -15 -4q3 -13 8 -22q1 -1 18 6q0 5 3 8q6 9 8 18v3h-3zM151 187h5q3 1 5 2q2 0 1 -1q-6 -6 -12 -15l-1 -2q2 -2 7 -9q24 -48 42 -62q6 -6 15 -5q18 0 36 -7q1 -2 0 -2h-10q-17 2 -28 2q-6 -1 -11 4q-13 10 -42 56q-4 7 -6 11q-3 4 -6 5q-20 -40 -31 -65
q-8 -17 -30 -33q-9 -6 -2 2q28 21 57 97q-2 0 -5 -1t-1 1q5 5 9 7q3 6 5 14q0 1 3 1zM150 110q2 0 4 -1l4 -1t5 0q4 -1 4 -4q1 -4 -6 -3q-13 -2 -21 -12q-12 -12 -17 -24q-1 -3 -1 -4q1 -1 3 1q35 14 54 15q4 0 10 -7q1 -2 1 -3t-2 -1q-1 7 -50 -60q-6 -6 -2 1q4 6 12 20
q19 29 29 43q1 2 1 3h-3q-26 -4 -45 -15q-4 -3 -5 -4q-2 -4 -4 -2q-1 0 -3 1q-2 2 -2 4q-1 1 1 4q9 19 24 35q1 2 -1 2q-4 0 -9 1q-2 0 -2 1q-4 0 0 2q14 2 17 7q1 1 4 1z" />
  </g>

</svg>
